<svg version="1.1" viewBox="0.0 0.0 448.40419947506564 168.79265091863516" fill="none" stroke="none" stroke-linecap="square" stroke-miterlimit="10" xmlns:xlink="http://www.w3.org/1999/xlink" xmlns="http://www.w3.org/2000/svg"><clipPath id="p.0"><path d="m0 0l448.4042 0l0 168.79265l-448.4042 0l0 -168.79265z" clip-rule="nonzero"/></clipPath><g clip-path="url(#p.0)"><path fill="#000000" fill-opacity="0.0" d="m0 0l448.4042 0l0 168.79265l-448.4042 0z" fill-rule="evenodd"/><path fill="#cfe2f3" d="m0 0l55.937008 0l0 55.937008l-55.937008 0z" fill-rule="evenodd"/><path stroke="#000000" stroke-width="1.0" stroke-linejoin="round" stroke-linecap="butt" d="m0 0l55.937008 0l0 55.937008l-55.937008 0z" fill-rule="evenodd"/><path fill="#000000" d="m14.218885 31.696629l-1.59375 0l0 -6.03125l1.59375 0l0 0.453125l-1.0625 0l0 5.125l1.0625 0l0 0.453125zm4.1752625 -1.328125l-2.65625 0l0 -0.53125l1.09375 0l0 -3.09375l-1.03125 0.546875l-0.203125 -0.484375l1.359375 -0.703125l0.5 0l0 3.734375l0.9375 0l0 0.53125zm1.2065125 0.671875q0.15625 0 0.3125 -0.046875q0.15625 -0.03125 0.265625 -0.09375q0.125 -0.0625 0.1875 -0.171875q0.078125 -0.109375 0.078125 -0.234375q0 -0.140625 -0.046875 -0.21875q-0.046875 -0.09375 -0.109375 -0.15625q-0.046875 -0.078125 -0.09375 -0.15625q-0.046875 -0.078125 -0.046875 -0.21875q0 -0.078125 0.015625 -0.140625q0.03125 -0.078125 0.078125 -0.140625q0.0625 -0.0625 0.140625 -0.09375q0.09375 -0.046875 0.203125 -0.046875q0.109375 0 0.21875 0.046875q0.109375 0.046875 0.1875 0.15625q0.078125 0.09375 0.125 0.234375q0.046875 0.140625 0.046875 0.34375q0 0.265625 -0.109375 0.515625q-0.09375 0.25 -0.296875 0.4375q-0.1875 0.203125 -0.484375 0.3125q-0.296875 0.109375 -0.671875 0.109375l0 -0.4375zm9.819275 -0.671875l-2.796875 0l0 -0.5l1.09375 -1.09375q0.265625 -0.265625 0.4375 -0.453125q0.171875 -0.203125 0.265625 -0.359375q0.09375 -0.171875 0.125 -0.3125q0.03125 -0.140625 0.03125 -0.3125q0 -0.15625 -0.046875 -0.296875q-0.03125 -0.140625 -0.125 -0.25q-0.09375 -0.109375 -0.234375 -0.171875q-0.140625 -0.0625 -0.328125 -0.0625q-0.265625 0 -0.5 0.125q-0.21875 0.125 -0.390625 0.3125l-0.3125 -0.375q0.234375 -0.25 0.546875 -0.40625q0.3125 -0.15625 0.734375 -0.15625q0.28125 0 0.515625 0.09375q0.234375 0.078125 0.390625 0.25q0.171875 0.15625 0.265625 0.390625q0.09375 0.21875 0.09375 0.515625q0 0.234375 -0.0625 0.453125q-0.0625 0.203125 -0.203125 0.40625q-0.125 0.203125 -0.328125 0.4375q-0.203125 0.21875 -0.46875 0.46875l-0.765625 0.75l2.0625 0l0 0.546875zm1.1596375 0.671875q0.15625 0 0.3125 -0.046875q0.15625 -0.03125 0.265625 -0.09375q0.125 -0.0625 0.1875 -0.171875q0.078125 -0.109375 0.078125 -0.234375q0 -0.140625 -0.046875 -0.21875q-0.046875 -0.09375 -0.109375 -0.15625q-0.046875 -0.078125 -0.09375 -0.15625q-0.046875 -0.078125 -0.046875 -0.21875q0 -0.078125 0.015625 -0.140625q0.03125 -0.078125 0.078125 -0.140625q0.0625 -0.0625 0.140625 -0.09375q0.09375 -0.046875 0.203125 -0.046875q0.109375 0 0.21875 0.046875q0.109375 0.046875 0.1875 0.15625q0.07812691 0.09375 0.1250019 0.234375q0.046875 0.140625 0.046875 0.34375q0 0.265625 -0.109375 0.515625q-0.09375191 0.25 -0.2968769 0.4375q-0.1875 0.203125 -0.484375 0.3125q-0.296875 0.109375 -0.671875 0.109375l0 -0.4375zm9.725527 -1.96875q0 0.28125 -0.109375 0.53125q-0.109375 0.25 -0.34375 0.4375q-0.21875 0.171875 -0.5625 0.28125q-0.34375 0.109375 -0.8125 0.109375q-0.25 0 -0.453125 -0.015625q-0.203125 -0.015625 -0.375 -0.046875l0 -0.5q0.203125 0.03125 0.421875 0.046875q0.234375 0.015625 0.46875 0.015625q0.3125 0 0.53125 -0.046875q0.234375 -0.0625 0.375 -0.171875q0.140625 -0.109375 0.203125 -0.25q0.078125 -0.15625 0.078125 -0.34375q0 -0.1875 -0.078125 -0.3125q-0.078125 -0.125 -0.21875 -0.21875q-0.140625 -0.09375 -0.34375 -0.125q-0.203125 -0.046875 -0.4375 -0.046875l-0.484375 0l0 -0.46875l0.5 0q0.1875 0 0.34375 -0.046875q0.15625 -0.046875 0.265625 -0.140625q0.125 -0.09375 0.171875 -0.234375q0.0625 -0.140625 0.0625 -0.3125q0 -0.34375 -0.203125 -0.5q-0.203125 -0.15625 -0.609375 -0.15625q-0.21875 0 -0.453125 0.046875q-0.21875 0.03125 -0.484375 0.125l0 -0.5q0.109375 -0.03125 0.234375 -0.0625q0.125 -0.03125 0.25 -0.046875q0.125 -0.03125 0.25 -0.046875q0.125 -0.015625 0.25 -0.015625q0.328125 0 0.578125 0.078125q0.265625 0.078125 0.4375 0.21875q0.171875 0.125 0.25 0.328125q0.09375 0.1875 0.09375 0.4375q0 0.359375 -0.1875 0.609375q-0.1875 0.25 -0.5 0.390625q0.15625 0.03125 0.3125 0.109375q0.171875 0.078125 0.296875 0.203125q0.125 0.109375 0.203125 0.28125q0.078125 0.171875 0.078125 0.359375zm3.0033875 2.625l-1.59375 0l0 -0.453125l1.0625 0l0 -5.125l-1.0625 0l0 -0.453125l1.59375 0l0 6.03125z" fill-rule="nonzero"/><path fill="#9fc5e8" d="m55.937008 0l55.937008 0l0 55.937008l-55.937008 0z" fill-rule="evenodd"/><path stroke="#000000" stroke-width="1.0" stroke-linejoin="round" stroke-linecap="butt" d="m55.937008 0l55.937008 0l0 55.937008l-55.937008 0z" fill-rule="evenodd"/><path fill="#000000" d="m83.30918 25.607254q1.0 0 1.96875 0.53125q0.96875 0.515625 1.5 1.484375q0.53125 0.96875 0.53125 2.0q0 1.671875 -1.171875 2.84375q-1.171875 1.171875 -2.828125 1.171875q-1.671875 0 -2.84375 -1.171875q-1.171875 -1.171875 -1.171875 -2.84375q0 -1.046875 0.53125 -2.0q0.546875 -0.96875 1.5 -1.484375q0.96875 -0.53125 1.984375 -0.53125z" fill-rule="nonzero"/><path fill="#cfe2f3" d="m111.874016 0l55.937004 0l0 55.937008l-55.937004 0z" fill-rule="evenodd"/><path stroke="#000000" stroke-width="1.0" stroke-linejoin="round" stroke-linecap="butt" d="m111.874016 0l55.937004 0l0 55.937008l-55.937004 0z" fill-rule="evenodd"/><path fill="#000000" d="m126.0929 31.696629l-1.59375 0l0 -6.03125l1.59375 0l0 0.453125l-1.0625 0l0 5.125l1.0625 0l0 0.453125zm4.425255 -2.265625l-0.71875 0l0 0.9375l-0.578125 0l0 -0.9375l-2.0468674 0l0 -0.5l1.8124924 -2.8125l0.8125 0l0 2.8125l0.71875 0l0 0.5zm-1.296875 -2.765625l-1.4843674 2.265625l1.4843674 0l0 -2.265625zm2.2533875 4.375q0.15625 0 0.3125 -0.046875q0.15625 -0.03125 0.265625 -0.09375q0.125 -0.0625 0.1875 -0.171875q0.078125 -0.109375 0.078125 -0.234375q0 -0.140625 -0.046875 -0.21875q-0.046875 -0.09375 -0.109375 -0.15625q-0.046875 -0.078125 -0.09375 -0.15625q-0.046875 -0.078125 -0.046875 -0.21875q0 -0.078125 0.015625 -0.140625q0.03125 -0.078125 0.078125 -0.140625q0.0625 -0.0625 0.140625 -0.09375q0.09375 -0.046875 0.203125 -0.046875q0.109375 0 0.21875 0.046875q0.109375 0.046875 0.1875 0.15625q0.078125 0.09375 0.125 0.234375q0.046875 0.140625 0.046875 0.34375q0 0.265625 -0.109375 0.515625q-0.09375 0.25 -0.296875 0.4375q-0.1875 0.203125 -0.484375 0.3125q-0.296875 0.109375 -0.671875 0.109375l0 -0.4375zm9.7099 -2.03125q0 0.3125 -0.140625 0.578125q-0.140625 0.265625 -0.375 0.453125q-0.234375 0.171875 -0.5625 0.28125q-0.328125 0.109375 -0.703125 0.109375q-0.09375 0 -0.203125 -0.015625q-0.109375 0 -0.21875 -0.015625q-0.109375 0 -0.21875 -0.015625q-0.09375 0 -0.171875 -0.015625l0 -0.515625q0.171875 0.046875 0.390625 0.0625q0.234375 0.015625 0.46875 0.015625q0.265625 0 0.46875 -0.0625q0.203125 -0.0625 0.34375 -0.171875q0.15625 -0.109375 0.234375 -0.265625q0.078125 -0.171875 0.078125 -0.375q0 -0.40625 -0.28125 -0.578125q-0.28125 -0.1875 -0.828125 -0.1875l-0.796875 0l0 -2.171875l2.28125 0l0 0.5l-1.75 0l0 1.1875l0.375 0q0.296875 0 0.578125 0.0625q0.296875 0.046875 0.515625 0.1875q0.234375 0.140625 0.375 0.375q0.140625 0.234375 0.140625 0.578125zm1.2690125 2.03125q0.15625 0 0.3125 -0.046875q0.15625 -0.03125 0.265625 -0.09375q0.125 -0.0625 0.1875 -0.171875q0.078125 -0.109375 0.078125 -0.234375q0 -0.140625 -0.046875 -0.21875q-0.046875 -0.09375 -0.109375 -0.15625q-0.046875 -0.078125 -0.09375 -0.15625q-0.046875 -0.078125 -0.046875 -0.21875q0 -0.078125 0.015625 -0.140625q0.03125 -0.078125 0.078125 -0.140625q0.0625 -0.0625 0.140625 -0.09375q0.09375 -0.046875 0.203125 -0.046875q0.109375 0 0.21875 0.046875q0.109375 0.046875 0.1875 0.15625q0.078125 0.09375 0.125 0.234375q0.046875 0.140625 0.046875 0.34375q0 0.265625 -0.109375 0.515625q-0.09375 0.25 -0.296875 0.4375q-0.1875 0.203125 -0.484375 0.3125q-0.296875 0.109375 -0.671875 0.109375l0 -0.4375zm9.86615 -2.015625q0 0.296875 -0.109375 0.546875q-0.109375 0.25 -0.296875 0.453125q-0.1875 0.1875 -0.46875 0.296875q-0.28125 0.109375 -0.609375 0.109375q-0.359375 0 -0.625 -0.109375q-0.265625 -0.125 -0.453125 -0.34375q-0.171875 -0.234375 -0.265625 -0.59375q-0.09375 -0.359375 -0.09375 -0.84375q0 -0.3125 0.03125 -0.625q0.046875 -0.3125 0.140625 -0.578125q0.09375 -0.265625 0.25 -0.484375q0.171875 -0.234375 0.40625 -0.390625q0.25 -0.15625 0.578125 -0.25q0.328125 -0.09375 0.765625 -0.09375l0.421875 0l0 0.5l-0.453125 0q-0.390625 0 -0.671875 0.09375q-0.265625 0.078125 -0.46875 0.25q-0.1875 0.171875 -0.28125 0.40625q-0.09375 0.234375 -0.125 0.515625l-0.015625 0.140625q0.203125 -0.125 0.46875 -0.1875q0.265625 -0.078125 0.578125 -0.078125q0.328125 0 0.5625 0.09375q0.25 0.09375 0.40625 0.265625q0.171875 0.15625 0.25 0.390625q0.078125 0.234375 0.078125 0.515625zm-0.59375 0.03125q0 -0.1875 -0.046875 -0.34375q-0.046875 -0.15625 -0.15625 -0.265625q-0.09375 -0.109375 -0.25 -0.171875q-0.15625 -0.0625 -0.359375 -0.0625q-0.125 0 -0.25 0.03125q-0.125 0.015625 -0.25 0.0625q-0.125 0.03125 -0.234375 0.09375q-0.109375 0.046875 -0.203125 0.09375q0 0.421875 0.0625 0.703125q0.0625 0.28125 0.171875 0.453125q0.109375 0.171875 0.28125 0.25q0.171875 0.0625 0.390625 0.0625q0.1875 0 0.34375 -0.0625q0.15625 -0.0625 0.265625 -0.171875q0.109375 -0.125 0.171875 -0.28125q0.0625 -0.171875 0.0625 -0.390625zm3.4565125 2.640625l-1.59375 0l0 -0.453125l1.0625 0l0 -5.125l-1.0625 0l0 -0.453125l1.59375 0l0 6.03125z" fill-rule="nonzero"/><path fill="#9fc5e8" d="m167.81102 0l55.93701 0l0 55.937008l-55.93701 0z" fill-rule="evenodd"/><path stroke="#000000" stroke-width="1.0" stroke-linejoin="round" stroke-linecap="butt" d="m167.81102 0l55.93701 0l0 55.937008l-55.93701 0z" fill-rule="evenodd"/><path fill="#000000" d="m195.1832 25.607254q1.0 0 1.96875 0.53125q0.96875 0.515625 1.5 1.484375q0.53125 0.96875 0.53125 2.0q0 1.671875 -1.171875 2.84375q-1.171875 1.171875 -2.828125 1.171875q-1.671875 0 -2.84375 -1.171875q-1.171875 -1.171875 -1.171875 -2.84375q0 -1.046875 0.53125 -2.0q0.546875 -0.96875 1.5 -1.484375q0.96875 -0.53125 1.984375 -0.53125z" fill-rule="nonzero"/><path fill="#fff2cc" d="m223.74803 0l55.936996 0l0 55.937008l-55.936996 0z" fill-rule="evenodd"/><path stroke="#000000" stroke-width="1.0" stroke-linejoin="round" stroke-linecap="butt" d="m223.74803 0l55.936996 0l0 55.937008l-55.936996 0z" fill-rule="evenodd"/><path fill="#000000" d="m237.79218 31.151005l-1.296875 0l0 -4.828125l1.296875 0l0 0.359375l-0.859375 0l0 4.109375l0.859375 0l0 0.359375zm3.273178 -2.15625q0 0.265625 -0.109375 0.46875q-0.109375 0.203125 -0.296875 0.359375q-0.1875 0.140625 -0.453125 0.234375q-0.25 0.078125 -0.5625 0.078125q-0.078125 0 -0.171875 -0.015625q-0.078125 0 -0.171875 0q-0.078125 0 -0.15625 -0.015625q-0.078125 0 -0.140625 -0.015625l0 -0.40625q0.140625 0.03125 0.3125 0.046875q0.1875 0.015625 0.375 0.015625q0.203125 0 0.359375 -0.046875q0.171875 -0.046875 0.28125 -0.140625q0.125 -0.09375 0.1875 -0.21875q0.0625 -0.140625 0.0625 -0.3125q0 -0.3125 -0.234375 -0.453125q-0.21875 -0.140625 -0.640625 -0.140625l-0.65625 0l0 -1.75l1.84375 0l0 0.40625l-1.40625 0l0 0.953125l0.296875 0q0.234375 0 0.46875 0.046875q0.234375 0.03125 0.40625 0.15625q0.1875 0.109375 0.296875 0.296875q0.109375 0.171875 0.109375 0.453125zm3.101303 -0.609375q0 0.390625 -0.078125 0.71875q-0.078125 0.3125 -0.234375 0.546875q-0.15625 0.234375 -0.40625 0.359375q-0.234375 0.125 -0.546875 0.125q-0.265625 0 -0.5 -0.09375q-0.21875 -0.109375 -0.375 -0.3125q-0.15625 -0.21875 -0.25 -0.546875q-0.078125 -0.34375 -0.078125 -0.796875q0 -0.390625 0.078125 -0.703125q0.078125 -0.328125 0.234375 -0.546875q0.15625 -0.234375 0.390625 -0.359375q0.234375 -0.140625 0.546875 -0.140625q0.28125 0 0.5 0.109375q0.234375 0.109375 0.390625 0.328125q0.15625 0.203125 0.234375 0.53125q0.09375 0.328125 0.09375 0.78125zm-0.453125 0.015625q0 -0.078125 -0.015625 -0.171875q0 -0.09375 -0.015625 -0.171875l-1.4375 1.078125q0.046875 0.125 0.09375 0.25q0.0625 0.109375 0.140625 0.1875q0.09375 0.078125 0.203125 0.125q0.109375 0.046875 0.25 0.046875q0.171875 0 0.3125 -0.078125q0.15625 -0.09375 0.25 -0.25q0.109375 -0.171875 0.15625 -0.421875q0.0625 -0.265625 0.0625 -0.59375zm-1.5625 -0.03125q0 0.078125 0 0.171875q0 0.078125 0.015625 0.15625l1.4375 -1.078125q-0.046875 -0.125 -0.109375 -0.234375q-0.046875 -0.109375 -0.140625 -0.1875q-0.078125 -0.078125 -0.1875 -0.125q-0.109375 -0.046875 -0.234375 -0.046875q-0.1875 0 -0.328125 0.09375q-0.140625 0.078125 -0.25 0.25q-0.09375 0.171875 -0.15625 0.421875q-0.046875 0.25 -0.046875 0.578125zm2.866928 2.25q0.125 0 0.25 -0.03125q0.125 -0.015625 0.21875 -0.078125q0.09375 -0.046875 0.15625 -0.140625q0.0625 -0.078125 0.0625 -0.1875q0 -0.109375 -0.046875 -0.171875q-0.03125 -0.0625 -0.078125 -0.125q-0.046875 -0.0625 -0.09375 -0.125q-0.03125 -0.0625 -0.03125 -0.171875q0 -0.0625 0.015625 -0.109375q0.03125 -0.0625 0.0625 -0.109375q0.046875 -0.0625 0.109375 -0.09375q0.078125 -0.03125 0.15625 -0.03125q0.09375 0 0.171875 0.046875q0.09375 0.03125 0.15625 0.109375q0.0625 0.078125 0.09375 0.203125q0.046875 0.109375 0.046875 0.265625q0 0.21875 -0.078125 0.421875q-0.078125 0.203125 -0.234375 0.34375q-0.15625 0.15625 -0.390625 0.25q-0.234375 0.09375 -0.546875 0.09375l0 -0.359375zm7.843231 -3.515625l-1.4375 2.984375l-0.515625 0l1.484375 -2.984375l-1.84375 0l0 -0.421875l2.3125 0l0 0.421875zm0.9450531 3.515625q0.125 0 0.25 -0.03125q0.125 -0.015625 0.21875 -0.078125q0.09375 -0.046875 0.15625 -0.140625q0.0625 -0.078125 0.0625 -0.1875q0 -0.109375 -0.046875 -0.171875q-0.03125 -0.0625 -0.078125 -0.125q-0.046875 -0.0625 -0.09375 -0.125q-0.03125 -0.0625 -0.03125 -0.171875q0 -0.0625 0.015625 -0.109375q0.03125 -0.0625 0.0625 -0.109375q0.046875 -0.0625 0.109375 -0.09375q0.078125 -0.03125 0.15625 -0.03125q0.09375 0 0.171875 0.046875q0.09375 0.03125 0.15625 0.109375q0.0625 0.078125 0.09375 0.203125q0.046875 0.109375 0.046875 0.265625q0 0.21875 -0.078125 0.421875q-0.078125 0.203125 -0.234375 0.34375q-0.15625 0.15625 -0.390625 0.25q-0.234375 0.09375 -0.546875 0.09375l0 -0.359375zm8.030731 -1.28125l-0.578125 0l0 0.75l-0.46875 0l0 -0.75l-1.640625 0l0 -0.40625l1.453125 -2.25l0.65625 0l0 2.25l0.578125 0l0 0.40625zm-1.046875 -2.21875l-1.1875 1.8125l1.1875 0l0 -1.8125zm3.7888184 1.078125q0 0.5 -0.125 0.859375q-0.125 0.359375 -0.359375 0.59375q-0.234375 0.21875 -0.578125 0.328125q-0.34375 0.109375 -0.796875 0.109375l-0.28125 0l0 -0.390625l0.3125 0q0.34375 0 0.578125 -0.0625q0.25 -0.078125 0.40625 -0.203125q0.171875 -0.140625 0.25 -0.328125q0.09375 -0.1875 0.109375 -0.421875l0.015625 -0.109375q-0.171875 0.09375 -0.390625 0.15625q-0.203125 0.046875 -0.453125 0.046875q-0.265625 0 -0.46875 -0.0625q-0.1875 -0.078125 -0.3125 -0.21875q-0.125 -0.140625 -0.1875 -0.3125q-0.0625 -0.1875 -0.0625 -0.40625q0 -0.25 0.078125 -0.453125q0.09375 -0.203125 0.234375 -0.34375q0.15625 -0.15625 0.375 -0.25q0.21875 -0.09375 0.484375 -0.09375q0.25 0 0.453125 0.09375q0.21875 0.078125 0.375 0.265625q0.15625 0.1875 0.25 0.484375q0.09375 0.296875 0.09375 0.71875zm-1.203125 -1.1875q-0.140625 0 -0.265625 0.046875q-0.125 0.046875 -0.21875 0.140625q-0.078125 0.09375 -0.140625 0.234375q-0.046875 0.125 -0.046875 0.3125q0 0.15625 0.03125 0.28125q0.046875 0.125 0.125 0.21875q0.078125 0.078125 0.203125 0.125q0.125 0.046875 0.296875 0.046875q0.09375 0 0.1875 -0.015625q0.109375 -0.015625 0.203125 -0.046875q0.109375 -0.03125 0.1875 -0.078125q0.09375 -0.046875 0.171875 -0.09375q0 -0.328125 -0.0625 -0.546875q-0.046875 -0.234375 -0.140625 -0.359375q-0.09375 -0.140625 -0.234375 -0.203125q-0.125 -0.0625 -0.296875 -0.0625zm3.5544128 4.140625l-1.28125 0l0 -0.359375l0.84375 0l0 -4.109375l-0.84375 0l0 -0.359375l1.28125 0l0 4.828125z" fill-rule="nonzero"/><path fill="#ffe599" d="m279.68503 0l55.93701 0l0 55.937008l-55.93701 0z" fill-rule="evenodd"/><path stroke="#000000" stroke-width="1.0" stroke-linejoin="round" stroke-linecap="butt" d="m279.68503 0l55.93701 0l0 55.937008l-55.93701 0z" fill-rule="evenodd"/><path fill="#000000" d="m307.05722 25.607254q1.0 0 1.96875 0.53125q0.96875 0.515625 1.5 1.484375q0.53125 0.96875 0.53125 2.0q0 1.671875 -1.171875 2.84375q-1.171875 1.171875 -2.828125 1.171875q-1.671875 0 -2.84375 -1.171875q-1.171875 -1.171875 -1.171875 -2.84375q0 -1.046875 0.53125 -2.0q0.546875 -0.96875 1.5 -1.484375q0.96875 -0.53125 1.984375 -0.53125z" fill-rule="nonzero"/><path fill="#f3f3f3" d="m335.62204 0l55.93701 0l0 55.937008l-55.93701 0z" fill-rule="evenodd"/><path stroke="#000000" stroke-width="1.0" stroke-linejoin="round" stroke-linecap="butt" d="m335.62204 0l55.93701 0l0 55.937008l-55.93701 0z" fill-rule="evenodd"/><path fill="#f3f3f3" d="m391.55905 0l55.93701 0l0 55.937008l-55.93701 0z" fill-rule="evenodd"/><path stroke="#000000" stroke-width="1.0" stroke-linejoin="round" stroke-linecap="butt" d="m391.55905 0l55.93701 0l0 55.937008l-55.93701 0z" fill-rule="evenodd"/><path fill="#f3f3f3" d="m0 55.937008l55.937008 0l0 55.937008l-55.937008 0z" fill-rule="evenodd"/><path stroke="#000000" stroke-width="1.0" stroke-linejoin="round" stroke-linecap="butt" d="m0 55.937008l55.937008 0l0 55.937008l-55.937008 0z" fill-rule="evenodd"/><path fill="#f3f3f3" d="m55.937008 55.937008l55.937008 0l0 55.937008l-55.937008 0z" fill-rule="evenodd"/><path stroke="#000000" stroke-width="1.0" stroke-linejoin="round" stroke-linecap="butt" d="m55.937008 55.937008l55.937008 0l0 55.937008l-55.937008 0z" fill-rule="evenodd"/><path fill="#f3f3f3" d="m111.874016 55.937008l55.937004 0l0 55.937008l-55.937004 0z" fill-rule="evenodd"/><path stroke="#000000" stroke-width="1.0" stroke-linejoin="round" stroke-linecap="butt" d="m111.874016 55.937008l55.937004 0l0 55.937008l-55.937004 0z" fill-rule="evenodd"/><path fill="#f3f3f3" d="m167.81102 55.937008l55.93701 0l0 55.937008l-55.93701 0z" fill-rule="evenodd"/><path stroke="#000000" stroke-width="1.0" stroke-linejoin="round" stroke-linecap="butt" d="m167.81102 55.937008l55.93701 0l0 55.937008l-55.93701 0z" fill-rule="evenodd"/><path fill="#fff2cc" d="m223.74803 55.937008l55.936996 0l0 55.937008l-55.936996 0z" fill-rule="evenodd"/><path stroke="#000000" stroke-width="1.0" stroke-linejoin="round" stroke-linecap="butt" d="m223.74803 55.937008l55.936996 0l0 55.937008l-55.936996 0z" fill-rule="evenodd"/><path fill="#000000" d="m236.1371 87.63364l-1.59375 0l0 -6.03125l1.59375 0l0 0.453125l-1.0625 0l0 5.125l1.0625 0l0 0.453125zm4.1752625 -1.328125l-2.65625 0l0 -0.53125l1.09375 0l0 -3.09375l-1.03125 0.546875l-0.203125 -0.484375l1.359375 -0.703125l0.5 0l0 3.734375l0.9375 0l0 0.53125zm1.2065125 0.671875q0.15625 0 0.3125 -0.046875q0.15625 -0.03125 0.265625 -0.09375q0.125 -0.0625 0.1875 -0.171875q0.078125 -0.109375 0.078125 -0.234375q0 -0.140625 -0.046875 -0.21875q-0.046875 -0.09375 -0.109375 -0.15625q-0.046875 -0.078125 -0.09375 -0.15625q-0.046875 -0.078125 -0.046875 -0.21875q0 -0.078125 0.015625 -0.140625q0.03125 -0.078125 0.078125 -0.140625q0.0625 -0.0625 0.140625 -0.09375q0.09375 -0.046875 0.203125 -0.046875q0.109375 0 0.21875 0.046875q0.109375 0.046875 0.1875 0.15625q0.078125 0.09375 0.125 0.234375q0.046875 0.140625 0.046875 0.34375q0 0.265625 -0.109375 0.515625q-0.09375 0.25 -0.296875 0.4375q-0.1875 0.203125 -0.484375 0.3125q-0.296875 0.109375 -0.671875 0.109375l0 -0.4375zm9.7724 -0.671875l-2.65625 0l0 -0.53125l1.09375 0l0 -3.09375l-1.03125 0.546875l-0.203125 -0.484375l1.359375 -0.703125l0.5 0l0 3.734375l0.9375 0l0 0.53125zm3.8002625 -2.125q0 0.484375 -0.109375 0.890625q-0.09375 0.40625 -0.296875 0.703125q-0.1875 0.28125 -0.484375 0.4375q-0.296875 0.15625 -0.6875 0.15625q-0.34375 0 -0.625 -0.125q-0.28125 -0.140625 -0.484375 -0.40625q-0.1875 -0.265625 -0.296875 -0.671875q-0.109375 -0.421875 -0.109375 -0.984375q0 -0.484375 0.09375 -0.890625q0.109375 -0.40625 0.296875 -0.6875q0.203125 -0.28125 0.5 -0.4375q0.296875 -0.171875 0.6875 -0.171875q0.34375 0 0.625 0.140625q0.28125 0.125 0.46875 0.390625q0.203125 0.265625 0.3125 0.6875q0.109375 0.40625 0.109375 0.96875zm-0.578125 0.015625q0 -0.109375 -0.015625 -0.21875q0 -0.109375 0 -0.203125l-1.796875 1.328125q0.046875 0.171875 0.109375 0.3125q0.078125 0.140625 0.1875 0.25q0.109375 0.09375 0.234375 0.15625q0.140625 0.0625 0.3125 0.0625q0.21875 0 0.390625 -0.109375q0.1875 -0.109375 0.3125 -0.3125q0.140625 -0.21875 0.203125 -0.53125q0.0625 -0.3125 0.0625 -0.734375zm-1.9375 -0.03125q0 0.09375 0 0.203125q0 0.09375 0.015625 0.1875l1.796875 -1.328125q-0.046875 -0.15625 -0.125 -0.296875q-0.078125 -0.140625 -0.1875 -0.234375q-0.09375 -0.109375 -0.234375 -0.15625q-0.125 -0.0625 -0.296875 -0.0625q-0.21875 0 -0.40625 0.109375q-0.171875 0.109375 -0.296875 0.328125q-0.125 0.203125 -0.203125 0.53125q-0.0625 0.3125 -0.0625 0.71875zm3.5814972 2.8125q0.15625 0 0.3125 -0.046875q0.15625 -0.03125 0.265625 -0.09375q0.125 -0.0625 0.1875 -0.171875q0.078125 -0.109375 0.078125 -0.234375q0 -0.140625 -0.046875 -0.21875q-0.046875 -0.09375 -0.109375 -0.15625q-0.046875 -0.078125 -0.09375 -0.15625q-0.046875 -0.078125 -0.046875 -0.21875q0 -0.078125 0.015625 -0.140625q0.03125 -0.078125 0.078125 -0.140625q0.0625 -0.0625 0.140625 -0.09375q0.09375 -0.046875 0.203125 -0.046875q0.109375 0 0.21875 0.046875q0.109375 0.046875 0.1875 0.15625q0.078125 0.09375 0.125 0.234375q0.046875 0.140625 0.046875 0.34375q0 0.265625 -0.109375 0.515625q-0.09375 0.25 -0.296875 0.4375q-0.1875 0.203125 -0.484375 0.3125q-0.296875 0.109375 -0.671875 0.109375l0 -0.4375zm9.819275 -0.671875l-2.796875 0l0 -0.5l1.09375 -1.09375q0.265625 -0.265625 0.4375 -0.453125q0.171875 -0.203125 0.265625 -0.359375q0.09375 -0.171875 0.125 -0.3125q0.03125 -0.140625 0.03125 -0.3125q0 -0.15625 -0.046875 -0.296875q-0.03125 -0.140625 -0.125 -0.25q-0.09375 -0.109375 -0.234375 -0.171875q-0.140625 -0.0625 -0.328125 -0.0625q-0.265625 0 -0.5 0.125q-0.21875 0.125 -0.390625 0.3125l-0.3125 -0.375q0.234375 -0.25 0.546875 -0.40625q0.3125 -0.15625 0.734375 -0.15625q0.28125 0 0.515625 0.09375q0.234375 0.078125 0.390625 0.25q0.171875 0.15625 0.265625 0.390625q0.09375 0.21875 0.09375 0.515625q0 0.234375 -0.0625 0.453125q-0.0625 0.203125 -0.203125 0.40625q-0.125 0.203125 -0.328125 0.4375q-0.203125 0.21875 -0.46875 0.46875l-0.765625 0.75l2.0625 0l0 0.546875zm2.9096375 1.328125l-1.59375 0l0 -0.453125l1.0625 0l0 -5.125l-1.0625 0l0 -0.453125l1.59375 0l0 6.03125z" fill-rule="nonzero"/><path fill="#ffe599" d="m279.68503 55.937008l55.93701 0l0 55.937008l-55.93701 0z" fill-rule="evenodd"/><path stroke="#000000" stroke-width="1.0" stroke-linejoin="round" stroke-linecap="butt" d="m279.68503 55.937008l55.93701 0l0 55.937008l-55.93701 0z" fill-rule="evenodd"/><path fill="#000000" d="m307.05722 81.54426q1.0 0 1.96875 0.53125q0.96875 0.515625 1.5 1.484375q0.53125 0.96875 0.53125 2.0q0 1.671875 -1.171875 2.84375q-1.171875 1.171875 -2.828125 1.171875q-1.671875 0 -2.84375 -1.171875q-1.171875 -1.171875 -1.171875 -2.84375q0 -1.046875 0.53125 -2.0q0.546875 -0.96875 1.5 -1.484375q0.96875 -0.53125 1.984375 -0.53125z" fill-rule="nonzero"/><path fill="#fff2cc" d="m335.62204 55.937008l55.93701 0l0 55.937008l-55.93701 0z" fill-rule="evenodd"/><path stroke="#000000" stroke-width="1.0" stroke-linejoin="round" stroke-linecap="butt" d="m335.62204 55.937008l55.93701 0l0 55.937008l-55.93701 0z" fill-rule="evenodd"/><path fill="#000000" d="m349.84094 87.63364l-1.59375 0l0 -6.03125l1.59375 0l0 0.453125l-1.0625 0l0 5.125l1.0625 0l0 0.453125zm4.1283875 -2.625q0 0.28125 -0.109375 0.53125q-0.109375 0.25 -0.34375 0.4375q-0.21875 0.171875 -0.5625 0.28125q-0.34375 0.109375 -0.8125 0.109375q-0.25 0 -0.453125 -0.015625q-0.203125 -0.015625 -0.375 -0.046875l0 -0.5q0.203125 0.03125 0.421875 0.046875q0.234375 0.015625 0.46875 0.015625q0.3125 0 0.53125 -0.046875q0.234375 -0.0625 0.375 -0.171875q0.140625 -0.109375 0.203125 -0.25q0.078125 -0.15625 0.078125 -0.34375q0 -0.1875 -0.078125 -0.3125q-0.078125 -0.125 -0.21875 -0.21875q-0.140625 -0.09375 -0.34375 -0.125q-0.203125 -0.046875 -0.4375 -0.046875l-0.484375 0l0 -0.46875l0.5 0q0.1875 0 0.34375 -0.046875q0.15625 -0.046875 0.265625 -0.140625q0.125 -0.09375 0.171875 -0.234375q0.0625 -0.140625 0.0625 -0.3125q0 -0.34375 -0.203125 -0.5q-0.203125 -0.15625 -0.609375 -0.15625q-0.21875 0 -0.453125 0.046875q-0.21875 0.03125 -0.484375 0.125l0 -0.5q0.109375 -0.03125 0.234375 -0.0625q0.125 -0.03125 0.25 -0.046875q0.125 -0.03125 0.25 -0.046875q0.125 -0.015625 0.25 -0.015625q0.328125 0 0.578125 0.078125q0.265625 0.078125 0.4375 0.21875q0.171875 0.125 0.25 0.328125q0.09375 0.1875 0.09375 0.4375q0 0.359375 -0.1875 0.609375q-0.1875 0.25 -0.5 0.390625q0.15625 0.03125 0.3125 0.109375q0.171875 0.078125 0.296875 0.203125q0.125 0.109375 0.203125 0.28125q0.078125 0.171875 0.078125 0.359375zm1.2533875 1.96875q0.15625 0 0.3125 -0.046875q0.15625 -0.03125 0.265625 -0.09375q0.125 -0.0625 0.1875 -0.171875q0.078125 -0.109375 0.078125 -0.234375q0 -0.140625 -0.046875 -0.21875q-0.046875 -0.09375 -0.109375 -0.15625q-0.046875 -0.078125 -0.09375 -0.15625q-0.046875 -0.078125 -0.046875 -0.21875q0 -0.078125 0.015625 -0.140625q0.03125 -0.078125 0.078125 -0.140625q0.0625 -0.0625 0.140625 -0.09375q0.09375 -0.046875 0.203125 -0.046875q0.109375 0 0.21875 0.046875q0.109375 0.046875 0.1875 0.15625q0.078125 0.09375 0.125 0.234375q0.046875 0.140625 0.046875 0.34375q0 0.265625 -0.109375 0.515625q-0.09375 0.25 -0.296875 0.4375q-0.1875 0.203125 -0.484375 0.3125q-0.296875 0.109375 -0.671875 0.109375l0 -0.4375zm9.86615 -2.015625q0 0.296875 -0.109375 0.546875q-0.109375 0.25 -0.296875 0.453125q-0.1875 0.1875 -0.46875 0.296875q-0.28125 0.109375 -0.609375 0.109375q-0.359375 0 -0.625 -0.109375q-0.265625 -0.125 -0.453125 -0.34375q-0.171875 -0.234375 -0.265625 -0.59375q-0.09375 -0.359375 -0.09375 -0.84375q0 -0.3125 0.03125 -0.625q0.046875 -0.3125 0.140625 -0.578125q0.09375 -0.265625 0.25 -0.484375q0.171875 -0.234375 0.40625 -0.390625q0.25 -0.15625 0.578125 -0.25q0.328125 -0.09375 0.765625 -0.09375l0.421875 0l0 0.5l-0.453125 0q-0.390625 0 -0.671875 0.09375q-0.265625 0.078125 -0.46875 0.25q-0.1875 0.171875 -0.28125 0.40625q-0.09375 0.234375 -0.125 0.515625l-0.015625 0.140625q0.203125 -0.125 0.46875 -0.1875q0.265625 -0.078125 0.578125 -0.078125q0.328125 0 0.5625 0.09375q0.25 0.09375 0.40625 0.265625q0.171875 0.15625 0.25 0.390625q0.078125 0.234375 0.078125 0.515625zm-0.59375 0.03125q0 -0.1875 -0.046875 -0.34375q-0.046875 -0.15625 -0.15625 -0.265625q-0.09375 -0.109375 -0.25 -0.171875q-0.15625 -0.0625 -0.359375 -0.0625q-0.125 0 -0.25 0.03125q-0.125 0.015625 -0.25 0.0625q-0.125 0.03125 -0.234375 0.09375q-0.109375 0.046875 -0.203125 0.09375q0 0.421875 0.0625 0.703125q0.0625 0.28125 0.171875 0.453125q0.109375 0.171875 0.28125 0.25q0.171875 0.0625 0.390625 0.0625q0.1875 0 0.34375 -0.0625q0.15625 -0.0625 0.265625 -0.171875q0.109375 -0.125 0.171875 -0.28125q0.0625 -0.171875 0.0625 -0.390625zm1.7065125 1.984375q0.15625 0 0.3125 -0.046875q0.15625 -0.03125 0.265625 -0.09375q0.125 -0.0625 0.1875 -0.171875q0.078125 -0.109375 0.078125 -0.234375q0 -0.140625 -0.046875 -0.21875q-0.046875 -0.09375 -0.109375 -0.15625q-0.046875 -0.078125 -0.09375 -0.15625q-0.046875 -0.078125 -0.046875 -0.21875q0 -0.078125 0.015625 -0.140625q0.03125 -0.078125 0.078125 -0.140625q0.0625 -0.0625 0.140625 -0.09375q0.09375 -0.046875 0.203125 -0.046875q0.109375 0 0.21875 0.046875q0.109375 0.046875 0.1875 0.15625q0.078125 0.09375 0.125 0.234375q0.046875 0.140625 0.046875 0.34375q0 0.265625 -0.109375 0.515625q-0.09375 0.25 -0.296875 0.4375q-0.1875 0.203125 -0.484375 0.3125q-0.296875 0.109375 -0.671875 0.109375l0 -0.4375zm9.788025 -4.390625l-1.78125 3.71875l-0.640625 0l1.84375 -3.71875l-2.296875 0l0 -0.53125l2.875 0l0 0.53125zm2.9408875 5.046875l-1.59375 0l0 -0.453125l1.0625 0l0 -5.125l-1.0625 0l0 -0.453125l1.59375 0l0 6.03125z" fill-rule="nonzero"/><path fill="#ffe599" d="m391.55905 55.937008l55.93701 0l0 55.937008l-55.93701 0z" fill-rule="evenodd"/><path stroke="#000000" stroke-width="1.0" stroke-linejoin="round" stroke-linecap="butt" d="m391.55905 55.937008l55.93701 0l0 55.937008l-55.93701 0z" fill-rule="evenodd"/><path fill="#000000" d="m414.66818 86.58551l-0.90625 0l-1.484375 -3.1875l-0.4375 -1.015625l0 2.5625l0 1.640625l-0.640625 0l0 -5.109375l0.890625 0l1.421875 3.015625l0.515625 1.171875l0 -2.734375l0 -1.453125l0.640625 0l0 5.109375zm4.4453125 -1.78125q0 0.421875 -0.125 0.765625q-0.125 0.34375 -0.359375 0.59375q-0.21875 0.234375 -0.5625 0.375q-0.328125 0.125 -0.765625 0.125q-0.46875 0 -0.8125 -0.125q-0.328125 -0.140625 -0.53125 -0.359375q-0.203125 -0.234375 -0.3125 -0.546875q-0.09375 -0.328125 -0.09375 -0.71875l0 -3.4375l0.703125 0l0 3.375q0 0.3125 0.046875 0.546875q0.0625 0.21875 0.1875 0.375q0.140625 0.140625 0.34375 0.21875q0.203125 0.078125 0.5 0.078125q0.546875 0 0.8125 -0.3125q0.265625 -0.328125 0.265625 -0.90625l0 -3.375l0.703125 0l0 3.328125zm4.2578125 1.78125l-2.9375 0l0 -5.109375l0.71875 0l0 4.515625l2.21875 0l0 0.59375zm4.3984375 0l-2.9375 0l0 -5.109375l0.71875 0l0 4.515625l2.21875 0l0 0.59375z" fill-rule="nonzero"/><path fill="#f3f3f3" d="m0 111.874016l55.937008 0l0 55.937004l-55.937008 0z" fill-rule="evenodd"/><path stroke="#000000" stroke-width="1.0" stroke-linejoin="round" stroke-linecap="butt" d="m0 111.874016l55.937008 0l0 55.937004l-55.937008 0z" fill-rule="evenodd"/><path fill="#f3f3f3" d="m55.937008 111.874016l55.937008 0l0 55.937004l-55.937008 0z" fill-rule="evenodd"/><path stroke="#000000" stroke-width="1.0" stroke-linejoin="round" stroke-linecap="butt" d="m55.937008 111.874016l55.937008 0l0 55.937004l-55.937008 0z" fill-rule="evenodd"/><path fill="#f3f3f3" d="m111.874016 111.874016l55.937004 0l0 55.937004l-55.937004 0z" fill-rule="evenodd"/><path stroke="#000000" stroke-width="1.0" stroke-linejoin="round" stroke-linecap="butt" d="m111.874016 111.874016l55.937004 0l0 55.937004l-55.937004 0z" fill-rule="evenodd"/><path fill="#cfe2f3" d="m167.81102 111.874016l55.93701 0l0 55.937004l-55.93701 0z" fill-rule="evenodd"/><path stroke="#000000" stroke-width="1.0" stroke-linejoin="round" stroke-linecap="butt" d="m167.81102 111.874016l55.93701 0l0 55.937004l-55.93701 0z" fill-rule="evenodd"/><path fill="#000000" d="m182.0299 143.57065l-1.59375 0l0 -6.03125l1.59375 0l0 0.453125l-1.0625 0l0 5.125l1.0625 0l0 0.453125zm4.1908875 -5.046875l-1.78125 3.71875l-0.640625 0l1.84375 -3.71875l-2.296875 0l0 -0.53125l2.875 0l0 0.53125zm1.1908875 4.390625q0.15625 0 0.3125 -0.046875q0.15625 -0.03125 0.265625 -0.09375q0.125 -0.0625 0.1875 -0.171875q0.078125 -0.109375 0.078125 -0.234375q0 -0.140625 -0.046875 -0.21875q-0.046875 -0.09375 -0.109375 -0.15625q-0.046875 -0.078125 -0.09375 -0.15625q-0.046875 -0.078125 -0.046875 -0.21875q0 -0.078125 0.015625 -0.140625q0.03125 -0.078125 0.078125 -0.140625q0.0625 -0.0625 0.140625 -0.09375q0.09375 -0.046875 0.203125 -0.046875q0.109375 0 0.21875 0.046875q0.109375 0.046875 0.1875 0.15625q0.078125 0.09375 0.125 0.234375q0.046875 0.140625 0.046875 0.34375q0 0.265625 -0.109375 0.515625q-0.09375 0.25 -0.296875 0.4375q-0.1875 0.203125 -0.484375 0.3125q-0.296875 0.109375 -0.671875 0.109375l0 -0.4375zm9.819275 -1.734375q0 0.265625 -0.109375 0.484375q-0.109375 0.203125 -0.3125 0.34375q-0.203125 0.140625 -0.46875 0.21875q-0.265625 0.078125 -0.59375 0.078125q-0.34375 0 -0.609375 -0.078125q-0.265625 -0.078125 -0.453125 -0.21875q-0.171875 -0.140625 -0.265625 -0.328125q-0.078125 -0.203125 -0.078125 -0.421875q0 -0.390625 0.21875 -0.671875q0.21875 -0.296875 0.671875 -0.515625q-0.421875 -0.21875 -0.609375 -0.46875q-0.1875 -0.265625 -0.1875 -0.59375q0 -0.203125 0.078125 -0.390625q0.078125 -0.203125 0.25 -0.34375q0.171875 -0.15625 0.421875 -0.25q0.265625 -0.09375 0.609375 -0.09375q0.328125 0 0.578125 0.078125q0.25 0.0625 0.421875 0.203125q0.171875 0.125 0.25 0.3125q0.09375 0.1875 0.09375 0.40625q0 0.375 -0.21875 0.640625q-0.203125 0.25 -0.578125 0.453125q0.1875 0.09375 0.34375 0.203125q0.171875 0.109375 0.28125 0.25q0.125 0.140625 0.1875 0.3125q0.078125 0.171875 0.078125 0.390625zm-0.671875 -2.203125q0 -0.28125 -0.203125 -0.421875q-0.203125 -0.140625 -0.578125 -0.140625q-0.359375 0 -0.5625 0.140625q-0.203125 0.125 -0.203125 0.40625q0 0.125 0.046875 0.234375q0.046875 0.109375 0.140625 0.203125q0.109375 0.09375 0.265625 0.1875q0.15625 0.09375 0.359375 0.1875q0.375 -0.171875 0.546875 -0.359375q0.1875 -0.1875 0.1875 -0.4375zm0.046875 2.234375q0 -0.109375 -0.046875 -0.21875q-0.03125 -0.125 -0.140625 -0.234375q-0.09375 -0.109375 -0.265625 -0.21875q-0.15625 -0.109375 -0.421875 -0.234375q-0.21875 0.109375 -0.375 0.21875q-0.140625 0.109375 -0.234375 0.21875q-0.09375 0.109375 -0.140625 0.234375q-0.03125 0.109375 -0.03125 0.234375q0 0.140625 0.0625 0.265625q0.0625 0.109375 0.171875 0.1875q0.109375 0.078125 0.265625 0.125q0.15625 0.03125 0.328125 0.03125q0.171875 0 0.328125 -0.03125q0.15625 -0.046875 0.265625 -0.109375q0.109375 -0.078125 0.171875 -0.1875q0.0625 -0.125 0.0625 -0.28125zm1.7846375 1.703125q0.15625 0 0.3125 -0.046875q0.15625 -0.03125 0.265625 -0.09375q0.125 -0.0625 0.1875 -0.171875q0.078125 -0.109375 0.078125 -0.234375q0 -0.140625 -0.046875 -0.21875q-0.046875 -0.09375 -0.109375 -0.15625q-0.046875 -0.078125 -0.09375 -0.15625q-0.046875 -0.078125 -0.046875 -0.21875q0 -0.078125 0.015625 -0.140625q0.03125 -0.078125 0.078125 -0.140625q0.0625 -0.0625 0.140625 -0.09375q0.09375 -0.046875 0.203125 -0.046875q0.109375 0 0.21875 0.046875q0.109375 0.046875 0.1875 0.15625q0.078125 0.09375 0.125 0.234375q0.046875 0.140625 0.046875 0.34375q0 0.265625 -0.109375 0.515625q-0.09375 0.25 -0.296875 0.4375q-0.1875 0.203125 -0.484375 0.3125q-0.296875 0.109375 -0.671875 0.109375l0 -0.4375zm9.788025 -3.03125q0 0.625 -0.15625 1.078125q-0.140625 0.4375 -0.4375 0.734375q-0.28125 0.28125 -0.71875 0.421875q-0.4375 0.125 -1.0 0.125l-0.359375 0l0 -0.5l0.40625 0q0.40625 0 0.71875 -0.078125q0.3125 -0.078125 0.515625 -0.234375q0.203125 -0.171875 0.296875 -0.40625q0.109375 -0.25 0.140625 -0.546875l0.015625 -0.125q-0.203125 0.109375 -0.46875 0.1875q-0.265625 0.078125 -0.578125 0.078125q-0.328125 0 -0.578125 -0.09375q-0.234375 -0.09375 -0.40625 -0.265625q-0.15625 -0.171875 -0.234375 -0.40625q-0.078125 -0.234375 -0.078125 -0.5q0 -0.296875 0.109375 -0.546875q0.109375 -0.265625 0.296875 -0.453125q0.1875 -0.1875 0.453125 -0.296875q0.28125 -0.125 0.609375 -0.125q0.3125 0 0.578125 0.109375q0.265625 0.109375 0.453125 0.34375q0.203125 0.21875 0.3125 0.59375q0.109375 0.375 0.109375 0.90625zm-1.484375 -1.484375q-0.1875 0 -0.34375 0.0625q-0.140625 0.0625 -0.265625 0.1875q-0.109375 0.109375 -0.171875 0.28125q-0.0625 0.15625 -0.0625 0.375q0 0.203125 0.046875 0.359375q0.046875 0.15625 0.140625 0.265625q0.109375 0.109375 0.265625 0.171875q0.15625 0.046875 0.359375 0.046875q0.125 0 0.25 -0.015625q0.125 -0.03125 0.25 -0.0625q0.125 -0.046875 0.234375 -0.09375q0.109375 -0.046875 0.203125 -0.109375q0 -0.421875 -0.0625 -0.703125q-0.0625 -0.28125 -0.1875 -0.453125q-0.109375 -0.171875 -0.28125 -0.234375q-0.171875 -0.078125 -0.375 -0.078125zm4.4252625 5.171875l-1.59375 0l0 -0.453125l1.0625 0l0 -5.125l-1.0625 0l0 -0.453125l1.59375 0l0 6.03125z" fill-rule="nonzero"/><path fill="#9fc5e8" d="m223.74803 111.874016l55.936996 0l0 55.937004l-55.936996 0z" fill-rule="evenodd"/><path stroke="#000000" stroke-width="1.0" stroke-linejoin="round" stroke-linecap="butt" d="m223.74803 111.874016l55.936996 0l0 55.937004l-55.936996 0z" fill-rule="evenodd"/><path fill="#000000" d="m251.12021 137.48126q1.0 0 1.96875 0.53125q0.96875 0.515625 1.5 1.484375q0.53125 0.96875 0.53125 2.0q0 1.671875 -1.171875 2.84375q-1.171875 1.171875 -2.828125 1.171875q-1.671875 0 -2.84375 -1.171875q-1.171875 -1.171875 -1.171875 -2.84375q0 -1.046875 0.53125 -2.0q0.546875 -0.96875 1.5 -1.484375q0.96875 -0.53125 1.984375 -0.53125z" fill-rule="nonzero"/><path fill="#cfe2f3" d="m279.68503 111.874016l55.93701 0l0 55.937004l-55.93701 0z" fill-rule="evenodd"/><path stroke="#000000" stroke-width="1.0" stroke-linejoin="round" stroke-linecap="butt" d="m279.68503 111.874016l55.93701 0l0 55.937004l-55.93701 0z" fill-rule="evenodd"/><path fill="#000000" d="m293.90393 143.57065l-1.59375 0l0 -6.03125l1.59375 0l0 0.453125l-1.0625 0l0 5.125l1.0625 0l0 0.453125zm4.1752625 -1.328125l-2.65625 0l0 -0.53125l1.09375 0l0 -3.09375l-1.03125 0.546875l-0.203125 -0.484375l1.359375 -0.703125l0.5 0l0 3.734375l0.9375 0l0 0.53125zm1.2065125 0.671875q0.15625 0 0.3125 -0.046875q0.15625 -0.03125 0.265625 -0.09375q0.125 -0.0625 0.1875 -0.171875q0.078125 -0.109375 0.078125 -0.234375q0 -0.140625 -0.046875 -0.21875q-0.046875 -0.09375 -0.109375 -0.15625q-0.046875 -0.078125 -0.09375 -0.15625q-0.046875 -0.078125 -0.046875 -0.21875q0 -0.078125 0.015625 -0.140625q0.03125 -0.078125 0.078125 -0.140625q0.0625 -0.0625 0.140625 -0.09375q0.09375 -0.046875 0.203125 -0.046875q0.109375 0 0.21875 0.046875q0.109375 0.046875 0.1875 0.15625q0.078125 0.09375 0.125 0.234375q0.046875 0.140625 0.046875 0.34375q0 0.265625 -0.109375 0.515625q-0.09375 0.25 -0.296875 0.4375q-0.1875 0.203125 -0.484375 0.3125q-0.296875 0.109375 -0.671875 0.109375l0 -0.4375zm9.7724 -0.671875l-2.65625 0l0 -0.53125l1.09375 0l0 -3.09375l-1.03125 0.546875l-0.203125 -0.484375l1.359375 -0.703125l0.5 0l0 3.734375l0.9375 0l0 0.53125zm1.2065125 0.671875q0.15625 0 0.3125 -0.046875q0.15625 -0.03125 0.265625 -0.09375q0.125 -0.0625 0.1875 -0.171875q0.078125 -0.109375 0.078125 -0.234375q0 -0.140625 -0.046875 -0.21875q-0.046875 -0.09375 -0.109375 -0.15625q-0.046875 -0.078125 -0.09375 -0.15625q-0.046875 -0.078125 -0.046875 -0.21875q0 -0.078125 0.015625 -0.140625q0.03125 -0.078125 0.078125 -0.140625q0.0625 -0.0625 0.140625 -0.09375q0.09375 -0.046875 0.203125 -0.046875q0.109375 0 0.21875 0.046875q0.109375 0.046875 0.1875 0.15625q0.078125 0.09375 0.125 0.234375q0.046875 0.140625 0.046875 0.34375q0 0.265625 -0.109375 0.515625q-0.09375 0.25 -0.296875 0.4375q-0.1875 0.203125 -0.484375 0.3125q-0.296875 0.109375 -0.671875 0.109375l0 -0.4375zm9.7724 -0.671875l-2.65625 0l0 -0.53125l1.09375 0l0 -3.09375l-1.03125 0.546875l-0.203125 -0.484375l1.359375 -0.703125l0.5 0l0 3.734375l0.9375 0l0 0.53125zm2.9565125 1.328125l-1.59375 0l0 -0.453125l1.0625 0l0 -5.125l-1.0625 0l0 -0.453125l1.59375 0l0 6.03125z" fill-rule="nonzero"/><path fill="#9fc5e8" d="m335.62204 111.874016l55.93701 0l0 55.937004l-55.93701 0z" fill-rule="evenodd"/><path stroke="#000000" stroke-width="1.0" stroke-linejoin="round" stroke-linecap="butt" d="m335.62204 111.874016l55.93701 0l0 55.937004l-55.93701 0z" fill-rule="evenodd"/><path fill="#000000" d="m358.73117 142.52252l-0.90625 0l-1.484375 -3.1875l-0.4375 -1.015625l0 2.5625l0 1.640625l-0.640625 0l0 -5.109375l0.890625 0l1.421875 3.015625l0.515625 1.171875l0 -2.734375l0 -1.453125l0.640625 0l0 5.109375zm4.4453125 -1.78125q0 0.421875 -0.125 0.765625q-0.125 0.34375 -0.359375 0.59375q-0.21875 0.234375 -0.5625 0.375q-0.328125 0.125 -0.765625 0.125q-0.46875 0 -0.8125 -0.125q-0.328125 -0.140625 -0.53125 -0.359375q-0.203125 -0.234375 -0.3125 -0.546875q-0.09375 -0.328125 -0.09375 -0.71875l0 -3.4375l0.703125 0l0 3.375q0 0.3125 0.046875 0.546875q0.0625 0.21875 0.1875 0.375q0.140625 0.140625 0.34375 0.21875q0.203125 0.078125 0.5 0.078125q0.546875 0 0.8125 -0.3125q0.265625 -0.328125 0.265625 -0.90625l0 -3.375l0.703125 0l0 3.328125zm4.2578125 1.78125l-2.9375 0l0 -5.109375l0.71875 0l0 4.515625l2.21875 0l0 0.59375zm4.3984375 0l-2.9375 0l0 -5.109375l0.71875 0l0 4.515625l2.21875 0l0 0.59375z" fill-rule="nonzero"/><path fill="#f3f3f3" d="m391.55905 111.874016l55.93701 0l0 55.937004l-55.93701 0z" fill-rule="evenodd"/><path stroke="#000000" stroke-width="1.0" stroke-linejoin="round" stroke-linecap="butt" d="m391.55905 111.874016l55.93701 0l0 55.937004l-55.93701 0z" fill-rule="evenodd"/><path fill="#000000" fill-opacity="0.0" d="m58.66142 31.622047l50.488186 0l0 24.31496l-50.488186 0z" fill-rule="evenodd"/><path fill="#073763" d="m74.38259 45.00392l0.703125 0l0.03125 0.75q0.203125 -0.25 0.390625 -0.40625q0.1875 -0.15625 0.359375 -0.25q0.1875 -0.09375 0.375 -0.125q0.1875 -0.046875 0.375 -0.046875q0.71875 0 1.078125 0.421875q0.359375 0.40625 0.359375 1.25l0 2.984375l-0.796875 0l0 -2.921875q0 -0.53125 -0.203125 -0.78125q-0.1875 -0.265625 -0.59375 -0.265625q-0.140625 0 -0.28125 0.046875q-0.140625 0.03125 -0.296875 0.140625q-0.140625 0.109375 -0.328125 0.296875q-0.171875 0.171875 -0.390625 0.453125l0 3.03125l-0.78125 0l0 -4.578125zm8.988022 2.046875q0 0.171875 -0.015625 0.296875q0 0.109375 0 0.203125l-3.21875 0q0 0.703125 0.390625 1.078125q0.390625 0.375 1.140625 0.375q0.1875 0 0.390625 -0.015625q0.203125 -0.015625 0.390625 -0.046875q0.1875 -0.03125 0.359375 -0.0625q0.171875 -0.03125 0.3125 -0.078125l0 0.65625q-0.328125 0.09375 -0.734375 0.140625q-0.40625 0.0625 -0.84375 0.0625q-0.578125 0 -1.015625 -0.15625q-0.421875 -0.15625 -0.6875 -0.453125q-0.265625 -0.3125 -0.40625 -0.75q-0.125 -0.4375 -0.125 -1.0q0 -0.484375 0.140625 -0.90625q0.140625 -0.4375 0.40625 -0.75q0.265625 -0.328125 0.65625 -0.515625q0.390625 -0.203125 0.875 -0.203125q0.484375 0 0.84375 0.15625q0.375 0.140625 0.625 0.421875q0.25 0.28125 0.375 0.671875q0.140625 0.390625 0.140625 0.875zm-0.828125 -0.109375q0.015625 -0.3125 -0.0625 -0.5625q-0.0625 -0.25 -0.21875 -0.421875q-0.15625 -0.1875 -0.390625 -0.28125q-0.21875 -0.109375 -0.515625 -0.109375q-0.265625 0 -0.484375 0.09375q-0.203125 0.09375 -0.359375 0.28125q-0.15625 0.1875 -0.25 0.4375q-0.09375 0.25 -0.125 0.5625l2.40625 0zm6.206772 2.640625l-1.046875 0l-1.234375 -1.75l-1.21875 1.75l-1.03125 0l1.78125 -2.296875l-1.6875 -2.28125l1.015625 0l1.203125 1.765625l1.171875 -1.765625l0.984375 0l-1.71875 2.296875l1.78125 2.28125zm4.691147 -0.0625q-0.265625 0.0625 -0.546875 0.09375q-0.28125 0.03125 -0.578125 0.03125q-0.875 0 -1.296875 -0.390625q-0.421875 -0.390625 -0.421875 -1.1875l0 -2.390625l-1.28125 0l0 -0.671875l1.28125 0l0 -1.25l0.796875 -0.203125l0 1.453125l2.046875 0l0 0.671875l-2.046875 0l0 2.328125q0 0.484375 0.265625 0.734375q0.265625 0.234375 0.765625 0.234375q0.21875 0 0.46875 -0.03125q0.265625 -0.03125 0.546875 -0.109375l0 0.6875z" fill-rule="nonzero"/><path fill="#000000" fill-opacity="0.0" d="m84.2021 29.690289l39.433067 0" fill-rule="evenodd"/><path stroke="#000000" stroke-width="1.0" stroke-linejoin="round" stroke-linecap="butt" d="m84.2021 29.690289l33.433067 0" fill-rule="evenodd"/><path fill="#000000" stroke="#000000" stroke-width="1.0" stroke-linecap="butt" d="m117.63517 31.342022l4.538101 -1.6517334l-4.538101 -1.6517315z" fill-rule="evenodd"/><path fill="#000000" d="m82.14173 27.968504l0 0c0 -0.97410774 0.78967285 -1.7637787 1.7637787 -1.7637787l0 0c0.4677887 0 0.91641235 0.18582535 1.2471848 0.51659775c0.3307724 0.3307724 0.51659393 0.77939796 0.51659393 1.2471809l0 0c0 0.97410774 -0.7896652 1.7637787 -1.7637787 1.7637787l0 0c-0.97410583 0 -1.7637787 -0.78967094 -1.7637787 -1.7637787z" fill-rule="evenodd"/><path stroke="#000000" stroke-width="1.0" stroke-linejoin="round" stroke-linecap="butt" d="m82.14173 27.968504l0 0c0 -0.97410774 0.78967285 -1.7637787 1.7637787 -1.7637787l0 0c0.4677887 0 0.91641235 0.18582535 1.2471848 0.51659775c0.3307724 0.3307724 0.51659393 0.77939796 0.51659393 1.2471809l0 0c0 0.97410774 -0.7896652 1.7637787 -1.7637787 1.7637787l0 0c-0.97410583 0 -1.7637787 -0.78967094 -1.7637787 -1.7637787z" fill-rule="evenodd"/><path fill="#000000" fill-opacity="0.0" d="m252.48557 141.15486l39.433075 0" fill-rule="evenodd"/><path stroke="#000000" stroke-width="1.0" stroke-linejoin="round" stroke-linecap="butt" d="m252.48557 141.15486l33.433075 0" fill-rule="evenodd"/><path fill="#000000" stroke="#000000" stroke-width="1.0" stroke-linecap="butt" d="m285.91864 142.8066l4.538086 -1.6517334l-4.538086 -1.6517334z" fill-rule="evenodd"/><path fill="#000000" fill-opacity="0.0" d="m226.47244 144.47769l50.48819 0l0 24.314957l-50.48819 0z" fill-rule="evenodd"/><path fill="#073763" d="m242.19362 157.85956l0.703125 0l0.03125 0.75q0.203125 -0.25 0.390625 -0.40625q0.1875 -0.15625 0.359375 -0.25q0.1875 -0.09375 0.375 -0.125q0.1875 -0.046875 0.375 -0.046875q0.71875 0 1.078125 0.421875q0.359375 0.40625 0.359375 1.25l0 2.984375l-0.796875 0l0 -2.921875q0 -0.53125 -0.203125 -0.78125q-0.1875 -0.265625 -0.59375 -0.265625q-0.140625 0 -0.28125 0.046875q-0.140625 0.03125 -0.296875 0.140625q-0.140625 0.109375 -0.328125 0.296875q-0.171875 0.171875 -0.390625 0.453125l0 3.03125l-0.78125 0l0 -4.578125zm8.988022 2.046875q0 0.171875 -0.015625 0.296875q0 0.109375 0 0.203125l-3.21875 0q0 0.703125 0.390625 1.078125q0.390625 0.375 1.140625 0.375q0.1875 0 0.390625 -0.015625q0.203125 -0.015625 0.390625 -0.046875q0.1875 -0.03125 0.359375 -0.0625q0.171875 -0.03125 0.3125 -0.078125l0 0.65625q-0.328125 0.09375 -0.734375 0.140625q-0.40625 0.0625 -0.84375 0.0625q-0.578125 0 -1.015625 -0.15625q-0.421875 -0.15625 -0.6875 -0.453125q-0.265625 -0.3125 -0.40625 -0.75q-0.125 -0.4375 -0.125 -1.0q0 -0.484375 0.140625 -0.90625q0.140625 -0.4375 0.40625 -0.75q0.265625 -0.328125 0.65625 -0.515625q0.390625 -0.203125 0.875 -0.203125q0.484375 0 0.84375 0.15625q0.375 0.140625 0.625 0.421875q0.25 0.28125 0.375 0.671875q0.140625 0.390625 0.140625 0.875zm-0.828125 -0.109375q0.015625 -0.3125 -0.0625 -0.5625q-0.0625 -0.25 -0.21875 -0.421875q-0.15625 -0.1875 -0.390625 -0.28125q-0.21875 -0.109375 -0.515625 -0.109375q-0.265625 0 -0.484375 0.09375q-0.203125 0.09375 -0.359375 0.28125q-0.15625 0.1875 -0.25 0.4375q-0.09375 0.25 -0.125 0.5625l2.40625 0zm6.2067566 2.640625l-1.0468597 0l-1.234375 -1.75l-1.21875 1.75l-1.03125 0l1.78125 -2.296875l-1.6875 -2.28125l1.015625 0l1.203125 1.765625l1.171875 -1.765625l0.98435974 0l-1.7187347 2.296875l1.7812347 2.28125zm4.691162 -0.0625q-0.265625 0.0625 -0.546875 0.09375q-0.28125 0.03125 -0.578125 0.03125q-0.875 0 -1.296875 -0.390625q-0.421875 -0.390625 -0.421875 -1.1875l0 -2.390625l-1.28125 0l0 -0.671875l1.28125 0l0 -1.25l0.796875 -0.203125l0 1.453125l2.046875 0l0 0.671875l-2.046875 0l0 2.328125q0 0.484375 0.265625 0.734375q0.265625 0.234375 0.765625 0.234375q0.21875 0 0.46875 -0.03125q0.265625 -0.03125 0.546875 -0.109375l0 0.6875z" fill-rule="nonzero"/><path fill="#000000" fill-opacity="0.0" d="m338.34647 144.47769l50.48819 0l0 24.314957l-50.48819 0z" fill-rule="evenodd"/><path fill="#073763" d="m354.06763 157.85956l0.703125 0l0.03125 0.75q0.203125 -0.25 0.390625 -0.40625q0.1875 -0.15625 0.359375 -0.25q0.1875 -0.09375 0.375 -0.125q0.1875 -0.046875 0.375 -0.046875q0.71875 0 1.078125 0.421875q0.359375 0.40625 0.359375 1.25l0 2.984375l-0.796875 0l0 -2.921875q0 -0.53125 -0.203125 -0.78125q-0.1875 -0.265625 -0.59375 -0.265625q-0.140625 0 -0.28125 0.046875q-0.140625 0.03125 -0.296875 0.140625q-0.140625 0.109375 -0.328125 0.296875q-0.171875 0.171875 -0.390625 0.453125l0 3.03125l-0.78125 0l0 -4.578125zm8.988037 2.046875q0 0.171875 -0.015625 0.296875q0 0.109375 0 0.203125l-3.21875 0q0 0.703125 0.390625 1.078125q0.390625 0.375 1.140625 0.375q0.1875 0 0.390625 -0.015625q0.203125 -0.015625 0.390625 -0.046875q0.1875 -0.03125 0.359375 -0.0625q0.171875 -0.03125 0.3125 -0.078125l0 0.65625q-0.328125 0.09375 -0.734375 0.140625q-0.40625 0.0625 -0.84375 0.0625q-0.578125 0 -1.015625 -0.15625q-0.421875 -0.15625 -0.6875 -0.453125q-0.265625 -0.3125 -0.40625 -0.75q-0.125 -0.4375 -0.125 -1.0q0 -0.484375 0.140625 -0.90625q0.140625 -0.4375 0.40625 -0.75q0.265625 -0.328125 0.65625 -0.515625q0.390625 -0.203125 0.875 -0.203125q0.484375 0 0.84375 0.15625q0.375 0.140625 0.625 0.421875q0.25 0.28125 0.375 0.671875q0.140625 0.390625 0.140625 0.875zm-0.828125 -0.109375q0.015625 -0.3125 -0.0625 -0.5625q-0.0625 -0.25 -0.21875 -0.421875q-0.15625 -0.1875 -0.390625 -0.28125q-0.21875 -0.109375 -0.515625 -0.109375q-0.265625 0 -0.484375 0.09375q-0.203125 0.09375 -0.359375 0.28125q-0.15625 0.1875 -0.25 0.4375q-0.09375 0.25 -0.125 0.5625l2.40625 0zm6.2067566 2.640625l-1.046875 0l-1.234375 -1.75l-1.21875 1.75l-1.03125 0l1.78125 -2.296875l-1.6875 -2.28125l1.015625 0l1.203125 1.765625l1.171875 -1.765625l0.984375 0l-1.71875 2.296875l1.78125 2.28125zm4.691162 -0.0625q-0.265625 0.0625 -0.546875 0.09375q-0.28125 0.03125 -0.578125 0.03125q-0.875 0 -1.296875 -0.390625q-0.421875 -0.390625 -0.421875 -1.1875l0 -2.390625l-1.28125 0l0 -0.671875l1.28125 0l0 -1.25l0.796875 -0.203125l0 1.453125l2.046875 0l0 0.671875l-2.046875 0l0 2.328125q0 0.484375 0.265625 0.734375q0.265625 0.234375 0.765625 0.234375q0.21875 0 0.46875 -0.03125q0.265625 -0.03125 0.546875 -0.109375l0 0.6875z" fill-rule="nonzero"/><path fill="#000000" fill-opacity="0.0" d="m196.04987 30.968504l0 92.37795" fill-rule="evenodd"/><path stroke="#000000" stroke-width="1.0" stroke-linejoin="round" stroke-linecap="butt" d="m196.04987 30.968504l0 86.37795" fill-rule="evenodd"/><path fill="#000000" stroke="#000000" stroke-width="1.0" stroke-linecap="butt" d="m194.39813 117.34646l1.6517334 4.5380936l1.6517334 -4.5380936z" fill-rule="evenodd"/><path fill="#000000" fill-opacity="0.0" d="m2.7244093 31.622047l50.488186 0l0 24.31496l-50.488186 0z" fill-rule="evenodd"/><path fill="#073763" d="m15.443762 45.00392l0.90625 0l1.125 3.03125l0.234375 0.734375l0.25 -0.75l1.109375 -3.015625l0.875 0l-1.796875 4.578125l-0.90625 0l-1.796875 -4.578125zm8.503647 4.578125l-0.03125 -0.609375q-0.359375 0.359375 -0.75 0.53125q-0.390625 0.15625 -0.8125 0.15625q-0.390625 0 -0.671875 -0.09375q-0.265625 -0.109375 -0.453125 -0.28125q-0.171875 -0.171875 -0.265625 -0.40625q-0.078125 -0.234375 -0.078125 -0.515625q0 -0.6875 0.5 -1.078125q0.515625 -0.390625 1.515625 -0.390625l0.953125 0l0 -0.40625q0 -0.40625 -0.265625 -0.640625q-0.25 -0.25 -0.78125 -0.25q-0.390625 0 -0.765625 0.09375q-0.375 0.078125 -0.78125 0.25l0 -0.71875q0.15625 -0.0625 0.328125 -0.109375q0.1875 -0.046875 0.390625 -0.09375q0.21875 -0.046875 0.4375 -0.0625q0.21875 -0.03125 0.453125 -0.03125q0.40625 0 0.734375 0.09375q0.34375 0.09375 0.5625 0.28125q0.234375 0.1875 0.359375 0.46875q0.125 0.28125 0.125 0.65625l0 3.15625l-0.703125 0zm-0.09375 -2.078125l-1.0 0q-0.296875 0 -0.515625 0.0625q-0.21875 0.046875 -0.359375 0.15625q-0.125 0.109375 -0.203125 0.265625q-0.0625 0.15625 -0.0625 0.34375q0 0.140625 0.046875 0.265625q0.046875 0.109375 0.125 0.203125q0.09375 0.09375 0.234375 0.15625q0.15625 0.046875 0.359375 0.046875q0.28125 0 0.625 -0.15625q0.359375 -0.171875 0.75 -0.53125l0 -0.8125zm3.8317719 -3.703125l-1.34375 0l0 -0.65625l2.15625 0l0 5.78125l1.359375 0l0 0.65625l-3.671875 0l0 -0.65625l1.5 0l0 -5.125zm7.2536488 5.78125l-0.71875 0l-0.015625 -0.734375q-0.203125 0.234375 -0.390625 0.390625q-0.1875 0.15625 -0.375 0.25q-0.171875 0.09375 -0.359375 0.125q-0.1875 0.046875 -0.390625 0.046875q-0.7031269 0 -1.0625019 -0.40625q-0.359375 -0.421875 -0.359375 -1.25l0 -3.0l0.7812519 0l0 2.921875q0 1.0625 0.796875 1.0625q0.140625 0 0.28125 -0.046875q0.140625 -0.046875 0.296875 -0.140625q0.15625 -0.109375 0.328125 -0.296875q0.171875 -0.1875 0.390625 -0.46875l0 -3.03125l0.796875 0l0 4.578125zm5.316147 -2.53125q0 0.171875 -0.015625 0.296875q0 0.109375 0 0.203125l-3.21875 0q0 0.703125 0.390625 1.078125q0.390625 0.375 1.140625 0.375q0.1875 0 0.390625 -0.015625q0.203125 -0.015625 0.390625 -0.046875q0.1875 -0.03125 0.359375 -0.0625q0.171875 -0.03125 0.3125 -0.078125l0 0.65625q-0.328125 0.09375 -0.734375 0.140625q-0.40625 0.0625 -0.84375 0.0625q-0.578125 0 -1.015625 -0.15625q-0.421875 -0.15625 -0.6875 -0.453125q-0.265625 -0.3125 -0.40625 -0.75q-0.125 -0.4375 -0.125 -1.0q0 -0.484375 0.140625 -0.90625q0.140625 -0.4375 0.40625 -0.75q0.265625 -0.328125 0.65625 -0.515625q0.390625 -0.203125 0.875 -0.203125q0.484375 0 0.84375 0.15625q0.375 0.140625 0.625 0.421875q0.25 0.28125 0.375 0.671875q0.140625 0.390625 0.140625 0.875zm-0.828125 -0.109375q0.015625 -0.3125 -0.0625 -0.5625q-0.0625 -0.25 -0.21875 -0.421875q-0.15625 -0.1875 -0.390625 -0.28125q-0.21875 -0.109375 -0.515625 -0.109375q-0.265625 0 -0.484375 0.09375q-0.203125 0.09375 -0.359375 0.28125q-0.15625 0.1875 -0.25 0.4375q-0.09375 0.25 -0.125 0.5625l2.40625 0z" fill-rule="nonzero"/><path fill="#000000" fill-opacity="0.0" d="m114.59843 31.622047l50.488182 0l0 24.31496l-50.488182 0z" fill-rule="evenodd"/><path fill="#073763" d="m127.31778 45.00392l0.90625 0l1.125 3.03125l0.234375 0.734375l0.25 -0.75l1.109375 -3.015625l0.875 0l-1.796875 4.578125l-0.90625 0l-1.796875 -4.578125zm8.503647 4.578125l-0.03125 -0.609375q-0.359375 0.359375 -0.75 0.53125q-0.390625 0.15625 -0.8125 0.15625q-0.390625 0 -0.671875 -0.09375q-0.265625 -0.109375 -0.453125 -0.28125q-0.171875 -0.171875 -0.265625 -0.40625q-0.078125 -0.234375 -0.078125 -0.515625q0 -0.6875 0.5 -1.078125q0.515625 -0.390625 1.515625 -0.390625l0.953125 0l0 -0.40625q0 -0.40625 -0.265625 -0.640625q-0.25 -0.25 -0.78125 -0.25q-0.390625 0 -0.765625 0.09375q-0.375 0.078125 -0.78125 0.25l0 -0.71875q0.15625 -0.0625 0.328125 -0.109375q0.1875 -0.046875 0.390625 -0.09375q0.21875 -0.046875 0.4375 -0.0625q0.21875 -0.03125 0.453125 -0.03125q0.40625 0 0.734375 0.09375q0.34375 0.09375 0.5625 0.28125q0.234375 0.1875 0.359375 0.46875q0.125 0.28125 0.125 0.65625l0 3.15625l-0.703125 0zm-0.09375 -2.078125l-1.0 0q-0.296875 0 -0.515625 0.0625q-0.21875 0.046875 -0.359375 0.15625q-0.125 0.109375 -0.203125 0.265625q-0.0625 0.15625 -0.0625 0.34375q0 0.140625 0.046875 0.265625q0.046875 0.109375 0.125 0.203125q0.09375 0.09375 0.234375 0.15625q0.15625 0.046875 0.359375 0.046875q0.28125 0 0.625 -0.15625q0.359375 -0.171875 0.75 -0.53125l0 -0.8125zm3.8317719 -3.703125l-1.34375 0l0 -0.65625l2.15625 0l0 5.78125l1.359375 0l0 0.65625l-3.671875 0l0 -0.65625l1.5 0l0 -5.125zm7.253647 5.78125l-0.71875 0l-0.015625 -0.734375q-0.203125 0.234375 -0.390625 0.390625q-0.1875 0.15625 -0.375 0.25q-0.171875 0.09375 -0.359375 0.125q-0.1875 0.046875 -0.390625 0.046875q-0.703125 0 -1.0625 -0.40625q-0.359375 -0.421875 -0.359375 -1.25l0 -3.0l0.78125 0l0 2.921875q0 1.0625 0.796875 1.0625q0.140625 0 0.28125 -0.046875q0.140625 -0.046875 0.296875 -0.140625q0.15625 -0.109375 0.328125 -0.296875q0.171875 -0.1875 0.390625 -0.46875l0 -3.03125l0.796875 0l0 4.578125zm5.316147 -2.53125q0 0.171875 -0.015625 0.296875q0 0.109375 0 0.203125l-3.21875 0q0 0.703125 0.390625 1.078125q0.390625 0.375 1.140625 0.375q0.1875 0 0.390625 -0.015625q0.203125 -0.015625 0.390625 -0.046875q0.1875 -0.03125 0.359375 -0.0625q0.171875 -0.03125 0.3125 -0.078125l0 0.65625q-0.328125 0.09375 -0.734375 0.140625q-0.40625 0.0625 -0.84375 0.0625q-0.578125 0 -1.015625 -0.15625q-0.421875 -0.15625 -0.6875 -0.453125q-0.265625 -0.3125 -0.40625 -0.75q-0.125 -0.4375 -0.125 -1.0q0 -0.484375 0.140625 -0.90625q0.140625 -0.4375 0.40625 -0.75q0.265625 -0.328125 0.65625 -0.515625q0.390625 -0.203125 0.875 -0.203125q0.484375 0 0.84375 0.15625q0.375 0.140625 0.625 0.421875q0.25 0.28125 0.375 0.671875q0.140625 0.390625 0.140625 0.875zm-0.828125 -0.109375q0.015625 -0.3125 -0.0625 -0.5625q-0.0625 -0.25 -0.21875 -0.421875q-0.15625 -0.1875 -0.390625 -0.28125q-0.21875 -0.109375 -0.515625 -0.109375q-0.265625 0 -0.484375 0.09375q-0.203125 0.09375 -0.359375 0.28125q-0.15625 0.1875 -0.25 0.4375q-0.09375 0.25 -0.125 0.5625l2.40625 0z" fill-rule="nonzero"/><path fill="#000000" fill-opacity="0.0" d="m170.53543 144.47769l50.48819 0l0 24.314957l-50.48819 0z" fill-rule="evenodd"/><path fill="#073763" d="m183.25479 157.85956l0.90625 0l1.125 3.03125l0.234375 0.734375l0.25 -0.75l1.109375 -3.015625l0.875 0l-1.796875 4.578125l-0.90625 0l-1.796875 -4.578125zm8.503647 4.578125l-0.03125 -0.609375q-0.359375 0.359375 -0.75 0.53125q-0.390625 0.15625 -0.8125 0.15625q-0.390625 0 -0.671875 -0.09375q-0.265625 -0.109375 -0.453125 -0.28125q-0.171875 -0.171875 -0.265625 -0.40625q-0.078125 -0.234375 -0.078125 -0.515625q0 -0.6875 0.5 -1.078125q0.515625 -0.390625 1.515625 -0.390625l0.953125 0l0 -0.40625q0 -0.40625 -0.265625 -0.640625q-0.25 -0.25 -0.78125 -0.25q-0.390625 0 -0.765625 0.09375q-0.375 0.078125 -0.78125 0.25l0 -0.71875q0.15625 -0.0625 0.328125 -0.109375q0.1875 -0.046875 0.390625 -0.09375q0.21875 -0.046875 0.4375 -0.0625q0.21875 -0.03125 0.453125 -0.03125q0.40625 0 0.734375 0.09375q0.34375 0.09375 0.5625 0.28125q0.234375 0.1875 0.359375 0.46875q0.125 0.28125 0.125 0.65625l0 3.15625l-0.703125 0zm-0.09375 -2.078125l-1.0 0q-0.296875 0 -0.515625 0.0625q-0.21875 0.046875 -0.359375 0.15625q-0.125 0.109375 -0.203125 0.265625q-0.0625 0.15625 -0.0625 0.34375q0 0.140625 0.046875 0.265625q0.046875 0.109375 0.125 0.203125q0.09375 0.09375 0.234375 0.15625q0.15625 0.046875 0.359375 0.046875q0.28125 0 0.625 -0.15625q0.359375 -0.171875 0.75 -0.53125l0 -0.8125zm3.8317719 -3.703125l-1.34375 0l0 -0.65625l2.15625 0l0 5.78125l1.359375 0l0 0.65625l-3.671875 0l0 -0.65625l1.5 0l0 -5.125zm7.253647 5.78125l-0.71875 0l-0.015625 -0.734375q-0.203125 0.234375 -0.390625 0.390625q-0.1875 0.15625 -0.375 0.25q-0.171875 0.09375 -0.359375 0.125q-0.1875 0.046875 -0.390625 0.046875q-0.703125 0 -1.0625 -0.40625q-0.359375 -0.421875 -0.359375 -1.25l0 -3.0l0.78125 0l0 2.921875q0 1.0625 0.796875 1.0625q0.140625 0 0.28125 -0.046875q0.140625 -0.046875 0.296875 -0.140625q0.15625 -0.109375 0.328125 -0.296875q0.171875 -0.1875 0.390625 -0.46875l0 -3.03125l0.796875 0l0 4.578125zm5.316147 -2.53125q0 0.171875 -0.015625 0.296875q0 0.109375 0 0.203125l-3.21875 0q0 0.703125 0.390625 1.078125q0.390625 0.375 1.140625 0.375q0.1875 0 0.390625 -0.015625q0.203125 -0.015625 0.390625 -0.046875q0.1875 -0.03125 0.359375 -0.0625q0.171875 -0.03125 0.3125 -0.078125l0 0.65625q-0.328125 0.09375 -0.734375 0.140625q-0.40625 0.0625 -0.84375 0.0625q-0.578125 0 -1.015625 -0.15625q-0.421875 -0.15625 -0.6875 -0.453125q-0.265625 -0.3125 -0.40625 -0.75q-0.125 -0.4375 -0.125 -1.0q0 -0.484375 0.140625 -0.90625q0.140625 -0.4375 0.40625 -0.75q0.265625 -0.328125 0.65625 -0.515625q0.390625 -0.203125 0.875 -0.203125q0.484375 0 0.84375 0.15625q0.375 0.140625 0.625 0.421875q0.25 0.28125 0.375 0.671875q0.140625 0.390625 0.140625 0.875zm-0.828125 -0.109375q0.015625 -0.3125 -0.0625 -0.5625q-0.0625 -0.25 -0.21875 -0.421875q-0.15625 -0.1875 -0.390625 -0.28125q-0.21875 -0.109375 -0.515625 -0.109375q-0.265625 0 -0.484375 0.09375q-0.203125 0.09375 -0.359375 0.28125q-0.15625 0.1875 -0.25 0.4375q-0.09375 0.25 -0.125 0.5625l2.40625 0z" fill-rule="nonzero"/><path fill="#000000" fill-opacity="0.0" d="m281.04724 144.47769l50.48819 0l0 24.314957l-50.48819 0z" fill-rule="evenodd"/><path fill="#073763" d="m293.7666 157.85956l0.90625 0l1.125 3.03125l0.234375 0.734375l0.25 -0.75l1.109375 -3.015625l0.875 0l-1.796875 4.578125l-0.90625 0l-1.796875 -4.578125zm8.503632 4.578125l-0.03125 -0.609375q-0.359375 0.359375 -0.75 0.53125q-0.390625 0.15625 -0.8125 0.15625q-0.390625 0 -0.671875 -0.09375q-0.265625 -0.109375 -0.453125 -0.28125q-0.171875 -0.171875 -0.265625 -0.40625q-0.078125 -0.234375 -0.078125 -0.515625q0 -0.6875 0.5 -1.078125q0.515625 -0.390625 1.515625 -0.390625l0.953125 0l0 -0.40625q0 -0.40625 -0.265625 -0.640625q-0.25 -0.25 -0.78125 -0.25q-0.390625 0 -0.765625 0.09375q-0.375 0.078125 -0.78125 0.25l0 -0.71875q0.15625 -0.0625 0.328125 -0.109375q0.1875 -0.046875 0.390625 -0.09375q0.21875 -0.046875 0.4375 -0.0625q0.21875 -0.03125 0.453125 -0.03125q0.40625 0 0.734375 0.09375q0.34375 0.09375 0.5625 0.28125q0.234375 0.1875 0.359375 0.46875q0.125 0.28125 0.125 0.65625l0 3.15625l-0.703125 0zm-0.09375 -2.078125l-1.0 0q-0.296875 0 -0.515625 0.0625q-0.21875 0.046875 -0.359375 0.15625q-0.125 0.109375 -0.203125 0.265625q-0.0625 0.15625 -0.0625 0.34375q0 0.140625 0.046875 0.265625q0.046875 0.109375 0.125 0.203125q0.09375 0.09375 0.234375 0.15625q0.15625 0.046875 0.359375 0.046875q0.28125 0 0.625 -0.15625q0.359375 -0.171875 0.75 -0.53125l0 -0.8125zm3.831787 -3.703125l-1.34375 0l0 -0.65625l2.15625 0l0 5.78125l1.359375 0l0 0.65625l-3.671875 0l0 -0.65625l1.5 0l0 -5.125zm7.2536316 5.78125l-0.71875 0l-0.015625 -0.734375q-0.203125 0.234375 -0.390625 0.390625q-0.1875 0.15625 -0.375 0.25q-0.171875 0.09375 -0.359375 0.125q-0.1875 0.046875 -0.390625 0.046875q-0.703125 0 -1.0625 -0.40625q-0.359375 -0.421875 -0.359375 -1.25l0 -3.0l0.78125 0l0 2.921875q0 1.0625 0.796875 1.0625q0.140625 0 0.28125 -0.046875q0.140625 -0.046875 0.296875 -0.140625q0.15625 -0.109375 0.328125 -0.296875q0.171875 -0.1875 0.390625 -0.46875l0 -3.03125l0.796875 0l0 4.578125zm5.316162 -2.53125q0 0.171875 -0.015625 0.296875q0 0.109375 0 0.203125l-3.21875 0q0 0.703125 0.390625 1.078125q0.390625 0.375 1.140625 0.375q0.1875 0 0.390625 -0.015625q0.203125 -0.015625 0.390625 -0.046875q0.1875 -0.03125 0.359375 -0.0625q0.171875 -0.03125 0.3125 -0.078125l0 0.65625q-0.328125 0.09375 -0.734375 0.140625q-0.40625 0.0625 -0.84375 0.0625q-0.578125 0 -1.015625 -0.15625q-0.421875 -0.15625 -0.6875 -0.453125q-0.265625 -0.3125 -0.40625 -0.75q-0.125 -0.4375 -0.125 -1.0q0 -0.484375 0.140625 -0.90625q0.140625 -0.4375 0.40625 -0.75q0.265625 -0.328125 0.65625 -0.515625q0.390625 -0.203125 0.875 -0.203125q0.484375 0 0.84375 0.15625q0.375 0.140625 0.625 0.421875q0.25 0.28125 0.375 0.671875q0.140625 0.390625 0.140625 0.875zm-0.828125 -0.109375q0.015625 -0.3125 -0.0625 -0.5625q-0.0625 -0.25 -0.21875 -0.421875q-0.15625 -0.1875 -0.390625 -0.28125q-0.21875 -0.109375 -0.515625 -0.109375q-0.265625 0 -0.484375 0.09375q-0.203125 0.09375 -0.359375 0.28125q-0.15625 0.1875 -0.25 0.4375q-0.09375 0.25 -0.125 0.5625l2.40625 0z" fill-rule="nonzero"/><path fill="#000000" fill-opacity="0.0" d="m307.89502 30.456694l-39.811035 39.81102" fill-rule="evenodd"/><path stroke="#000000" stroke-width="1.0" stroke-linejoin="round" stroke-linecap="butt" d="m307.89502 30.456694l-35.56839 35.568382" fill-rule="evenodd"/><path fill="#000000" stroke="#000000" stroke-width="1.0" stroke-linecap="butt" d="m271.1587 64.857124l-2.040985 4.376869l4.3768616 -2.0409698z" fill-rule="evenodd"/><path fill="#000000" fill-opacity="0.0" d="m307.6378 86.50656l42.236237 0" fill-rule="evenodd"/><path stroke="#000000" stroke-width="1.0" stroke-linejoin="round" stroke-linecap="butt" d="m307.6378 86.50656l36.236237 0" fill-rule="evenodd"/><path fill="#000000" stroke="#000000" stroke-width="1.0" stroke-linecap="butt" d="m343.87402 88.158295l4.538086 -1.6517334l-4.538086 -1.6517334z" fill-rule="evenodd"/><path fill="#000000" fill-opacity="0.0" d="m226.47244 31.622047l50.48819 0l0 24.31496l-50.48819 0z" fill-rule="evenodd"/><path fill="#7f6000" d="m239.19179 45.00392l0.90625 0l1.125 3.03125l0.234375 0.734375l0.25 -0.75l1.109375 -3.015625l0.875 0l-1.796875 4.578125l-0.90625 0l-1.796875 -4.578125zm8.503647 4.578125l-0.03125 -0.609375q-0.359375 0.359375 -0.75 0.53125q-0.390625 0.15625 -0.8125 0.15625q-0.390625 0 -0.671875 -0.09375q-0.265625 -0.109375 -0.453125 -0.28125q-0.171875 -0.171875 -0.265625 -0.40625q-0.078125 -0.234375 -0.078125 -0.515625q0 -0.6875 0.5 -1.078125q0.515625 -0.390625 1.515625 -0.390625l0.953125 0l0 -0.40625q0 -0.40625 -0.265625 -0.640625q-0.25 -0.25 -0.78125 -0.25q-0.390625 0 -0.765625 0.09375q-0.375 0.078125 -0.78125 0.25l0 -0.71875q0.15625 -0.0625 0.328125 -0.109375q0.1875 -0.046875 0.390625 -0.09375q0.21875 -0.046875 0.4375 -0.0625q0.21875 -0.03125 0.453125 -0.03125q0.40625 0 0.734375 0.09375q0.34375 0.09375 0.5625 0.28125q0.234375 0.1875 0.359375 0.46875q0.125 0.28125 0.125 0.65625l0 3.15625l-0.703125 0zm-0.09375 -2.078125l-1.0 0q-0.296875 0 -0.515625 0.0625q-0.21875 0.046875 -0.359375 0.15625q-0.125 0.109375 -0.203125 0.265625q-0.0625 0.15625 -0.0625 0.34375q0 0.140625 0.046875 0.265625q0.046875 0.109375 0.125 0.203125q0.09375 0.09375 0.234375 0.15625q0.15625 0.046875 0.359375 0.046875q0.28125 0 0.625 -0.15625q0.359375 -0.171875 0.75 -0.53125l0 -0.8125zm3.8317719 -3.703125l-1.34375 0l0 -0.65625l2.15625 0l0 5.78125l1.359375 0l0 0.65625l-3.671875 0l0 -0.65625l1.5 0l0 -5.125zm7.253647 5.78125l-0.71875 0l-0.015625 -0.734375q-0.203125 0.234375 -0.390625 0.390625q-0.1875 0.15625 -0.375 0.25q-0.171875 0.09375 -0.359375 0.125q-0.1875 0.046875 -0.390625 0.046875q-0.703125 0 -1.0625 -0.40625q-0.359375 -0.421875 -0.359375 -1.25l0 -3.0l0.78125 0l0 2.921875q0 1.0625 0.796875 1.0625q0.140625 0 0.28125 -0.046875q0.140625 -0.046875 0.296875 -0.140625q0.15625 -0.109375 0.328125 -0.296875q0.171875 -0.1875 0.390625 -0.46875l0 -3.03125l0.796875 0l0 4.578125zm5.316162 -2.53125q0 0.171875 -0.015625 0.296875q0 0.109375 0 0.203125l-3.21875 0q0 0.703125 0.390625 1.078125q0.390625 0.375 1.140625 0.375q0.1875 0 0.390625 -0.015625q0.203125 -0.015625 0.390625 -0.046875q0.1875 -0.03125 0.359375 -0.0625q0.171875 -0.03125 0.3125 -0.078125l0 0.65625q-0.328125 0.09375 -0.734375 0.140625q-0.40625 0.0625 -0.84375 0.0625q-0.578125 0 -1.015625 -0.15625q-0.421875 -0.15625 -0.6875 -0.453125q-0.265625 -0.3125 -0.40625 -0.75q-0.125 -0.4375 -0.125 -1.0q0 -0.484375 0.140625 -0.90625q0.140625 -0.4375 0.40625 -0.75q0.265625 -0.328125 0.65625 -0.515625q0.390625 -0.203125 0.875 -0.203125q0.484375 0 0.84375 0.15625q0.375 0.140625 0.625 0.421875q0.25 0.28125 0.375 0.671875q0.140625 0.390625 0.140625 0.875zm-0.828125 -0.109375q0.015625 -0.3125 -0.0625 -0.5625q-0.0625 -0.25 -0.21875 -0.421875q-0.15625 -0.1875 -0.390625 -0.28125q-0.21875 -0.109375 -0.515625 -0.109375q-0.265625 0 -0.484375 0.09375q-0.203125 0.09375 -0.359375 0.28125q-0.15625 0.1875 -0.25 0.4375q-0.09375 0.25 -0.125 0.5625l2.40625 0z" fill-rule="nonzero"/><path fill="#000000" fill-opacity="0.0" d="m226.47244 89.2021l50.48819 0l0 24.314957l-50.48819 0z" fill-rule="evenodd"/><path fill="#7f6000" d="m239.19179 102.58398l0.90625 0l1.125 3.03125l0.234375 0.734375l0.25 -0.75l1.109375 -3.015625l0.875 0l-1.796875 4.578125l-0.90625 0l-1.796875 -4.578125zm8.503647 4.578125l-0.03125 -0.609375q-0.359375 0.359375 -0.75 0.53125q-0.390625 0.15625 -0.8125 0.15625q-0.390625 0 -0.671875 -0.09375q-0.265625 -0.109375 -0.453125 -0.28125q-0.171875 -0.171875 -0.265625 -0.40625q-0.078125 -0.234375 -0.078125 -0.515625q0 -0.6875 0.5 -1.078125q0.515625 -0.390625 1.515625 -0.390625l0.953125 0l0 -0.40625q0 -0.40625 -0.265625 -0.640625q-0.25 -0.25 -0.78125 -0.25q-0.390625 0 -0.765625 0.09375q-0.375 0.078125 -0.78125 0.25l0 -0.71875q0.15625 -0.0625 0.328125 -0.109375q0.1875 -0.046875 0.390625 -0.09375q0.21875 -0.046875 0.4375 -0.0625q0.21875 -0.03125 0.453125 -0.03125q0.40625 0 0.734375 0.09375q0.34375 0.09375 0.5625 0.28125q0.234375 0.1875 0.359375 0.46875q0.125 0.28125 0.125 0.65625l0 3.15625l-0.703125 0zm-0.09375 -2.078125l-1.0 0q-0.296875 0 -0.515625 0.0625q-0.21875 0.046875 -0.359375 0.15625q-0.125 0.109375 -0.203125 0.265625q-0.0625 0.15625 -0.0625 0.34375q0 0.140625 0.046875 0.265625q0.046875 0.109375 0.125 0.203125q0.09375 0.09375 0.234375 0.15625q0.15625 0.046875 0.359375 0.046875q0.28125 0 0.625 -0.15625q0.359375 -0.171875 0.75 -0.53125l0 -0.8125zm3.8317719 -3.703125l-1.34375 0l0 -0.65625l2.15625 0l0 5.78125l1.359375 0l0 0.65625l-3.671875 0l0 -0.65625l1.5 0l0 -5.125zm7.253647 5.78125l-0.71875 0l-0.015625 -0.734375q-0.203125 0.234375 -0.390625 0.390625q-0.1875 0.15625 -0.375 0.25q-0.171875 0.09375 -0.359375 0.125q-0.1875 0.046875 -0.390625 0.046875q-0.703125 0 -1.0625 -0.40625q-0.359375 -0.421875 -0.359375 -1.25l0 -3.0l0.78125 0l0 2.921875q0 1.0625 0.796875 1.0625q0.140625 0 0.28125 -0.046875q0.140625 -0.046875 0.296875 -0.140625q0.15625 -0.109375 0.328125 -0.296875q0.171875 -0.1875 0.390625 -0.46875l0 -3.03125l0.796875 0l0 4.578125zm5.316162 -2.53125q0 0.171875 -0.015625 0.296875q0 0.109375 0 0.203125l-3.21875 0q0 0.703125 0.390625 1.078125q0.390625 0.375 1.140625 0.375q0.1875 0 0.390625 -0.015625q0.203125 -0.015625 0.390625 -0.046875q0.1875 -0.03125 0.359375 -0.0625q0.171875 -0.03125 0.3125 -0.078125l0 0.65625q-0.328125 0.09375 -0.734375 0.140625q-0.40625 0.0625 -0.84375 0.0625q-0.578125 0 -1.015625 -0.15625q-0.421875 -0.15625 -0.6875 -0.453125q-0.265625 -0.3125 -0.40625 -0.75q-0.125 -0.4375 -0.125 -1.0q0 -0.484375 0.140625 -0.90625q0.140625 -0.4375 0.40625 -0.75q0.265625 -0.328125 0.65625 -0.515625q0.390625 -0.203125 0.875 -0.203125q0.484375 0 0.84375 0.15625q0.375 0.140625 0.625 0.421875q0.25 0.28125 0.375 0.671875q0.140625 0.390625 0.140625 0.875zm-0.828125 -0.109375q0.015625 -0.3125 -0.0625 -0.5625q-0.0625 -0.25 -0.21875 -0.421875q-0.15625 -0.1875 -0.390625 -0.28125q-0.21875 -0.109375 -0.515625 -0.109375q-0.265625 0 -0.484375 0.09375q-0.203125 0.09375 -0.359375 0.28125q-0.15625 0.1875 -0.25 0.4375q-0.09375 0.25 -0.125 0.5625l2.40625 0z" fill-rule="nonzero"/><path fill="#000000" fill-opacity="0.0" d="m339.79004 89.2021l50.48819 0l0 24.314957l-50.48819 0z" fill-rule="evenodd"/><path fill="#7f6000" d="m352.50937 102.58398l0.90625 0l1.125 3.03125l0.234375 0.734375l0.25 -0.75l1.109375 -3.015625l0.875 0l-1.796875 4.578125l-0.90625 0l-1.796875 -4.578125zm8.503662 4.578125l-0.03125 -0.609375q-0.359375 0.359375 -0.75 0.53125q-0.390625 0.15625 -0.8125 0.15625q-0.390625 0 -0.671875 -0.09375q-0.265625 -0.109375 -0.453125 -0.28125q-0.171875 -0.171875 -0.265625 -0.40625q-0.078125 -0.234375 -0.078125 -0.515625q0 -0.6875 0.5 -1.078125q0.515625 -0.390625 1.515625 -0.390625l0.953125 0l0 -0.40625q0 -0.40625 -0.265625 -0.640625q-0.25 -0.25 -0.78125 -0.25q-0.390625 0 -0.765625 0.09375q-0.375 0.078125 -0.78125 0.25l0 -0.71875q0.15625 -0.0625 0.328125 -0.109375q0.1875 -0.046875 0.390625 -0.09375q0.21875 -0.046875 0.4375 -0.0625q0.21875 -0.03125 0.453125 -0.03125q0.40625 0 0.734375 0.09375q0.34375 0.09375 0.5625 0.28125q0.234375 0.1875 0.359375 0.46875q0.125 0.28125 0.125 0.65625l0 3.15625l-0.703125 0zm-0.09375 -2.078125l-1.0 0q-0.296875 0 -0.515625 0.0625q-0.21875 0.046875 -0.359375 0.15625q-0.125 0.109375 -0.203125 0.265625q-0.0625 0.15625 -0.0625 0.34375q0 0.140625 0.046875 0.265625q0.046875 0.109375 0.125 0.203125q0.09375 0.09375 0.234375 0.15625q0.15625 0.046875 0.359375 0.046875q0.28125 0 0.625 -0.15625q0.359375 -0.171875 0.75 -0.53125l0 -0.8125zm3.8317566 -3.703125l-1.34375 0l0 -0.65625l2.15625 0l0 5.78125l1.359375 0l0 0.65625l-3.671875 0l0 -0.65625l1.5 0l0 -5.125zm7.253662 5.78125l-0.71875 0l-0.015625 -0.734375q-0.203125 0.234375 -0.390625 0.390625q-0.1875 0.15625 -0.375 0.25q-0.171875 0.09375 -0.359375 0.125q-0.1875 0.046875 -0.390625 0.046875q-0.703125 0 -1.0625 -0.40625q-0.359375 -0.421875 -0.359375 -1.25l0 -3.0l0.78125 0l0 2.921875q0 1.0625 0.796875 1.0625q0.140625 0 0.28125 -0.046875q0.140625 -0.046875 0.296875 -0.140625q0.15625 -0.109375 0.328125 -0.296875q0.171875 -0.1875 0.390625 -0.46875l0 -3.03125l0.796875 0l0 4.578125zm5.3161316 -2.53125q0 0.171875 -0.015625 0.296875q0 0.109375 0 0.203125l-3.21875 0q0 0.703125 0.390625 1.078125q0.390625 0.375 1.140625 0.375q0.1875 0 0.390625 -0.015625q0.203125 -0.015625 0.390625 -0.046875q0.1875 -0.03125 0.359375 -0.0625q0.171875 -0.03125 0.3125 -0.078125l0 0.65625q-0.328125 0.09375 -0.734375 0.140625q-0.40625 0.0625 -0.84375 0.0625q-0.578125 0 -1.015625 -0.15625q-0.421875 -0.15625 -0.6875 -0.453125q-0.265625 -0.3125 -0.40625 -0.75q-0.125 -0.4375 -0.125 -1.0q0 -0.484375 0.140625 -0.90625q0.140625 -0.4375 0.40625 -0.75q0.265625 -0.328125 0.65625 -0.515625q0.390625 -0.203125 0.875 -0.203125q0.484375 0 0.84375 0.15625q0.375 0.140625 0.625 0.421875q0.25 0.28125 0.375 0.671875q0.140625 0.390625 0.140625 0.875zm-0.828125 -0.109375q0.015625 -0.3125 -0.0625 -0.5625q-0.0625 -0.25 -0.21875 -0.421875q-0.15625 -0.1875 -0.390625 -0.28125q-0.21875 -0.109375 -0.515625 -0.109375q-0.265625 0 -0.484375 0.09375q-0.203125 0.09375 -0.359375 0.28125q-0.15625 0.1875 -0.25 0.4375q-0.09375 0.25 -0.125 0.5625l2.40625 0z" fill-rule="nonzero"/><path fill="#000000" fill-opacity="0.0" d="m170.53543 31.622047l50.48819 0l0 24.31496l-50.48819 0z" fill-rule="evenodd"/><path fill="#073763" d="m186.2566 45.00392l0.703125 0l0.03125 0.75q0.203125 -0.25 0.390625 -0.40625q0.1875 -0.15625 0.359375 -0.25q0.1875 -0.09375 0.375 -0.125q0.1875 -0.046875 0.375 -0.046875q0.71875 0 1.078125 0.421875q0.359375 0.40625 0.359375 1.25l0 2.984375l-0.796875 0l0 -2.921875q0 -0.53125 -0.203125 -0.78125q-0.1875 -0.265625 -0.59375 -0.265625q-0.140625 0 -0.28125 0.046875q-0.140625 0.03125 -0.296875 0.140625q-0.140625 0.109375 -0.328125 0.296875q-0.171875 0.171875 -0.390625 0.453125l0 3.03125l-0.78125 0l0 -4.578125zm8.988022 2.046875q0 0.171875 -0.015625 0.296875q0 0.109375 0 0.203125l-3.21875 0q0 0.703125 0.390625 1.078125q0.390625 0.375 1.140625 0.375q0.1875 0 0.390625 -0.015625q0.203125 -0.015625 0.390625 -0.046875q0.1875 -0.03125 0.359375 -0.0625q0.171875 -0.03125 0.3125 -0.078125l0 0.65625q-0.328125 0.09375 -0.734375 0.140625q-0.40625 0.0625 -0.84375 0.0625q-0.578125 0 -1.015625 -0.15625q-0.421875 -0.15625 -0.6875 -0.453125q-0.265625 -0.3125 -0.40625 -0.75q-0.125 -0.4375 -0.125 -1.0q0 -0.484375 0.140625 -0.90625q0.140625 -0.4375 0.40625 -0.75q0.265625 -0.328125 0.65625 -0.515625q0.390625 -0.203125 0.875 -0.203125q0.484375 0 0.84375 0.15625q0.375 0.140625 0.625 0.421875q0.25 0.28125 0.375 0.671875q0.140625 0.390625 0.140625 0.875zm-0.828125 -0.109375q0.015625 -0.3125 -0.0625 -0.5625q-0.0625 -0.25 -0.21875 -0.421875q-0.15625 -0.1875 -0.390625 -0.28125q-0.21875 -0.109375 -0.515625 -0.109375q-0.265625 0 -0.484375 0.09375q-0.203125 0.09375 -0.359375 0.28125q-0.15625 0.1875 -0.25 0.4375q-0.09375 0.25 -0.125 0.5625l2.40625 0zm6.206772 2.640625l-1.046875 0l-1.234375 -1.75l-1.21875 1.75l-1.03125 0l1.78125 -2.296875l-1.6875 -2.28125l1.015625 0l1.203125 1.765625l1.171875 -1.765625l0.984375 0l-1.71875 2.296875l1.78125 2.28125zm4.691147 -0.0625q-0.265625 0.0625 -0.546875 0.09375q-0.28125 0.03125 -0.578125 0.03125q-0.875 0 -1.296875 -0.390625q-0.421875 -0.390625 -0.421875 -1.1875l0 -2.390625l-1.28125 0l0 -0.671875l1.28125 0l0 -1.25l0.796875 -0.203125l0 1.453125l2.046875 0l0 0.671875l-2.046875 0l0 2.328125q0 0.484375 0.265625 0.734375q0.265625 0.234375 0.765625 0.234375q0.21875 0 0.46875 -0.03125q0.265625 -0.03125 0.546875 -0.109375l0 0.6875z" fill-rule="nonzero"/><path fill="#000000" fill-opacity="0.0" d="m282.40945 31.622047l50.48819 0l0 24.31496l-50.48819 0z" fill-rule="evenodd"/><path fill="#7f6000" d="m298.1306 45.00392l0.703125 0l0.03125 0.75q0.203125 -0.25 0.390625 -0.40625q0.1875 -0.15625 0.359375 -0.25q0.1875 -0.09375 0.375 -0.125q0.1875 -0.046875 0.375 -0.046875q0.71875 0 1.078125 0.421875q0.359375 0.40625 0.359375 1.25l0 2.984375l-0.796875 0l0 -2.921875q0 -0.53125 -0.203125 -0.78125q-0.1875 -0.265625 -0.59375 -0.265625q-0.140625 0 -0.28125 0.046875q-0.140625 0.03125 -0.296875 0.140625q-0.140625 0.109375 -0.328125 0.296875q-0.171875 0.171875 -0.390625 0.453125l0 3.03125l-0.78125 0l0 -4.578125zm8.988037 2.046875q0 0.171875 -0.015625 0.296875q0 0.109375 0 0.203125l-3.21875 0q0 0.703125 0.390625 1.078125q0.390625 0.375 1.140625 0.375q0.1875 0 0.390625 -0.015625q0.203125 -0.015625 0.390625 -0.046875q0.1875 -0.03125 0.359375 -0.0625q0.171875 -0.03125 0.3125 -0.078125l0 0.65625q-0.328125 0.09375 -0.734375 0.140625q-0.40625 0.0625 -0.84375 0.0625q-0.578125 0 -1.015625 -0.15625q-0.421875 -0.15625 -0.6875 -0.453125q-0.265625 -0.3125 -0.40625 -0.75q-0.125 -0.4375 -0.125 -1.0q0 -0.484375 0.140625 -0.90625q0.140625 -0.4375 0.40625 -0.75q0.265625 -0.328125 0.65625 -0.515625q0.390625 -0.203125 0.875 -0.203125q0.484375 0 0.84375 0.15625q0.375 0.140625 0.625 0.421875q0.25 0.28125 0.375 0.671875q0.140625 0.390625 0.140625 0.875zm-0.828125 -0.109375q0.015625 -0.3125 -0.0625 -0.5625q-0.0625 -0.25 -0.21875 -0.421875q-0.15625 -0.1875 -0.390625 -0.28125q-0.21875 -0.109375 -0.515625 -0.109375q-0.265625 0 -0.484375 0.09375q-0.203125 0.09375 -0.359375 0.28125q-0.15625 0.1875 -0.25 0.4375q-0.09375 0.25 -0.125 0.5625l2.40625 0zm6.2067566 2.640625l-1.046875 0l-1.234375 -1.75l-1.21875 1.75l-1.03125 0l1.78125 -2.296875l-1.6875 -2.28125l1.015625 0l1.203125 1.765625l1.171875 -1.765625l0.984375 0l-1.71875 2.296875l1.78125 2.28125zm4.691162 -0.0625q-0.265625 0.0625 -0.546875 0.09375q-0.28125 0.03125 -0.578125 0.03125q-0.875 0 -1.296875 -0.390625q-0.421875 -0.390625 -0.421875 -1.1875l0 -2.390625l-1.28125 0l0 -0.671875l1.28125 0l0 -1.25l0.796875 -0.203125l0 1.453125l2.046875 0l0 0.671875l-2.046875 0l0 2.328125q0 0.484375 0.265625 0.734375q0.265625 0.234375 0.765625 0.234375q0.21875 0 0.46875 -0.03125q0.265625 -0.03125 0.546875 -0.109375l0 0.6875z" fill-rule="nonzero"/><path fill="#000000" fill-opacity="0.0" d="m282.40945 89.2021l50.48819 0l0 24.314957l-50.48819 0z" fill-rule="evenodd"/><path fill="#7f6000" d="m298.1306 102.58398l0.703125 0l0.03125 0.75q0.203125 -0.25 0.390625 -0.40625q0.1875 -0.15625 0.359375 -0.25q0.1875 -0.09375 0.375 -0.125q0.1875 -0.046875 0.375 -0.046875q0.71875 0 1.078125 0.421875q0.359375 0.40625 0.359375 1.25l0 2.984375l-0.796875 0l0 -2.921875q0 -0.53125 -0.203125 -0.78125q-0.1875 -0.265625 -0.59375 -0.265625q-0.140625 0 -0.28125 0.046875q-0.140625 0.03125 -0.296875 0.140625q-0.140625 0.109375 -0.328125 0.296875q-0.171875 0.171875 -0.390625 0.453125l0 3.03125l-0.78125 0l0 -4.578125zm8.988037 2.046875q0 0.171875 -0.015625 0.296875q0 0.109375 0 0.203125l-3.21875 0q0 0.703125 0.390625 1.078125q0.390625 0.375 1.140625 0.375q0.1875 0 0.390625 -0.015625q0.203125 -0.015625 0.390625 -0.046875q0.1875 -0.03125 0.359375 -0.0625q0.171875 -0.03125 0.3125 -0.078125l0 0.65625q-0.328125 0.09375 -0.734375 0.140625q-0.40625 0.0625 -0.84375 0.0625q-0.578125 0 -1.015625 -0.15625q-0.421875 -0.15625 -0.6875 -0.453125q-0.265625 -0.3125 -0.40625 -0.75q-0.125 -0.4375 -0.125 -1.0q0 -0.484375 0.140625 -0.90625q0.140625 -0.4375 0.40625 -0.75q0.265625 -0.328125 0.65625 -0.515625q0.390625 -0.203125 0.875 -0.203125q0.484375 0 0.84375 0.15625q0.375 0.140625 0.625 0.421875q0.25 0.28125 0.375 0.671875q0.140625 0.390625 0.140625 0.875zm-0.828125 -0.109375q0.015625 -0.3125 -0.0625 -0.5625q-0.0625 -0.25 -0.21875 -0.421875q-0.15625 -0.1875 -0.390625 -0.28125q-0.21875 -0.109375 -0.515625 -0.109375q-0.265625 0 -0.484375 0.09375q-0.203125 0.09375 -0.359375 0.28125q-0.15625 0.1875 -0.25 0.4375q-0.09375 0.25 -0.125 0.5625l2.40625 0zm6.2067566 2.640625l-1.046875 0l-1.234375 -1.75l-1.21875 1.75l-1.03125 0l1.78125 -2.296875l-1.6875 -2.28125l1.015625 0l1.203125 1.765625l1.171875 -1.765625l0.984375 0l-1.71875 2.296875l1.78125 2.28125zm4.691162 -0.0625q-0.265625 0.0625 -0.546875 0.09375q-0.28125 0.03125 -0.578125 0.03125q-0.875 0 -1.296875 -0.390625q-0.421875 -0.390625 -0.421875 -1.1875l0 -2.390625l-1.28125 0l0 -0.671875l1.28125 0l0 -1.25l0.796875 -0.203125l0 1.453125l2.046875 0l0 0.671875l-2.046875 0l0 2.328125q0 0.484375 0.265625 0.734375q0.265625 0.234375 0.765625 0.234375q0.21875 0 0.46875 -0.03125q0.265625 -0.03125 0.546875 -0.109375l0 0.6875z" fill-rule="nonzero"/><path fill="#000000" fill-opacity="0.0" d="m392.74802 89.2021l50.48819 0l0 24.314957l-50.48819 0z" fill-rule="evenodd"/><path fill="#7f6000" d="m408.4692 102.58398l0.703125 0l0.03125 0.75q0.203125 -0.25 0.390625 -0.40625q0.1875 -0.15625 0.359375 -0.25q0.1875 -0.09375 0.375 -0.125q0.1875 -0.046875 0.375 -0.046875q0.71875 0 1.078125 0.421875q0.359375 0.40625 0.359375 1.25l0 2.984375l-0.796875 0l0 -2.921875q0 -0.53125 -0.203125 -0.78125q-0.1875 -0.265625 -0.59375 -0.265625q-0.140625 0 -0.28125 0.046875q-0.140625 0.03125 -0.296875 0.140625q-0.140625 0.109375 -0.328125 0.296875q-0.171875 0.171875 -0.390625 0.453125l0 3.03125l-0.78125 0l0 -4.578125zm8.988007 2.046875q0 0.171875 -0.015625 0.296875q0 0.109375 0 0.203125l-3.21875 0q0 0.703125 0.390625 1.078125q0.390625 0.375 1.140625 0.375q0.1875 0 0.390625 -0.015625q0.203125 -0.015625 0.390625 -0.046875q0.1875 -0.03125 0.359375 -0.0625q0.171875 -0.03125 0.3125 -0.078125l0 0.65625q-0.328125 0.09375 -0.734375 0.140625q-0.40625 0.0625 -0.84375 0.0625q-0.578125 0 -1.015625 -0.15625q-0.421875 -0.15625 -0.6875 -0.453125q-0.265625 -0.3125 -0.40625 -0.75q-0.125 -0.4375 -0.125 -1.0q0 -0.484375 0.140625 -0.90625q0.140625 -0.4375 0.40625 -0.75q0.265625 -0.328125 0.65625 -0.515625q0.390625 -0.203125 0.875 -0.203125q0.484375 0 0.84375 0.15625q0.375 0.140625 0.625 0.421875q0.25 0.28125 0.375 0.671875q0.140625 0.390625 0.140625 0.875zm-0.828125 -0.109375q0.015625 -0.3125 -0.0625 -0.5625q-0.0625 -0.25 -0.21875 -0.421875q-0.15625 -0.1875 -0.390625 -0.28125q-0.21875 -0.109375 -0.515625 -0.109375q-0.265625 0 -0.484375 0.09375q-0.203125 0.09375 -0.359375 0.28125q-0.15625 0.1875 -0.25 0.4375q-0.09375 0.25 -0.125 0.5625l2.40625 0zm6.206787 2.640625l-1.046875 0l-1.234375 -1.75l-1.21875 1.75l-1.03125 0l1.78125 -2.296875l-1.6875 -2.28125l1.015625 0l1.203125 1.765625l1.171875 -1.765625l0.984375 0l-1.71875 2.296875l1.78125 2.28125zm4.6911316 -0.0625q-0.265625 0.0625 -0.546875 0.09375q-0.28125 0.03125 -0.578125 0.03125q-0.875 0 -1.296875 -0.390625q-0.421875 -0.390625 -0.421875 -1.1875l0 -2.390625l-1.28125 0l0 -0.671875l1.28125 0l0 -1.25l0.796875 -0.203125l0 1.453125l2.046875 0l0 0.671875l-2.046875 0l0 2.328125q0 0.484375 0.265625 0.734375q0.265625 0.234375 0.765625 0.234375q0.21875 0 0.46875 -0.03125q0.265625 -0.03125 0.546875 -0.109375l0 0.6875z" fill-rule="nonzero"/></g></svg>