<svg version="1.1" viewBox="0.0 0.0 448.40419947506564 168.79265091863516" fill="none" stroke="none" stroke-linecap="square" stroke-miterlimit="10" xmlns:xlink="http://www.w3.org/1999/xlink" xmlns="http://www.w3.org/2000/svg"><clipPath id="p.0"><path d="m0 0l448.4042 0l0 168.79265l-448.4042 0l0 -168.79265z" clip-rule="nonzero"/></clipPath><g clip-path="url(#p.0)"><path fill="#000000" fill-opacity="0.0" d="m0 0l448.4042 0l0 168.79265l-448.4042 0z" fill-rule="evenodd"/><path fill="#fff2cc" d="m0 0l55.937008 0l0 55.937008l-55.937008 0z" fill-rule="evenodd"/><path stroke="#000000" stroke-width="1.0" stroke-linejoin="round" stroke-linecap="butt" d="m0 0l55.937008 0l0 55.937008l-55.937008 0z" fill-rule="evenodd"/><path fill="#000000" d="m26.789335 34.888504l-7.46875 0l0 -1.46875l3.0625 0l0 -8.703125l-2.859375 1.546875l-0.578125 -1.34375l3.78125 -1.984375l1.40625 0l0 10.484375l2.65625 0l0 1.46875zm10.632296 -5.953125q0 1.375 -0.28125 2.5q-0.265625 1.125 -0.828125 1.9375q-0.546875 0.796875 -1.375 1.234375q-0.8125 0.4375 -1.9375 0.4375q-0.953125 0 -1.7343769 -0.359375q-0.78125 -0.359375 -1.34375 -1.09375q-0.546875 -0.75 -0.859375 -1.90625q-0.296875 -1.15625 -0.296875 -2.75q0 -1.359375 0.28125 -2.484375q0.28125 -1.140625 0.828125 -1.9375q0.546875 -0.8125 1.375 -1.25q0.8437519 -0.4375 1.9375019 -0.4375q0.953125 0 1.734375 0.359375q0.796875 0.359375 1.34375 1.109375q0.5625 0.75 0.859375 1.90625q0.296875 1.15625 0.296875 2.734375zm-1.59375 0.0625q0 -0.3125 -0.03125 -0.609375q-0.015625 -0.3125 -0.046875 -0.609375l-5.046877 3.75q0.140625 0.46875 0.34375 0.875q0.21875 0.390625 0.515625 0.6875q0.296875 0.28125 0.6718769 0.453125q0.375 0.15625 0.859375 0.15625q0.625 0 1.125 -0.296875q0.515625 -0.3125 0.859375 -0.90625q0.359375 -0.59375 0.546875 -1.46875q0.203125 -0.875 0.203125 -2.03125zm-5.453127 -0.109375q0 0.28125 0 0.5625q0 0.28125 0.03125 0.546875l5.046877 -3.734375q-0.140625 -0.453125 -0.359375 -0.828125q-0.203125 -0.390625 -0.5 -0.671875q-0.28125 -0.28125 -0.65625 -0.4375q-0.375 -0.15625 -0.84375 -0.15625q-0.609375 0 -1.1250019 0.3125q-0.5 0.296875 -0.859375 0.890625q-0.359375 0.59375 -0.546875 1.484375q-0.1875 0.875 -0.1875 2.03125z" fill-rule="nonzero"/><path fill="#ffe599" d="m55.937008 0l55.937008 0l0 55.937008l-55.937008 0z" fill-rule="evenodd"/><path stroke="#000000" stroke-width="1.0" stroke-linejoin="round" stroke-linecap="butt" d="m55.937008 0l55.937008 0l0 55.937008l-55.937008 0z" fill-rule="evenodd"/><path fill="#000000" d="m83.30918 25.607254q1.0 0 1.96875 0.53125q0.96875 0.515625 1.5 1.484375q0.53125 0.96875 0.53125 2.0q0 1.671875 -1.171875 2.84375q-1.171875 1.171875 -2.828125 1.171875q-1.671875 0 -2.84375 -1.171875q-1.171875 -1.171875 -1.171875 -2.84375q0 -1.046875 0.53125 -2.0q0.546875 -0.96875 1.5 -1.484375q0.96875 -0.53125 1.984375 -0.53125z" fill-rule="nonzero"/><path fill="#cfe2f3" d="m111.874016 0l55.937004 0l0 55.937008l-55.937004 0z" fill-rule="evenodd"/><path stroke="#000000" stroke-width="1.0" stroke-linejoin="round" stroke-linecap="butt" d="m111.874016 0l55.937004 0l0 55.937008l-55.937004 0z" fill-rule="evenodd"/><path fill="#000000" d="m126.0929 31.696629l-1.59375 0l0 -6.03125l1.59375 0l0 0.453125l-1.0625 0l0 5.125l1.0625 0l0 0.453125zm4.175255 -1.328125l-2.6562424 0l0 -0.53125l1.0937424 0l0 -3.09375l-1.0312424 0.546875l-0.203125 -0.484375l1.3593674 -0.703125l0.5 0l0 3.734375l0.9375 0l0 0.53125zm1.2065125 0.671875q0.15625 0 0.3125 -0.046875q0.15625 -0.03125 0.265625 -0.09375q0.125 -0.0625 0.1875 -0.171875q0.078125 -0.109375 0.078125 -0.234375q0 -0.140625 -0.046875 -0.21875q-0.046875 -0.09375 -0.109375 -0.15625q-0.046875 -0.078125 -0.09375 -0.15625q-0.046875 -0.078125 -0.046875 -0.21875q0 -0.078125 0.015625 -0.140625q0.03125 -0.078125 0.078125 -0.140625q0.0625 -0.0625 0.140625 -0.09375q0.09375 -0.046875 0.203125 -0.046875q0.109375 0 0.21875 0.046875q0.109375 0.046875 0.1875 0.15625q0.078125 0.09375 0.125 0.234375q0.046875 0.140625 0.046875 0.34375q0 0.265625 -0.109375 0.515625q-0.09375 0.25 -0.296875 0.4375q-0.1875 0.203125 -0.484375 0.3125q-0.296875 0.109375 -0.671875 0.109375l0 -0.4375zm9.819275 -0.671875l-2.796875 0l0 -0.5l1.09375 -1.09375q0.265625 -0.265625 0.4375 -0.453125q0.171875 -0.203125 0.265625 -0.359375q0.09375 -0.171875 0.125 -0.3125q0.03125 -0.140625 0.03125 -0.3125q0 -0.15625 -0.046875 -0.296875q-0.03125 -0.140625 -0.125 -0.25q-0.09375 -0.109375 -0.234375 -0.171875q-0.140625 -0.0625 -0.328125 -0.0625q-0.265625 0 -0.5 0.125q-0.21875 0.125 -0.390625 0.3125l-0.3125 -0.375q0.234375 -0.25 0.546875 -0.40625q0.3125 -0.15625 0.734375 -0.15625q0.28125 0 0.515625 0.09375q0.234375 0.078125 0.390625 0.25q0.171875 0.15625 0.265625 0.390625q0.09375 0.21875 0.09375 0.515625q0 0.234375 -0.0625 0.453125q-0.0625 0.203125 -0.203125 0.40625q-0.125 0.203125 -0.328125 0.4375q-0.203125 0.21875 -0.46875 0.46875l-0.765625 0.75l2.0625 0l0 0.546875zm1.1596375 0.671875q0.15625 0 0.3125 -0.046875q0.15625 -0.03125 0.265625 -0.09375q0.125 -0.0625 0.1875 -0.171875q0.078125 -0.109375 0.078125 -0.234375q0 -0.140625 -0.046875 -0.21875q-0.046875 -0.09375 -0.109375 -0.15625q-0.046875 -0.078125 -0.09375 -0.15625q-0.046875 -0.078125 -0.046875 -0.21875q0 -0.078125 0.015625 -0.140625q0.03125 -0.078125 0.078125 -0.140625q0.0625 -0.0625 0.140625 -0.09375q0.09375 -0.046875 0.203125 -0.046875q0.109375 0 0.21875 0.046875q0.109375 0.046875 0.1875 0.15625q0.078125 0.09375 0.125 0.234375q0.046875 0.140625 0.046875 0.34375q0 0.265625 -0.109375 0.515625q-0.09375 0.25 -0.296875 0.4375q-0.1875 0.203125 -0.484375 0.3125q-0.296875 0.109375 -0.671875 0.109375l0 -0.4375zm9.725525 -1.96875q0 0.28125 -0.109375 0.53125q-0.109375 0.25 -0.34375 0.4375q-0.21875 0.171875 -0.5625 0.28125q-0.34375 0.109375 -0.8125 0.109375q-0.25 0 -0.453125 -0.015625q-0.203125 -0.015625 -0.375 -0.046875l0 -0.5q0.203125 0.03125 0.421875 0.046875q0.234375 0.015625 0.46875 0.015625q0.3125 0 0.53125 -0.046875q0.234375 -0.0625 0.375 -0.171875q0.140625 -0.109375 0.203125 -0.25q0.078125 -0.15625 0.078125 -0.34375q0 -0.1875 -0.078125 -0.3125q-0.078125 -0.125 -0.21875 -0.21875q-0.140625 -0.09375 -0.34375 -0.125q-0.203125 -0.046875 -0.4375 -0.046875l-0.484375 0l0 -0.46875l0.5 0q0.1875 0 0.34375 -0.046875q0.15625 -0.046875 0.265625 -0.140625q0.125 -0.09375 0.171875 -0.234375q0.0625 -0.140625 0.0625 -0.3125q0 -0.34375 -0.203125 -0.5q-0.203125 -0.15625 -0.609375 -0.15625q-0.21875 0 -0.453125 0.046875q-0.21875 0.03125 -0.484375 0.125l0 -0.5q0.109375 -0.03125 0.234375 -0.0625q0.125 -0.03125 0.25 -0.046875q0.125 -0.03125 0.25 -0.046875q0.125 -0.015625 0.25 -0.015625q0.328125 0 0.578125 0.078125q0.265625 0.078125 0.4375 0.21875q0.171875 0.125 0.25 0.328125q0.09375 0.1875 0.09375 0.4375q0 0.359375 -0.1875 0.609375q-0.1875 0.25 -0.5 0.390625q0.15625 0.03125 0.3125 0.109375q0.171875 0.078125 0.296875 0.203125q0.125 0.109375 0.203125 0.28125q0.078125 0.171875 0.078125 0.359375zm3.0033875 2.625l-1.59375 0l0 -0.453125l1.0625 0l0 -5.125l-1.0625 0l0 -0.453125l1.59375 0l0 6.03125z" fill-rule="nonzero"/><path fill="#9fc5e8" d="m167.81102 0l55.93701 0l0 55.937008l-55.93701 0z" fill-rule="evenodd"/><path stroke="#000000" stroke-width="1.0" stroke-linejoin="round" stroke-linecap="butt" d="m167.81102 0l55.93701 0l0 55.937008l-55.93701 0z" fill-rule="evenodd"/><path fill="#000000" d="m195.1832 25.607254q1.0 0 1.96875 0.53125q0.96875 0.515625 1.5 1.484375q0.53125 0.96875 0.53125 2.0q0 1.671875 -1.171875 2.84375q-1.171875 1.171875 -2.828125 1.171875q-1.671875 0 -2.84375 -1.171875q-1.171875 -1.171875 -1.171875 -2.84375q0 -1.046875 0.53125 -2.0q0.546875 -0.96875 1.5 -1.484375q0.96875 -0.53125 1.984375 -0.53125z" fill-rule="nonzero"/><path fill="#cfe2f3" d="m223.74803 0l55.936996 0l0 55.937008l-55.936996 0z" fill-rule="evenodd"/><path stroke="#000000" stroke-width="1.0" stroke-linejoin="round" stroke-linecap="butt" d="m223.74803 0l55.936996 0l0 55.937008l-55.936996 0z" fill-rule="evenodd"/><path fill="#000000" d="m237.96692 31.696629l-1.59375 0l0 -6.03125l1.59375 0l0 0.453125l-1.0625 0l0 5.125l1.0625 0l0 0.453125zm4.4252625 -2.265625l-0.71875 0l0 0.9375l-0.578125 0l0 -0.9375l-2.046875 0l0 -0.5l1.8125 -2.8125l0.8125 0l0 2.8125l0.71875 0l0 0.5zm-1.296875 -2.765625l-1.484375 2.265625l1.484375 0l0 -2.265625zm2.2533875 4.375q0.15625 0 0.3125 -0.046875q0.15625 -0.03125 0.265625 -0.09375q0.125 -0.0625 0.1875 -0.171875q0.078125 -0.109375 0.078125 -0.234375q0 -0.140625 -0.046875 -0.21875q-0.046875 -0.09375 -0.109375 -0.15625q-0.046875 -0.078125 -0.09375 -0.15625q-0.046875 -0.078125 -0.046875 -0.21875q0 -0.078125 0.015625 -0.140625q0.03125 -0.078125 0.078125 -0.140625q0.0625 -0.0625 0.140625 -0.09375q0.09375 -0.046875 0.203125 -0.046875q0.109375 0 0.21875 0.046875q0.109375 0.046875 0.1875 0.15625q0.078125 0.09375 0.125 0.234375q0.046875 0.140625 0.046875 0.34375q0 0.265625 -0.109375 0.515625q-0.09375 0.25 -0.296875 0.4375q-0.1875 0.203125 -0.484375 0.3125q-0.296875 0.109375 -0.671875 0.109375l0 -0.4375zm9.7099 -2.03125q0 0.3125 -0.140625 0.578125q-0.140625 0.265625 -0.375 0.453125q-0.234375 0.171875 -0.5625 0.28125q-0.328125 0.109375 -0.703125 0.109375q-0.09375 0 -0.203125 -0.015625q-0.109375 0 -0.21875 -0.015625q-0.109375 0 -0.21875 -0.015625q-0.09375 0 -0.171875 -0.015625l0 -0.515625q0.171875 0.046875 0.390625 0.0625q0.234375 0.015625 0.46875 0.015625q0.265625 0 0.46875 -0.0625q0.203125 -0.0625 0.34375 -0.171875q0.15625 -0.109375 0.234375 -0.265625q0.078125 -0.171875 0.078125 -0.375q0 -0.40625 -0.28125 -0.578125q-0.28125 -0.1875 -0.828125 -0.1875l-0.796875 0l0 -2.171875l2.28125 0l0 0.5l-1.75 0l0 1.1875l0.375 0q0.296875 0 0.578125 0.0625q0.296875 0.046875 0.515625 0.1875q0.234375 0.140625 0.375 0.375q0.140625 0.234375 0.140625 0.578125zm1.2690125 2.03125q0.15625 0 0.3125 -0.046875q0.15625 -0.03125 0.265625 -0.09375q0.125 -0.0625 0.1875 -0.171875q0.078125 -0.109375 0.078125 -0.234375q0 -0.140625 -0.046875 -0.21875q-0.046875 -0.09375 -0.109375 -0.15625q-0.046875 -0.078125 -0.09375 -0.15625q-0.046875 -0.078125 -0.046875 -0.21875q0 -0.078125 0.015625 -0.140625q0.03125 -0.078125 0.078125 -0.140625q0.0625 -0.0625 0.140625 -0.09375q0.09375 -0.046875 0.203125 -0.046875q0.109375 0 0.21875 0.046875q0.109375 0.046875 0.1875 0.15625q0.078125 0.09375 0.125 0.234375q0.046875 0.140625 0.046875 0.34375q0 0.265625 -0.109375 0.515625q-0.09375 0.25 -0.296875 0.4375q-0.1875 0.203125 -0.484375 0.3125q-0.296875 0.109375 -0.671875 0.109375l0 -0.4375zm9.86615 -2.015625q0 0.296875 -0.109375 0.546875q-0.109375 0.25 -0.296875 0.453125q-0.1875 0.1875 -0.46875 0.296875q-0.28125 0.109375 -0.609375 0.109375q-0.359375 0 -0.625 -0.109375q-0.265625 -0.125 -0.453125 -0.34375q-0.171875 -0.234375 -0.265625 -0.59375q-0.09375 -0.359375 -0.09375 -0.84375q0 -0.3125 0.03125 -0.625q0.046875 -0.3125 0.140625 -0.578125q0.09375 -0.265625 0.25 -0.484375q0.171875 -0.234375 0.40625 -0.390625q0.25 -0.15625 0.578125 -0.25q0.328125 -0.09375 0.765625 -0.09375l0.421875 0l0 0.5l-0.453125 0q-0.390625 0 -0.671875 0.09375q-0.265625 0.078125 -0.46875 0.25q-0.1875 0.171875 -0.28125 0.40625q-0.09375 0.234375 -0.125 0.515625l-0.015625 0.140625q0.203125 -0.125 0.46875 -0.1875q0.265625 -0.078125 0.578125 -0.078125q0.328125 0 0.5625 0.09375q0.25 0.09375 0.40625 0.265625q0.171875 0.15625 0.25 0.390625q0.078125 0.234375 0.078125 0.515625zm-0.59375 0.03125q0 -0.1875 -0.046875 -0.34375q-0.046875 -0.15625 -0.15625 -0.265625q-0.09375 -0.109375 -0.25 -0.171875q-0.15625 -0.0625 -0.359375 -0.0625q-0.125 0 -0.25 0.03125q-0.125 0.015625 -0.25 0.0625q-0.125 0.03125 -0.234375 0.09375q-0.109375 0.046875 -0.203125 0.09375q0 0.421875 0.0625 0.703125q0.0625 0.28125 0.171875 0.453125q0.109375 0.171875 0.28125 0.25q0.171875 0.0625 0.390625 0.0625q0.1875 0 0.34375 -0.0625q0.15625 -0.0625 0.265625 -0.171875q0.109375 -0.125 0.171875 -0.28125q0.0625 -0.171875 0.0625 -0.390625zm3.4565125 2.640625l-1.59375 0l0 -0.453125l1.0625 0l0 -5.125l-1.0625 0l0 -0.453125l1.59375 0l0 6.03125z" fill-rule="nonzero"/><path fill="#9fc5e8" d="m279.68503 0l55.93701 0l0 55.937008l-55.93701 0z" fill-rule="evenodd"/><path stroke="#000000" stroke-width="1.0" stroke-linejoin="round" stroke-linecap="butt" d="m279.68503 0l55.93701 0l0 55.937008l-55.93701 0z" fill-rule="evenodd"/><path fill="#000000" d="m307.05722 25.607254q1.0 0 1.96875 0.53125q0.96875 0.515625 1.5 1.484375q0.53125 0.96875 0.53125 2.0q0 1.671875 -1.171875 2.84375q-1.171875 1.171875 -2.828125 1.171875q-1.671875 0 -2.84375 -1.171875q-1.171875 -1.171875 -1.171875 -2.84375q0 -1.046875 0.53125 -2.0q0.546875 -0.96875 1.5 -1.484375q0.96875 -0.53125 1.984375 -0.53125z" fill-rule="nonzero"/><path fill="#cfe2f3" d="m335.62204 0l55.93701 0l0 55.937008l-55.93701 0z" fill-rule="evenodd"/><path stroke="#000000" stroke-width="1.0" stroke-linejoin="round" stroke-linecap="butt" d="m335.62204 0l55.93701 0l0 55.937008l-55.93701 0z" fill-rule="evenodd"/><path fill="#000000" d="m349.84094 31.696629l-1.59375 0l0 -6.03125l1.59375 0l0 0.453125l-1.0625 0l0 5.125l1.0625 0l0 0.453125zm4.1908875 -5.046875l-1.78125 3.71875l-0.640625 0l1.84375 -3.71875l-2.296875 0l0 -0.53125l2.875 0l0 0.53125zm1.1908875 4.390625q0.15625 0 0.3125 -0.046875q0.15625 -0.03125 0.265625 -0.09375q0.125 -0.0625 0.1875 -0.171875q0.078125 -0.109375 0.078125 -0.234375q0 -0.140625 -0.046875 -0.21875q-0.046875 -0.09375 -0.109375 -0.15625q-0.046875 -0.078125 -0.09375 -0.15625q-0.046875 -0.078125 -0.046875 -0.21875q0 -0.078125 0.015625 -0.140625q0.03125 -0.078125 0.078125 -0.140625q0.0625 -0.0625 0.140625 -0.09375q0.09375 -0.046875 0.203125 -0.046875q0.109375 0 0.21875 0.046875q0.109375 0.046875 0.1875 0.15625q0.078125 0.09375 0.125 0.234375q0.046875 0.140625 0.046875 0.34375q0 0.265625 -0.109375 0.515625q-0.09375 0.25 -0.296875 0.4375q-0.1875 0.203125 -0.484375 0.3125q-0.296875 0.109375 -0.671875 0.109375l0 -0.4375zm9.819275 -1.734375q0 0.265625 -0.109375 0.484375q-0.109375 0.203125 -0.3125 0.34375q-0.203125 0.140625 -0.46875 0.21875q-0.265625 0.078125 -0.59375 0.078125q-0.34375 0 -0.609375 -0.078125q-0.265625 -0.078125 -0.453125 -0.21875q-0.171875 -0.140625 -0.265625 -0.328125q-0.078125 -0.203125 -0.078125 -0.421875q0 -0.390625 0.21875 -0.671875q0.21875 -0.296875 0.671875 -0.515625q-0.421875 -0.21875 -0.609375 -0.46875q-0.1875 -0.265625 -0.1875 -0.59375q0 -0.203125 0.078125 -0.390625q0.078125 -0.203125 0.25 -0.34375q0.171875 -0.15625 0.421875 -0.25q0.265625 -0.09375 0.609375 -0.09375q0.328125 0 0.578125 0.078125q0.25 0.0625 0.421875 0.203125q0.171875 0.125 0.25 0.3125q0.09375 0.1875 0.09375 0.40625q0 0.375 -0.21875 0.640625q-0.203125 0.25 -0.578125 0.453125q0.1875 0.09375 0.34375 0.203125q0.171875 0.109375 0.28125 0.25q0.125 0.140625 0.1875 0.3125q0.078125 0.171875 0.078125 0.390625zm-0.671875 -2.203125q0 -0.28125 -0.203125 -0.421875q-0.203125 -0.140625 -0.578125 -0.140625q-0.359375 0 -0.5625 0.140625q-0.203125 0.125 -0.203125 0.40625q0 0.125 0.046875 0.234375q0.046875 0.109375 0.140625 0.203125q0.109375 0.09375 0.265625 0.1875q0.15625 0.09375 0.359375 0.1875q0.375 -0.171875 0.546875 -0.359375q0.1875 -0.1875 0.1875 -0.4375zm0.046875 2.234375q0 -0.109375 -0.046875 -0.21875q-0.03125 -0.125 -0.140625 -0.234375q-0.09375 -0.109375 -0.265625 -0.21875q-0.15625 -0.109375 -0.421875 -0.234375q-0.21875 0.109375 -0.375 0.21875q-0.140625 0.109375 -0.234375 0.21875q-0.09375 0.109375 -0.140625 0.234375q-0.03125 0.109375 -0.03125 0.234375q0 0.140625 0.0625 0.265625q0.0625 0.109375 0.171875 0.1875q0.109375 0.078125 0.265625 0.125q0.15625 0.03125 0.328125 0.03125q0.171875 0 0.328125 -0.03125q0.15625 -0.046875 0.265625 -0.109375q0.109375 -0.078125 0.171875 -0.1875q0.0625 -0.125 0.0625 -0.28125zm1.7846375 1.703125q0.15625 0 0.3125 -0.046875q0.15625 -0.03125 0.265625 -0.09375q0.125 -0.0625 0.1875 -0.171875q0.078125 -0.109375 0.078125 -0.234375q0 -0.140625 -0.046875 -0.21875q-0.046875 -0.09375 -0.109375 -0.15625q-0.046875 -0.078125 -0.09375 -0.15625q-0.046875 -0.078125 -0.046875 -0.21875q0 -0.078125 0.015625 -0.140625q0.03125 -0.078125 0.078125 -0.140625q0.0625 -0.0625 0.140625 -0.09375q0.09375 -0.046875 0.203125 -0.046875q0.109375 0 0.21875 0.046875q0.109375 0.046875 0.1875 0.15625q0.078125 0.09375 0.125 0.234375q0.046875 0.140625 0.046875 0.34375q0 0.265625 -0.109375 0.515625q-0.09375 0.25 -0.296875 0.4375q-0.1875 0.203125 -0.484375 0.3125q-0.296875 0.109375 -0.671875 0.109375l0 -0.4375zm9.788025 -3.03125q0 0.625 -0.15625 1.078125q-0.140625 0.4375 -0.4375 0.734375q-0.28125 0.28125 -0.71875 0.421875q-0.4375 0.125 -1.0 0.125l-0.359375 0l0 -0.5l0.40625 0q0.40625 0 0.71875 -0.078125q0.3125 -0.078125 0.515625 -0.234375q0.203125 -0.171875 0.296875 -0.40625q0.109375 -0.25 0.140625 -0.546875l0.015625 -0.125q-0.203125 0.109375 -0.46875 0.1875q-0.265625 0.078125 -0.578125 0.078125q-0.328125 0 -0.578125 -0.09375q-0.234375 -0.09375 -0.40625 -0.265625q-0.15625 -0.171875 -0.234375 -0.40625q-0.078125 -0.234375 -0.078125 -0.5q0 -0.296875 0.109375 -0.546875q0.109375 -0.265625 0.296875 -0.453125q0.1875 -0.1875 0.453125 -0.296875q0.28125 -0.125 0.609375 -0.125q0.3125 0 0.578125 0.109375q0.265625 0.109375 0.453125 0.34375q0.203125 0.21875 0.3125 0.59375q0.109375 0.375 0.109375 0.90625zm-1.484375 -1.484375q-0.1875 0 -0.34375 0.0625q-0.140625 0.0625 -0.265625 0.1875q-0.109375 0.109375 -0.171875 0.28125q-0.0625 0.15625 -0.0625 0.375q0 0.203125 0.046875 0.359375q0.046875 0.15625 0.140625 0.265625q0.109375 0.109375 0.265625 0.171875q0.15625 0.046875 0.359375 0.046875q0.125 0 0.25 -0.015625q0.125 -0.03125 0.25 -0.0625q0.125 -0.046875 0.234375 -0.09375q0.109375 -0.046875 0.203125 -0.109375q0 -0.421875 -0.0625 -0.703125q-0.0625 -0.28125 -0.1875 -0.453125q-0.109375 -0.171875 -0.28125 -0.234375q-0.171875 -0.078125 -0.375 -0.078125zm4.4252625 5.171875l-1.59375 0l0 -0.453125l1.0625 0l0 -5.125l-1.0625 0l0 -0.453125l1.59375 0l0 6.03125z" fill-rule="nonzero"/><path fill="#9fc5e8" d="m391.55905 0l55.93701 0l0 55.937008l-55.93701 0z" fill-rule="evenodd"/><path stroke="#000000" stroke-width="1.0" stroke-linejoin="round" stroke-linecap="butt" d="m391.55905 0l55.93701 0l0 55.937008l-55.93701 0z" fill-rule="evenodd"/><path fill="#000000" d="m418.93124 25.607254q1.0 0 1.96875 0.53125q0.96875 0.515625 1.5 1.484375q0.53125 0.96875 0.53125 2.0q0 1.671875 -1.171875 2.84375q-1.171875 1.171875 -2.828125 1.171875q-1.671875 0 -2.84375 -1.171875q-1.171875 -1.171875 -1.171875 -2.84375q0 -1.046875 0.53125 -2.0q0.546875 -0.96875 1.5 -1.484375q0.96875 -0.53125 1.984375 -0.53125z" fill-rule="nonzero"/><path fill="#f3f3f3" d="m0 55.937008l55.937008 0l0 55.937008l-55.937008 0z" fill-rule="evenodd"/><path stroke="#000000" stroke-width="1.0" stroke-linejoin="round" stroke-linecap="butt" d="m0 55.937008l55.937008 0l0 55.937008l-55.937008 0z" fill-rule="evenodd"/><path fill="#f3f3f3" d="m55.937008 55.937008l55.937008 0l0 55.937008l-55.937008 0z" fill-rule="evenodd"/><path stroke="#000000" stroke-width="1.0" stroke-linejoin="round" stroke-linecap="butt" d="m55.937008 55.937008l55.937008 0l0 55.937008l-55.937008 0z" fill-rule="evenodd"/><path fill="#f3f3f3" d="m111.874016 55.937008l55.937004 0l0 55.937008l-55.937004 0z" fill-rule="evenodd"/><path stroke="#000000" stroke-width="1.0" stroke-linejoin="round" stroke-linecap="butt" d="m111.874016 55.937008l55.937004 0l0 55.937008l-55.937004 0z" fill-rule="evenodd"/><path fill="#f3f3f3" d="m167.81102 55.937008l55.93701 0l0 55.937008l-55.93701 0z" fill-rule="evenodd"/><path stroke="#000000" stroke-width="1.0" stroke-linejoin="round" stroke-linecap="butt" d="m167.81102 55.937008l55.93701 0l0 55.937008l-55.93701 0z" fill-rule="evenodd"/><path fill="#f3f3f3" d="m223.74803 55.937008l55.936996 0l0 55.937008l-55.936996 0z" fill-rule="evenodd"/><path stroke="#000000" stroke-width="1.0" stroke-linejoin="round" stroke-linecap="butt" d="m223.74803 55.937008l55.936996 0l0 55.937008l-55.936996 0z" fill-rule="evenodd"/><path fill="#f3f3f3" d="m279.68503 55.937008l55.93701 0l0 55.937008l-55.93701 0z" fill-rule="evenodd"/><path stroke="#000000" stroke-width="1.0" stroke-linejoin="round" stroke-linecap="butt" d="m279.68503 55.937008l55.93701 0l0 55.937008l-55.93701 0z" fill-rule="evenodd"/><path fill="#cfe2f3" d="m335.62204 55.937008l55.93701 0l0 55.937008l-55.93701 0z" fill-rule="evenodd"/><path stroke="#000000" stroke-width="1.0" stroke-linejoin="round" stroke-linecap="butt" d="m335.62204 55.937008l55.93701 0l0 55.937008l-55.93701 0z" fill-rule="evenodd"/><path fill="#000000" d="m348.0111 87.63364l-1.59375 0l0 -6.03125l1.59375 0l0 0.453125l-1.0625 0l0 5.125l1.0625 0l0 0.453125zm4.1752625 -1.328125l-2.65625 0l0 -0.53125l1.09375 0l0 -3.09375l-1.03125 0.546875l-0.203125 -0.484375l1.359375 -0.703125l0.5 0l0 3.734375l0.9375 0l0 0.53125zm3.8002625 -2.125q0 0.484375 -0.109375 0.890625q-0.09375 0.40625 -0.296875 0.703125q-0.1875 0.28125 -0.484375 0.4375q-0.296875 0.15625 -0.6875 0.15625q-0.34375 0 -0.625 -0.125q-0.28125 -0.140625 -0.484375 -0.40625q-0.1875 -0.265625 -0.296875 -0.671875q-0.109375 -0.421875 -0.109375 -0.984375q0 -0.484375 0.09375 -0.890625q0.109375 -0.40625 0.296875 -0.6875q0.203125 -0.28125 0.5 -0.4375q0.296875 -0.171875 0.6875 -0.171875q0.34375 0 0.625 0.140625q0.28125 0.125 0.46875 0.390625q0.203125 0.265625 0.3125 0.6875q0.109375 0.40625 0.109375 0.96875zm-0.578125 0.015625q0 -0.109375 -0.015625 -0.21875q0 -0.109375 0 -0.203125l-1.796875 1.328125q0.046875 0.171875 0.109375 0.3125q0.078125 0.140625 0.1875 0.25q0.109375 0.09375 0.234375 0.15625q0.140625 0.0625 0.3125 0.0625q0.21875 0 0.390625 -0.109375q0.1875 -0.109375 0.3125 -0.3125q0.140625 -0.21875 0.203125 -0.53125q0.0625 -0.3125 0.0625 -0.734375zm-1.9375 -0.03125q0 0.09375 0 0.203125q0 0.09375 0.015625 0.1875l1.796875 -1.328125q-0.046875 -0.15625 -0.125 -0.296875q-0.078125 -0.140625 -0.1875 -0.234375q-0.09375 -0.109375 -0.234375 -0.15625q-0.125 -0.0625 -0.296875 -0.0625q-0.21875 0 -0.40625 0.109375q-0.171875 0.109375 -0.296875 0.328125q-0.125 0.203125 -0.203125 0.53125q-0.0625 0.3125 -0.0625 0.71875zm3.5815125 2.8125q0.15625 0 0.3125 -0.046875q0.15625 -0.03125 0.265625 -0.09375q0.125 -0.0625 0.1875 -0.171875q0.078125 -0.109375 0.078125 -0.234375q0 -0.140625 -0.046875 -0.21875q-0.046875 -0.09375 -0.109375 -0.15625q-0.046875 -0.078125 -0.09375 -0.15625q-0.046875 -0.078125 -0.046875 -0.21875q0 -0.078125 0.015625 -0.140625q0.03125 -0.078125 0.078125 -0.140625q0.0625 -0.0625 0.140625 -0.09375q0.09375 -0.046875 0.203125 -0.046875q0.109375 0 0.21875 0.046875q0.109375 0.046875 0.1875 0.15625q0.078125 0.09375 0.125 0.234375q0.046875 0.140625 0.046875 0.34375q0 0.265625 -0.109375 0.515625q-0.09375 0.25 -0.296875 0.4375q-0.1875 0.203125 -0.484375 0.3125q-0.296875 0.109375 -0.671875 0.109375l0 -0.4375zm9.538025 -3.828125q0 0.53125 -0.296875 0.8125q-0.296875 0.265625 -0.84375 0.296875l-0.03125 0.796875l-0.484375 0l-0.046875 -1.234375l0.390625 0q0.1875 0 0.3125 -0.046875q0.140625 -0.046875 0.21875 -0.125q0.09375 -0.078125 0.125 -0.1875q0.03125 -0.109375 0.03125 -0.25q0 -0.234375 -0.09375 -0.421875q-0.09375 -0.1875 -0.265625 -0.3125q-0.171875 -0.125 -0.421875 -0.1875q-0.234375 -0.0625 -0.53125 -0.0625l-0.078125 0l0 -0.515625l0.09375 0q0.328125 0 0.59375 0.0625q0.265625 0.0625 0.484375 0.171875q0.21875 0.109375 0.375 0.25q0.15625 0.140625 0.25 0.296875q0.109375 0.15625 0.15625 0.328125q0.0625 0.171875 0.0625 0.328125zm-1.421875 2.359375q0.09375 0 0.171875 0.03125q0.078125 0.03125 0.125 0.09375q0.0625 0.0625 0.09375 0.140625q0.046875 0.078125 0.046875 0.15625q0 0.09375 -0.046875 0.171875q-0.03125 0.078125 -0.09375 0.140625q-0.046875 0.046875 -0.125 0.078125q-0.078125 0.046875 -0.171875 0.046875q-0.078125 0 -0.15625 -0.046875q-0.078125 -0.03125 -0.140625 -0.078125q-0.0625 -0.0625 -0.09375 -0.140625q-0.03125 -0.078125 -0.03125 -0.171875q0 -0.078125 0.03125 -0.15625q0.03125 -0.078125 0.09375 -0.140625q0.0625 -0.0625 0.140625 -0.09375q0.078125 -0.03125 0.15625 -0.03125zm2.8627625 1.46875q0.15625 0 0.3125 -0.046875q0.15625 -0.03125 0.265625 -0.09375q0.125 -0.0625 0.1875 -0.171875q0.078125 -0.109375 0.078125 -0.234375q0 -0.140625 -0.046875 -0.21875q-0.046875 -0.09375 -0.109375 -0.15625q-0.046875 -0.078125 -0.09375 -0.15625q-0.046875 -0.078125 -0.046875 -0.21875q0 -0.078125 0.015625 -0.140625q0.03125 -0.078125 0.078125 -0.140625q0.0625 -0.0625 0.140625 -0.09375q0.09375 -0.046875 0.203125 -0.046875q0.109375 0 0.21875 0.046875q0.109375 0.046875 0.1875 0.15625q0.078125 0.09375 0.125 0.234375q0.046875 0.140625 0.046875 0.34375q0 0.265625 -0.109375 0.515625q-0.09375 0.25 -0.296875 0.4375q-0.1875 0.203125 -0.484375 0.3125q-0.296875 0.109375 -0.671875 0.109375l0 -0.4375zm9.538025 -3.828125q0 0.53125 -0.296875 0.8125q-0.296875 0.265625 -0.84375 0.296875l-0.03125 0.796875l-0.484375 0l-0.046875 -1.234375l0.390625 0q0.1875 0 0.3125 -0.046875q0.140625 -0.046875 0.21875 -0.125q0.09375 -0.078125 0.125 -0.1875q0.03125 -0.109375 0.03125 -0.25q0 -0.234375 -0.09375 -0.421875q-0.09375 -0.1875 -0.265625 -0.3125q-0.171875 -0.125 -0.421875 -0.1875q-0.234375 -0.0625 -0.53125 -0.0625l-0.078125 0l0 -0.515625l0.09375 0q0.328125 0 0.59375 0.0625q0.265625 0.0625 0.484375 0.171875q0.21875 0.109375 0.375 0.25q0.15625 0.140625 0.25 0.296875q0.109375 0.15625 0.15625 0.328125q0.0625 0.171875 0.0625 0.328125zm-1.421875 2.359375q0.09375 0 0.171875 0.03125q0.078125 0.03125 0.125 0.09375q0.0625 0.0625 0.09375 0.140625q0.046875 0.078125 0.046875 0.15625q0 0.09375 -0.046875 0.171875q-0.03125 0.078125 -0.09375 0.140625q-0.046875 0.046875 -0.125 0.078125q-0.078125 0.046875 -0.171875 0.046875q-0.078125 0 -0.15625 -0.046875q-0.078125 -0.03125 -0.140625 -0.078125q-0.0625 -0.0625 -0.09375 -0.140625q-0.03125 -0.078125 -0.03125 -0.171875q0 -0.078125 0.03125 -0.15625q0.03125 -0.078125 0.09375 -0.140625q0.0625 -0.0625 0.140625 -0.09375q0.078125 -0.03125 0.15625 -0.03125zm4.6127625 2.125l-1.59375 0l0 -0.453125l1.0625 0l0 -5.125l-1.0625 0l0 -0.453125l1.59375 0l0 6.03125z" fill-rule="nonzero"/><path fill="#9fc5e8" d="m391.55905 55.937008l55.93701 0l0 55.937008l-55.93701 0z" fill-rule="evenodd"/><path stroke="#000000" stroke-width="1.0" stroke-linejoin="round" stroke-linecap="butt" d="m391.55905 55.937008l55.93701 0l0 55.937008l-55.93701 0z" fill-rule="evenodd"/><path fill="#000000" d="m414.66818 86.58551l-0.90625 0l-1.484375 -3.1875l-0.4375 -1.015625l0 2.5625l0 1.640625l-0.640625 0l0 -5.109375l0.890625 0l1.421875 3.015625l0.515625 1.171875l0 -2.734375l0 -1.453125l0.640625 0l0 5.109375zm4.4453125 -1.78125q0 0.421875 -0.125 0.765625q-0.125 0.34375 -0.359375 0.59375q-0.21875 0.234375 -0.5625 0.375q-0.328125 0.125 -0.765625 0.125q-0.46875 0 -0.8125 -0.125q-0.328125 -0.140625 -0.53125 -0.359375q-0.203125 -0.234375 -0.3125 -0.546875q-0.09375 -0.328125 -0.09375 -0.71875l0 -3.4375l0.703125 0l0 3.375q0 0.3125 0.046875 0.546875q0.0625 0.21875 0.1875 0.375q0.140625 0.140625 0.34375 0.21875q0.203125 0.078125 0.5 0.078125q0.546875 0 0.8125 -0.3125q0.265625 -0.328125 0.265625 -0.90625l0 -3.375l0.703125 0l0 3.328125zm4.2578125 1.78125l-2.9375 0l0 -5.109375l0.71875 0l0 4.515625l2.21875 0l0 0.59375zm4.3984375 0l-2.9375 0l0 -5.109375l0.71875 0l0 4.515625l2.21875 0l0 0.59375z" fill-rule="nonzero"/><path fill="#f3f3f3" d="m0 111.874016l55.937008 0l0 55.937004l-55.937008 0z" fill-rule="evenodd"/><path stroke="#000000" stroke-width="1.0" stroke-linejoin="round" stroke-linecap="butt" d="m0 111.874016l55.937008 0l0 55.937004l-55.937008 0z" fill-rule="evenodd"/><path fill="#f3f3f3" d="m55.937008 111.874016l55.937008 0l0 55.937004l-55.937008 0z" fill-rule="evenodd"/><path stroke="#000000" stroke-width="1.0" stroke-linejoin="round" stroke-linecap="butt" d="m55.937008 111.874016l55.937008 0l0 55.937004l-55.937008 0z" fill-rule="evenodd"/><path fill="#f3f3f3" d="m111.874016 111.874016l55.937004 0l0 55.937004l-55.937004 0z" fill-rule="evenodd"/><path stroke="#000000" stroke-width="1.0" stroke-linejoin="round" stroke-linecap="butt" d="m111.874016 111.874016l55.937004 0l0 55.937004l-55.937004 0z" fill-rule="evenodd"/><path fill="#f3f3f3" d="m167.81102 111.874016l55.93701 0l0 55.937004l-55.93701 0z" fill-rule="evenodd"/><path stroke="#000000" stroke-width="1.0" stroke-linejoin="round" stroke-linecap="butt" d="m167.81102 111.874016l55.93701 0l0 55.937004l-55.93701 0z" fill-rule="evenodd"/><path fill="#f3f3f3" d="m223.74803 111.874016l55.936996 0l0 55.937004l-55.936996 0z" fill-rule="evenodd"/><path stroke="#000000" stroke-width="1.0" stroke-linejoin="round" stroke-linecap="butt" d="m223.74803 111.874016l55.936996 0l0 55.937004l-55.936996 0z" fill-rule="evenodd"/><path fill="#f3f3f3" d="m279.68503 111.874016l55.93701 0l0 55.937004l-55.93701 0z" fill-rule="evenodd"/><path stroke="#000000" stroke-width="1.0" stroke-linejoin="round" stroke-linecap="butt" d="m279.68503 111.874016l55.93701 0l0 55.937004l-55.93701 0z" fill-rule="evenodd"/><path fill="#f3f3f3" d="m335.62204 111.874016l55.93701 0l0 55.937004l-55.93701 0z" fill-rule="evenodd"/><path stroke="#000000" stroke-width="1.0" stroke-linejoin="round" stroke-linecap="butt" d="m335.62204 111.874016l55.93701 0l0 55.937004l-55.93701 0z" fill-rule="evenodd"/><path fill="#f3f3f3" d="m391.55905 111.874016l55.93701 0l0 55.937004l-55.93701 0z" fill-rule="evenodd"/><path stroke="#000000" stroke-width="1.0" stroke-linejoin="round" stroke-linecap="butt" d="m391.55905 111.874016l55.93701 0l0 55.937004l-55.93701 0z" fill-rule="evenodd"/><path fill="#000000" fill-opacity="0.0" d="m84.20473 29.690289l34.803146 0" fill-rule="evenodd"/><path stroke="#000000" stroke-width="1.0" stroke-linejoin="round" stroke-linecap="butt" d="m84.20473 29.690289l28.803146 0" fill-rule="evenodd"/><path fill="#000000" stroke="#000000" stroke-width="1.0" stroke-linecap="butt" d="m113.00787 31.342022l4.538101 -1.6517334l-4.538101 -1.6517315z" fill-rule="evenodd"/><path fill="#000000" fill-opacity="0.0" d="m195.4147 29.564304l34.803146 0" fill-rule="evenodd"/><path stroke="#000000" stroke-width="1.0" stroke-linejoin="round" stroke-linecap="butt" d="m195.4147 29.564304l28.803146 0" fill-rule="evenodd"/><path fill="#000000" stroke="#000000" stroke-width="1.0" stroke-linecap="butt" d="m224.21785 31.216038l4.538101 -1.6517334l-4.538101 -1.6517315z" fill-rule="evenodd"/><path fill="#000000" fill-opacity="0.0" d="m308.15747 29.698162l34.80316 0" fill-rule="evenodd"/><path stroke="#000000" stroke-width="1.0" stroke-linejoin="round" stroke-linecap="butt" d="m308.15747 29.698162l28.803162 0" fill-rule="evenodd"/><path fill="#000000" stroke="#000000" stroke-width="1.0" stroke-linecap="butt" d="m336.96063 31.349895l4.538086 -1.6517334l-4.538086 -1.6517315z" fill-rule="evenodd"/><path fill="#000000" fill-opacity="0.0" d="m418.97113 30.199474l-46.582672 40.692913" fill-rule="evenodd"/><path stroke="#000000" stroke-width="1.0" stroke-linejoin="round" stroke-linecap="butt" d="m418.97113 30.199474l-42.064026 36.745564" fill-rule="evenodd"/><path fill="#000000" stroke="#000000" stroke-width="1.0" stroke-linecap="butt" d="m375.82047 65.701096l-2.3310242 4.2295227l4.5043335 -1.7416382z" fill-rule="evenodd"/><path fill="#000000" fill-opacity="0.0" d="m114.59843 32.902885l50.488182 0l0 24.31496l-50.488182 0z" fill-rule="evenodd"/><path fill="#073763" d="m127.31778 46.28476l0.90625 0l1.125 3.03125l0.234375 0.734375l0.25 -0.75l1.109375 -3.015625l0.875 0l-1.796875 4.578125l-0.90625 0l-1.796875 -4.578125zm8.503647 4.578125l-0.03125 -0.609375q-0.359375 0.359375 -0.75 0.53125q-0.390625 0.15625 -0.8125 0.15625q-0.390625 0 -0.671875 -0.09375q-0.265625 -0.109375 -0.453125 -0.28125q-0.171875 -0.171875 -0.265625 -0.40625q-0.078125 -0.234375 -0.078125 -0.515625q0 -0.6875 0.5 -1.078125q0.515625 -0.390625 1.515625 -0.390625l0.953125 0l0 -0.40625q0 -0.40625 -0.265625 -0.640625q-0.25 -0.25 -0.78125 -0.25q-0.390625 0 -0.765625 0.09375q-0.375 0.078125 -0.78125 0.25l0 -0.71875q0.15625 -0.0625 0.328125 -0.109375q0.1875 -0.046875 0.390625 -0.09375q0.21875 -0.046875 0.4375 -0.0625q0.21875 -0.03125 0.453125 -0.03125q0.40625 0 0.734375 0.09375q0.34375 0.09375 0.5625 0.28125q0.234375 0.1875 0.359375 0.46875q0.125 0.28125 0.125 0.65625l0 3.15625l-0.703125 0zm-0.09375 -2.078125l-1.0 0q-0.296875 0 -0.515625 0.0625q-0.21875 0.046875 -0.359375 0.15625q-0.125 0.109375 -0.203125 0.265625q-0.0625 0.15625 -0.0625 0.34375q0 0.140625 0.046875 0.265625q0.046875 0.109375 0.125 0.203125q0.09375 0.09375 0.234375 0.15625q0.15625 0.046875 0.359375 0.046875q0.28125 0 0.625 -0.15625q0.359375 -0.171875 0.75 -0.53125l0 -0.8125zm3.8317719 -3.703125l-1.34375 0l0 -0.65625l2.15625 0l0 5.78125l1.359375 0l0 0.65625l-3.671875 0l0 -0.65625l1.5 0l0 -5.125zm7.253647 5.78125l-0.71875 0l-0.015625 -0.734375q-0.203125 0.234375 -0.390625 0.390625q-0.1875 0.15625 -0.375 0.25q-0.171875 0.09375 -0.359375 0.125q-0.1875 0.046875 -0.390625 0.046875q-0.703125 0 -1.0625 -0.40625q-0.359375 -0.421875 -0.359375 -1.25l0 -3.0l0.78125 0l0 2.921875q0 1.0625 0.796875 1.0625q0.140625 0 0.28125 -0.046875q0.140625 -0.046875 0.296875 -0.140625q0.15625 -0.109375 0.328125 -0.296875q0.171875 -0.1875 0.390625 -0.46875l0 -3.03125l0.796875 0l0 4.578125zm5.316147 -2.53125q0 0.171875 -0.015625 0.296875q0 0.109375 0 0.203125l-3.21875 0q0 0.703125 0.390625 1.078125q0.390625 0.375 1.140625 0.375q0.1875 0 0.390625 -0.015625q0.203125 -0.015625 0.390625 -0.046875q0.1875 -0.03125 0.359375 -0.0625q0.171875 -0.03125 0.3125 -0.078125l0 0.65625q-0.328125 0.09375 -0.734375 0.140625q-0.40625 0.0625 -0.84375 0.0625q-0.578125 0 -1.015625 -0.15625q-0.421875 -0.15625 -0.6875 -0.453125q-0.265625 -0.3125 -0.40625 -0.75q-0.125 -0.4375 -0.125 -1.0q0 -0.484375 0.140625 -0.90625q0.140625 -0.4375 0.40625 -0.75q0.265625 -0.328125 0.65625 -0.515625q0.390625 -0.203125 0.875 -0.203125q0.484375 0 0.84375 0.15625q0.375 0.140625 0.625 0.421875q0.25 0.28125 0.375 0.671875q0.140625 0.390625 0.140625 0.875zm-0.828125 -0.109375q0.015625 -0.3125 -0.0625 -0.5625q-0.0625 -0.25 -0.21875 -0.421875q-0.15625 -0.1875 -0.390625 -0.28125q-0.21875 -0.109375 -0.515625 -0.109375q-0.265625 0 -0.484375 0.09375q-0.203125 0.09375 -0.359375 0.28125q-0.15625 0.1875 -0.25 0.4375q-0.09375 0.25 -0.125 0.5625l2.40625 0z" fill-rule="nonzero"/><path fill="#000000" fill-opacity="0.0" d="m170.53543 32.902885l50.48819 0l0 24.31496l-50.48819 0z" fill-rule="evenodd"/><path fill="#073763" d="m186.2566 46.28476l0.703125 0l0.03125 0.75q0.203125 -0.25 0.390625 -0.40625q0.1875 -0.15625 0.359375 -0.25q0.1875 -0.09375 0.375 -0.125q0.1875 -0.046875 0.375 -0.046875q0.71875 0 1.078125 0.421875q0.359375 0.40625 0.359375 1.25l0 2.984375l-0.796875 0l0 -2.921875q0 -0.53125 -0.203125 -0.78125q-0.1875 -0.265625 -0.59375 -0.265625q-0.140625 0 -0.28125 0.046875q-0.140625 0.03125 -0.296875 0.140625q-0.140625 0.109375 -0.328125 0.296875q-0.171875 0.171875 -0.390625 0.453125l0 3.03125l-0.78125 0l0 -4.578125zm8.988022 2.046875q0 0.171875 -0.015625 0.296875q0 0.109375 0 0.203125l-3.21875 0q0 0.703125 0.390625 1.078125q0.390625 0.375 1.140625 0.375q0.1875 0 0.390625 -0.015625q0.203125 -0.015625 0.390625 -0.046875q0.1875 -0.03125 0.359375 -0.0625q0.171875 -0.03125 0.3125 -0.078125l0 0.65625q-0.328125 0.09375 -0.734375 0.140625q-0.40625 0.0625 -0.84375 0.0625q-0.578125 0 -1.015625 -0.15625q-0.421875 -0.15625 -0.6875 -0.453125q-0.265625 -0.3125 -0.40625 -0.75q-0.125 -0.4375 -0.125 -1.0q0 -0.484375 0.140625 -0.90625q0.140625 -0.4375 0.40625 -0.75q0.265625 -0.328125 0.65625 -0.515625q0.390625 -0.203125 0.875 -0.203125q0.484375 0 0.84375 0.15625q0.375 0.140625 0.625 0.421875q0.25 0.28125 0.375 0.671875q0.140625 0.390625 0.140625 0.875zm-0.828125 -0.109375q0.015625 -0.3125 -0.0625 -0.5625q-0.0625 -0.25 -0.21875 -0.421875q-0.15625 -0.1875 -0.390625 -0.28125q-0.21875 -0.109375 -0.515625 -0.109375q-0.265625 0 -0.484375 0.09375q-0.203125 0.09375 -0.359375 0.28125q-0.15625 0.1875 -0.25 0.4375q-0.09375 0.25 -0.125 0.5625l2.40625 0zm6.206772 2.640625l-1.046875 0l-1.234375 -1.75l-1.21875 1.75l-1.03125 0l1.78125 -2.296875l-1.6875 -2.28125l1.015625 0l1.203125 1.765625l1.171875 -1.765625l0.984375 0l-1.71875 2.296875l1.78125 2.28125zm4.691147 -0.0625q-0.265625 0.0625 -0.546875 0.09375q-0.28125 0.03125 -0.578125 0.03125q-0.875 0 -1.296875 -0.390625q-0.421875 -0.390625 -0.421875 -1.1875l0 -2.390625l-1.28125 0l0 -0.671875l1.28125 0l0 -1.25l0.796875 -0.203125l0 1.453125l2.046875 0l0 0.671875l-2.046875 0l0 2.328125q0 0.484375 0.265625 0.734375q0.265625 0.234375 0.765625 0.234375q0.21875 0 0.46875 -0.03125q0.265625 -0.03125 0.546875 -0.109375l0 0.6875z" fill-rule="nonzero"/><path fill="#000000" fill-opacity="0.0" d="m226.47244 32.902885l50.48819 0l0 24.31496l-50.48819 0z" fill-rule="evenodd"/><path fill="#073763" d="m239.19179 46.28476l0.90625 0l1.125 3.03125l0.234375 0.734375l0.25 -0.75l1.109375 -3.015625l0.875 0l-1.796875 4.578125l-0.90625 0l-1.796875 -4.578125zm8.503647 4.578125l-0.03125 -0.609375q-0.359375 0.359375 -0.75 0.53125q-0.390625 0.15625 -0.8125 0.15625q-0.390625 0 -0.671875 -0.09375q-0.265625 -0.109375 -0.453125 -0.28125q-0.171875 -0.171875 -0.265625 -0.40625q-0.078125 -0.234375 -0.078125 -0.515625q0 -0.6875 0.5 -1.078125q0.515625 -0.390625 1.515625 -0.390625l0.953125 0l0 -0.40625q0 -0.40625 -0.265625 -0.640625q-0.25 -0.25 -0.78125 -0.25q-0.390625 0 -0.765625 0.09375q-0.375 0.078125 -0.78125 0.25l0 -0.71875q0.15625 -0.0625 0.328125 -0.109375q0.1875 -0.046875 0.390625 -0.09375q0.21875 -0.046875 0.4375 -0.0625q0.21875 -0.03125 0.453125 -0.03125q0.40625 0 0.734375 0.09375q0.34375 0.09375 0.5625 0.28125q0.234375 0.1875 0.359375 0.46875q0.125 0.28125 0.125 0.65625l0 3.15625l-0.703125 0zm-0.09375 -2.078125l-1.0 0q-0.296875 0 -0.515625 0.0625q-0.21875 0.046875 -0.359375 0.15625q-0.125 0.109375 -0.203125 0.265625q-0.0625 0.15625 -0.0625 0.34375q0 0.140625 0.046875 0.265625q0.046875 0.109375 0.125 0.203125q0.09375 0.09375 0.234375 0.15625q0.15625 0.046875 0.359375 0.046875q0.28125 0 0.625 -0.15625q0.359375 -0.171875 0.75 -0.53125l0 -0.8125zm3.8317719 -3.703125l-1.34375 0l0 -0.65625l2.15625 0l0 5.78125l1.359375 0l0 0.65625l-3.671875 0l0 -0.65625l1.5 0l0 -5.125zm7.253647 5.78125l-0.71875 0l-0.015625 -0.734375q-0.203125 0.234375 -0.390625 0.390625q-0.1875 0.15625 -0.375 0.25q-0.171875 0.09375 -0.359375 0.125q-0.1875 0.046875 -0.390625 0.046875q-0.703125 0 -1.0625 -0.40625q-0.359375 -0.421875 -0.359375 -1.25l0 -3.0l0.78125 0l0 2.921875q0 1.0625 0.796875 1.0625q0.140625 0 0.28125 -0.046875q0.140625 -0.046875 0.296875 -0.140625q0.15625 -0.109375 0.328125 -0.296875q0.171875 -0.1875 0.390625 -0.46875l0 -3.03125l0.796875 0l0 4.578125zm5.316162 -2.53125q0 0.171875 -0.015625 0.296875q0 0.109375 0 0.203125l-3.21875 0q0 0.703125 0.390625 1.078125q0.390625 0.375 1.140625 0.375q0.1875 0 0.390625 -0.015625q0.203125 -0.015625 0.390625 -0.046875q0.1875 -0.03125 0.359375 -0.0625q0.171875 -0.03125 0.3125 -0.078125l0 0.65625q-0.328125 0.09375 -0.734375 0.140625q-0.40625 0.0625 -0.84375 0.0625q-0.578125 0 -1.015625 -0.15625q-0.421875 -0.15625 -0.6875 -0.453125q-0.265625 -0.3125 -0.40625 -0.75q-0.125 -0.4375 -0.125 -1.0q0 -0.484375 0.140625 -0.90625q0.140625 -0.4375 0.40625 -0.75q0.265625 -0.328125 0.65625 -0.515625q0.390625 -0.203125 0.875 -0.203125q0.484375 0 0.84375 0.15625q0.375 0.140625 0.625 0.421875q0.25 0.28125 0.375 0.671875q0.140625 0.390625 0.140625 0.875zm-0.828125 -0.109375q0.015625 -0.3125 -0.0625 -0.5625q-0.0625 -0.25 -0.21875 -0.421875q-0.15625 -0.1875 -0.390625 -0.28125q-0.21875 -0.109375 -0.515625 -0.109375q-0.265625 0 -0.484375 0.09375q-0.203125 0.09375 -0.359375 0.28125q-0.15625 0.1875 -0.25 0.4375q-0.09375 0.25 -0.125 0.5625l2.40625 0z" fill-rule="nonzero"/><path fill="#000000" fill-opacity="0.0" d="m282.40945 32.902885l50.48819 0l0 24.31496l-50.48819 0z" fill-rule="evenodd"/><path fill="#073763" d="m298.1306 46.28476l0.703125 0l0.03125 0.75q0.203125 -0.25 0.390625 -0.40625q0.1875 -0.15625 0.359375 -0.25q0.1875 -0.09375 0.375 -0.125q0.1875 -0.046875 0.375 -0.046875q0.71875 0 1.078125 0.421875q0.359375 0.40625 0.359375 1.25l0 2.984375l-0.796875 0l0 -2.921875q0 -0.53125 -0.203125 -0.78125q-0.1875 -0.265625 -0.59375 -0.265625q-0.140625 0 -0.28125 0.046875q-0.140625 0.03125 -0.296875 0.140625q-0.140625 0.109375 -0.328125 0.296875q-0.171875 0.171875 -0.390625 0.453125l0 3.03125l-0.78125 0l0 -4.578125zm8.988037 2.046875q0 0.171875 -0.015625 0.296875q0 0.109375 0 0.203125l-3.21875 0q0 0.703125 0.390625 1.078125q0.390625 0.375 1.140625 0.375q0.1875 0 0.390625 -0.015625q0.203125 -0.015625 0.390625 -0.046875q0.1875 -0.03125 0.359375 -0.0625q0.171875 -0.03125 0.3125 -0.078125l0 0.65625q-0.328125 0.09375 -0.734375 0.140625q-0.40625 0.0625 -0.84375 0.0625q-0.578125 0 -1.015625 -0.15625q-0.421875 -0.15625 -0.6875 -0.453125q-0.265625 -0.3125 -0.40625 -0.75q-0.125 -0.4375 -0.125 -1.0q0 -0.484375 0.140625 -0.90625q0.140625 -0.4375 0.40625 -0.75q0.265625 -0.328125 0.65625 -0.515625q0.390625 -0.203125 0.875 -0.203125q0.484375 0 0.84375 0.15625q0.375 0.140625 0.625 0.421875q0.25 0.28125 0.375 0.671875q0.140625 0.390625 0.140625 0.875zm-0.828125 -0.109375q0.015625 -0.3125 -0.0625 -0.5625q-0.0625 -0.25 -0.21875 -0.421875q-0.15625 -0.1875 -0.390625 -0.28125q-0.21875 -0.109375 -0.515625 -0.109375q-0.265625 0 -0.484375 0.09375q-0.203125 0.09375 -0.359375 0.28125q-0.15625 0.1875 -0.25 0.4375q-0.09375 0.25 -0.125 0.5625l2.40625 0zm6.2067566 2.640625l-1.046875 0l-1.234375 -1.75l-1.21875 1.75l-1.03125 0l1.78125 -2.296875l-1.6875 -2.28125l1.015625 0l1.203125 1.765625l1.171875 -1.765625l0.984375 0l-1.71875 2.296875l1.78125 2.28125zm4.691162 -0.0625q-0.265625 0.0625 -0.546875 0.09375q-0.28125 0.03125 -0.578125 0.03125q-0.875 0 -1.296875 -0.390625q-0.421875 -0.390625 -0.421875 -1.1875l0 -2.390625l-1.28125 0l0 -0.671875l1.28125 0l0 -1.25l0.796875 -0.203125l0 1.453125l2.046875 0l0 0.671875l-2.046875 0l0 2.328125q0 0.484375 0.265625 0.734375q0.265625 0.234375 0.765625 0.234375q0.21875 0 0.46875 -0.03125q0.265625 -0.03125 0.546875 -0.109375l0 0.6875z" fill-rule="nonzero"/><path fill="#000000" fill-opacity="0.0" d="m338.34647 32.902885l50.48819 0l0 24.31496l-50.48819 0z" fill-rule="evenodd"/><path fill="#073763" d="m351.0658 46.28476l0.90625 0l1.125 3.03125l0.234375 0.734375l0.25 -0.75l1.109375 -3.015625l0.875 0l-1.796875 4.578125l-0.90625 0l-1.796875 -4.578125zm8.503662 4.578125l-0.03125 -0.609375q-0.359375 0.359375 -0.75 0.53125q-0.390625 0.15625 -0.8125 0.15625q-0.390625 0 -0.671875 -0.09375q-0.265625 -0.109375 -0.453125 -0.28125q-0.171875 -0.171875 -0.265625 -0.40625q-0.078125 -0.234375 -0.078125 -0.515625q0 -0.6875 0.5 -1.078125q0.515625 -0.390625 1.515625 -0.390625l0.953125 0l0 -0.40625q0 -0.40625 -0.265625 -0.640625q-0.25 -0.25 -0.78125 -0.25q-0.390625 0 -0.765625 0.09375q-0.375 0.078125 -0.78125 0.25l0 -0.71875q0.15625 -0.0625 0.328125 -0.109375q0.1875 -0.046875 0.390625 -0.09375q0.21875 -0.046875 0.4375 -0.0625q0.21875 -0.03125 0.453125 -0.03125q0.40625 0 0.734375 0.09375q0.34375 0.09375 0.5625 0.28125q0.234375 0.1875 0.359375 0.46875q0.125 0.28125 0.125 0.65625l0 3.15625l-0.703125 0zm-0.09375 -2.078125l-1.0 0q-0.296875 0 -0.515625 0.0625q-0.21875 0.046875 -0.359375 0.15625q-0.125 0.109375 -0.203125 0.265625q-0.0625 0.15625 -0.0625 0.34375q0 0.140625 0.046875 0.265625q0.046875 0.109375 0.125 0.203125q0.09375 0.09375 0.234375 0.15625q0.15625 0.046875 0.359375 0.046875q0.28125 0 0.625 -0.15625q0.359375 -0.171875 0.75 -0.53125l0 -0.8125zm3.8317566 -3.703125l-1.34375 0l0 -0.65625l2.15625 0l0 5.78125l1.359375 0l0 0.65625l-3.671875 0l0 -0.65625l1.5 0l0 -5.125zm7.253662 5.78125l-0.71875 0l-0.015625 -0.734375q-0.203125 0.234375 -0.390625 0.390625q-0.1875 0.15625 -0.375 0.25q-0.171875 0.09375 -0.359375 0.125q-0.1875 0.046875 -0.390625 0.046875q-0.703125 0 -1.0625 -0.40625q-0.359375 -0.421875 -0.359375 -1.25l0 -3.0l0.78125 0l0 2.921875q0 1.0625 0.796875 1.0625q0.140625 0 0.28125 -0.046875q0.140625 -0.046875 0.296875 -0.140625q0.15625 -0.109375 0.328125 -0.296875q0.171875 -0.1875 0.390625 -0.46875l0 -3.03125l0.796875 0l0 4.578125zm5.3161316 -2.53125q0 0.171875 -0.015625 0.296875q0 0.109375 0 0.203125l-3.21875 0q0 0.703125 0.390625 1.078125q0.390625 0.375 1.140625 0.375q0.1875 0 0.390625 -0.015625q0.203125 -0.015625 0.390625 -0.046875q0.1875 -0.03125 0.359375 -0.0625q0.171875 -0.03125 0.3125 -0.078125l0 0.65625q-0.328125 0.09375 -0.734375 0.140625q-0.40625 0.0625 -0.84375 0.0625q-0.578125 0 -1.015625 -0.15625q-0.421875 -0.15625 -0.6875 -0.453125q-0.265625 -0.3125 -0.40625 -0.75q-0.125 -0.4375 -0.125 -1.0q0 -0.484375 0.140625 -0.90625q0.140625 -0.4375 0.40625 -0.75q0.265625 -0.328125 0.65625 -0.515625q0.390625 -0.203125 0.875 -0.203125q0.484375 0 0.84375 0.15625q0.375 0.140625 0.625 0.421875q0.25 0.28125 0.375 0.671875q0.140625 0.390625 0.140625 0.875zm-0.828125 -0.109375q0.015625 -0.3125 -0.0625 -0.5625q-0.0625 -0.25 -0.21875 -0.421875q-0.15625 -0.1875 -0.390625 -0.28125q-0.21875 -0.109375 -0.515625 -0.109375q-0.265625 0 -0.484375 0.09375q-0.203125 0.09375 -0.359375 0.28125q-0.15625 0.1875 -0.25 0.4375q-0.09375 0.25 -0.125 0.5625l2.40625 0z" fill-rule="nonzero"/><path fill="#000000" fill-opacity="0.0" d="m394.28348 32.902885l50.48819 0l0 24.31496l-50.48819 0z" fill-rule="evenodd"/><path fill="#073763" d="m410.00464 46.28476l0.703125 0l0.03125 0.75q0.203125 -0.25 0.390625 -0.40625q0.1875 -0.15625 0.359375 -0.25q0.1875 -0.09375 0.375 -0.125q0.1875 -0.046875 0.375 -0.046875q0.71875 0 1.078125 0.421875q0.359375 0.40625 0.359375 1.25l0 2.984375l-0.796875 0l0 -2.921875q0 -0.53125 -0.203125 -0.78125q-0.1875 -0.265625 -0.59375 -0.265625q-0.140625 0 -0.28125 0.046875q-0.140625 0.03125 -0.296875 0.140625q-0.140625 0.109375 -0.328125 0.296875q-0.171875 0.171875 -0.390625 0.453125l0 3.03125l-0.78125 0l0 -4.578125zm8.988037 2.046875q0 0.171875 -0.015625 0.296875q0 0.109375 0 0.203125l-3.21875 0q0 0.703125 0.390625 1.078125q0.390625 0.375 1.140625 0.375q0.1875 0 0.390625 -0.015625q0.203125 -0.015625 0.390625 -0.046875q0.1875 -0.03125 0.359375 -0.0625q0.171875 -0.03125 0.3125 -0.078125l0 0.65625q-0.328125 0.09375 -0.734375 0.140625q-0.40625 0.0625 -0.84375 0.0625q-0.578125 0 -1.015625 -0.15625q-0.421875 -0.15625 -0.6875 -0.453125q-0.265625 -0.3125 -0.40625 -0.75q-0.125 -0.4375 -0.125 -1.0q0 -0.484375 0.140625 -0.90625q0.140625 -0.4375 0.40625 -0.75q0.265625 -0.328125 0.65625 -0.515625q0.390625 -0.203125 0.875 -0.203125q0.484375 0 0.84375 0.15625q0.375 0.140625 0.625 0.421875q0.25 0.28125 0.375 0.671875q0.140625 0.390625 0.140625 0.875zm-0.828125 -0.109375q0.015625 -0.3125 -0.0625 -0.5625q-0.0625 -0.25 -0.21875 -0.421875q-0.15625 -0.1875 -0.390625 -0.28125q-0.21875 -0.109375 -0.515625 -0.109375q-0.265625 0 -0.484375 0.09375q-0.203125 0.09375 -0.359375 0.28125q-0.15625 0.1875 -0.25 0.4375q-0.09375 0.25 -0.125 0.5625l2.40625 0zm6.2067566 2.640625l-1.046875 0l-1.234375 -1.75l-1.21875 1.75l-1.03125 0l1.78125 -2.296875l-1.6875 -2.28125l1.015625 0l1.203125 1.765625l1.171875 -1.765625l0.984375 0l-1.71875 2.296875l1.78125 2.28125zm4.691162 -0.0625q-0.265625 0.0625 -0.546875 0.09375q-0.28125 0.03125 -0.578125 0.03125q-0.875 0 -1.296875 -0.390625q-0.421875 -0.390625 -0.421875 -1.1875l0 -2.390625l-1.28125 0l0 -0.671875l1.28125 0l0 -1.25l0.796875 -0.203125l0 1.453125l2.046875 0l0 0.671875l-2.046875 0l0 2.328125q0 0.484375 0.265625 0.734375q0.265625 0.234375 0.765625 0.234375q0.21875 0 0.46875 -0.03125q0.265625 -0.03125 0.546875 -0.109375l0 0.6875z" fill-rule="nonzero"/><path fill="#000000" fill-opacity="0.0" d="m338.34647 87.55905l50.48819 0l0 24.314964l-50.48819 0z" fill-rule="evenodd"/><path fill="#073763" d="m351.0658 100.940926l0.90625 0l1.125 3.03125l0.234375 0.734375l0.25 -0.75l1.109375 -3.015625l0.875 0l-1.796875 4.578125l-0.90625 0l-1.796875 -4.578125zm8.503662 4.578125l-0.03125 -0.609375q-0.359375 0.359375 -0.75 0.53125q-0.390625 0.15625 -0.8125 0.15625q-0.390625 0 -0.671875 -0.09375q-0.265625 -0.109375 -0.453125 -0.28125q-0.171875 -0.171875 -0.265625 -0.40625q-0.078125 -0.234375 -0.078125 -0.515625q0 -0.6875 0.5 -1.078125q0.515625 -0.390625 1.515625 -0.390625l0.953125 0l0 -0.40625q0 -0.40625 -0.265625 -0.640625q-0.25 -0.25 -0.78125 -0.25q-0.390625 0 -0.765625 0.09375q-0.375 0.078125 -0.78125 0.25l0 -0.71875q0.15625 -0.0625 0.328125 -0.109375q0.1875 -0.046875 0.390625 -0.09375q0.21875 -0.046875 0.4375 -0.0625q0.21875 -0.03125 0.453125 -0.03125q0.40625 0 0.734375 0.09375q0.34375 0.09375 0.5625 0.28125q0.234375 0.1875 0.359375 0.46875q0.125 0.28125 0.125 0.65625l0 3.15625l-0.703125 0zm-0.09375 -2.078125l-1.0 0q-0.296875 0 -0.515625 0.0625q-0.21875 0.046875 -0.359375 0.15625q-0.125 0.109375 -0.203125 0.265625q-0.0625 0.15625 -0.0625 0.34375q0 0.140625 0.046875 0.265625q0.046875 0.109375 0.125 0.203125q0.09375 0.09375 0.234375 0.15625q0.15625 0.046875 0.359375 0.046875q0.28125 0 0.625 -0.15625q0.359375 -0.171875 0.75 -0.53125l0 -0.8125zm3.8317566 -3.703125l-1.34375 0l0 -0.65625l2.15625 0l0 5.78125l1.359375 0l0 0.65625l-3.671875 0l0 -0.65625l1.5 0l0 -5.125zm7.253662 5.78125l-0.71875 0l-0.015625 -0.734375q-0.203125 0.234375 -0.390625 0.390625q-0.1875 0.15625 -0.375 0.25q-0.171875 0.09375 -0.359375 0.125q-0.1875 0.046875 -0.390625 0.046875q-0.703125 0 -1.0625 -0.40625q-0.359375 -0.421875 -0.359375 -1.25l0 -3.0l0.78125 0l0 2.921875q0 1.0625 0.796875 1.0625q0.140625 0 0.28125 -0.046875q0.140625 -0.046875 0.296875 -0.140625q0.15625 -0.109375 0.328125 -0.296875q0.171875 -0.1875 0.390625 -0.46875l0 -3.03125l0.796875 0l0 4.578125zm5.3161316 -2.53125q0 0.171875 -0.015625 0.296875q0 0.109375 0 0.203125l-3.21875 0q0 0.703125 0.390625 1.078125q0.390625 0.375 1.140625 0.375q0.1875 0 0.390625 -0.015625q0.203125 -0.015625 0.390625 -0.046875q0.1875 -0.03125 0.359375 -0.0625q0.171875 -0.03125 0.3125 -0.078125l0 0.65625q-0.328125 0.09375 -0.734375 0.140625q-0.40625 0.0625 -0.84375 0.0625q-0.578125 0 -1.015625 -0.15625q-0.421875 -0.15625 -0.6875 -0.453125q-0.265625 -0.3125 -0.40625 -0.75q-0.125 -0.4375 -0.125 -1.0q0 -0.484375 0.140625 -0.90625q0.140625 -0.4375 0.40625 -0.75q0.265625 -0.328125 0.65625 -0.515625q0.390625 -0.203125 0.875 -0.203125q0.484375 0 0.84375 0.15625q0.375 0.140625 0.625 0.421875q0.25 0.28125 0.375 0.671875q0.140625 0.390625 0.140625 0.875zm-0.828125 -0.109375q0.015625 -0.3125 -0.0625 -0.5625q-0.0625 -0.25 -0.21875 -0.421875q-0.15625 -0.1875 -0.390625 -0.28125q-0.21875 -0.109375 -0.515625 -0.109375q-0.265625 0 -0.484375 0.09375q-0.203125 0.09375 -0.359375 0.28125q-0.15625 0.1875 -0.25 0.4375q-0.09375 0.25 -0.125 0.5625l2.40625 0z" fill-rule="nonzero"/><path fill="#000000" fill-opacity="0.0" d="m394.28348 87.55905l50.48819 0l0 24.314964l-50.48819 0z" fill-rule="evenodd"/><path fill="#073763" d="m410.00464 100.940926l0.703125 0l0.03125 0.75q0.203125 -0.25 0.390625 -0.40625q0.1875 -0.15625 0.359375 -0.25q0.1875 -0.09375 0.375 -0.125q0.1875 -0.046875 0.375 -0.046875q0.71875 0 1.078125 0.421875q0.359375 0.40625 0.359375 1.25l0 2.984375l-0.796875 0l0 -2.921875q0 -0.53125 -0.203125 -0.78125q-0.1875 -0.265625 -0.59375 -0.265625q-0.140625 0 -0.28125 0.046875q-0.140625 0.03125 -0.296875 0.140625q-0.140625 0.109375 -0.328125 0.296875q-0.171875 0.171875 -0.390625 0.453125l0 3.03125l-0.78125 0l0 -4.578125zm8.988037 2.046875q0 0.171875 -0.015625 0.296875q0 0.109375 0 0.203125l-3.21875 0q0 0.703125 0.390625 1.078125q0.390625 0.375 1.140625 0.375q0.1875 0 0.390625 -0.015625q0.203125 -0.015625 0.390625 -0.046875q0.1875 -0.03125 0.359375 -0.0625q0.171875 -0.03125 0.3125 -0.078125l0 0.65625q-0.328125 0.09375 -0.734375 0.140625q-0.40625 0.0625 -0.84375 0.0625q-0.578125 0 -1.015625 -0.15625q-0.421875 -0.15625 -0.6875 -0.453125q-0.265625 -0.3125 -0.40625 -0.75q-0.125 -0.4375 -0.125 -1.0q0 -0.484375 0.140625 -0.90625q0.140625 -0.4375 0.40625 -0.75q0.265625 -0.328125 0.65625 -0.515625q0.390625 -0.203125 0.875 -0.203125q0.484375 0 0.84375 0.15625q0.375 0.140625 0.625 0.421875q0.25 0.28125 0.375 0.671875q0.140625 0.390625 0.140625 0.875zm-0.828125 -0.109375q0.015625 -0.3125 -0.0625 -0.5625q-0.0625 -0.25 -0.21875 -0.421875q-0.15625 -0.1875 -0.390625 -0.28125q-0.21875 -0.109375 -0.515625 -0.109375q-0.265625 0 -0.484375 0.09375q-0.203125 0.09375 -0.359375 0.28125q-0.15625 0.1875 -0.25 0.4375q-0.09375 0.25 -0.125 0.5625l2.40625 0zm6.2067566 2.640625l-1.046875 0l-1.234375 -1.75l-1.21875 1.75l-1.03125 0l1.78125 -2.296875l-1.6875 -2.28125l1.015625 0l1.203125 1.765625l1.171875 -1.765625l0.984375 0l-1.71875 2.296875l1.78125 2.28125zm4.691162 -0.0625q-0.265625 0.0625 -0.546875 0.09375q-0.28125 0.03125 -0.578125 0.03125q-0.875 0 -1.296875 -0.390625q-0.421875 -0.390625 -0.421875 -1.1875l0 -2.390625l-1.28125 0l0 -0.671875l1.28125 0l0 -1.25l0.796875 -0.203125l0 1.453125l2.046875 0l0 0.671875l-2.046875 0l0 2.328125q0 0.484375 0.265625 0.734375q0.265625 0.234375 0.765625 0.234375q0.21875 0 0.46875 -0.03125q0.265625 -0.03125 0.546875 -0.109375l0 0.6875z" fill-rule="nonzero"/><path fill="#000000" fill-opacity="0.0" d="m2.7244093 32.902885l50.488186 0l0 24.31496l-50.488186 0z" fill-rule="evenodd"/><path fill="#7f6000" d="m14.863813 45.081635l-1.34375 0l0 -0.65625l2.15625 0l0 5.78125l1.359375 0l0 0.65625l-3.671875 0l0 -0.65625l1.5 0l0 -5.125zm7.441147 3.25q0 0.171875 -0.015625 0.296875q0 0.109375 0 0.203125l-3.21875 0q0 0.703125 0.390625 1.078125q0.390625 0.375 1.140625 0.375q0.1875 0 0.390625 -0.015625q0.203125 -0.015625 0.390625 -0.046875q0.1875 -0.03125 0.359375 -0.0625q0.171875 -0.03125 0.3125 -0.078125l0 0.65625q-0.328125 0.09375 -0.734375 0.140625q-0.40625 0.0625 -0.84375 0.0625q-0.578125 0 -1.015625 -0.15625q-0.421875 -0.15625 -0.6875 -0.453125q-0.265625 -0.3125 -0.40625 -0.75q-0.125 -0.4375 -0.125 -1.0q0 -0.484375 0.140625 -0.90625q0.140625 -0.4375 0.40625 -0.75q0.265625 -0.328125 0.65625 -0.515625q0.390625 -0.203125 0.875 -0.203125q0.484375 0 0.84375 0.15625q0.375 0.140625 0.625 0.421875q0.25 0.28125 0.375 0.671875q0.140625 0.390625 0.140625 0.875zm-0.828125 -0.109375q0.015625 -0.3125 -0.0625 -0.5625q-0.0625 -0.25 -0.21875 -0.421875q-0.15625 -0.1875 -0.390625 -0.28125q-0.21875 -0.109375 -0.515625 -0.109375q-0.265625 0 -0.484375 0.09375q-0.203125 0.09375 -0.359375 0.28125q-0.15625 0.1875 -0.25 0.4375q-0.09375 0.25 -0.125 0.5625l2.40625 0zm2.0973969 -1.9375l0.703125 0l0.03125 0.75q0.203125 -0.25 0.390625 -0.40625q0.1875 -0.15625 0.359375 -0.25q0.1875 -0.09375 0.375 -0.125q0.1875 -0.046875 0.375 -0.046875q0.71875 0 1.078125 0.421875q0.359375 0.40625 0.359375 1.25l0 2.984375l-0.796875 0l0 -2.921875q0 -0.53125 -0.203125 -0.78125q-0.1875 -0.265625 -0.59375 -0.265625q-0.140625 0 -0.28125 0.046875q-0.140625 0.03125 -0.296875 0.140625q-0.140625 0.109375 -0.328125 0.296875q-0.171875 0.171875 -0.390625 0.453125l0 3.03125l-0.78125 0l0 -4.578125zm8.409897 0.65625q0.1406269 0.15625 0.2031269 0.375q0.078125 0.203125 0.078125 0.453125q0 0.359375 -0.140625 0.65625q-0.1250019 0.28125 -0.3593769 0.5q-0.234375 0.203125 -0.578125 0.328125q-0.328125 0.109375 -0.71875 0.109375q-0.28125 0 -0.53125 -0.0625q-0.25 -0.0625 -0.40625 -0.15625q-0.078125 0.125 -0.140625 0.25q-0.0625 0.109375 -0.0625 0.25q0 0.171875 0.15625 0.296875q0.171875 0.109375 0.453125 0.109375l1.203125 0.046875q0.34375 0.015625 0.625 0.09375q0.2968769 0.078125 0.5000019 0.21875q0.203125 0.140625 0.3125 0.359375q0.125 0.21875 0.125 0.5q0 0.296875 -0.140625 0.5625q-0.125 0.28125 -0.40625 0.484375q-0.2656269 0.21875 -0.6875019 0.328125q-0.421875 0.125 -1.015625 0.125q-0.546875 0 -0.9375 -0.09375q-0.390625 -0.078125 -0.640625 -0.234375q-0.25 -0.15625 -0.375 -0.375q-0.109375 -0.21875 -0.109375 -0.46875q0 -0.34375 0.15625 -0.59375q0.15625 -0.25 0.484375 -0.484375q-0.125 -0.046875 -0.21875 -0.125q-0.078125 -0.09375 -0.140625 -0.1875q-0.046875 -0.09375 -0.078125 -0.203125q-0.015625 -0.109375 -0.015625 -0.21875q0 -0.296875 0.140625 -0.53125q0.140625 -0.25 0.328125 -0.46875q-0.09375 -0.109375 -0.15625 -0.203125q-0.0625 -0.109375 -0.109375 -0.21875q-0.046875 -0.125 -0.078125 -0.25q-0.03125 -0.140625 -0.03125 -0.3125q0 -0.359375 0.125 -0.640625q0.140625 -0.296875 0.375 -0.5q0.234375 -0.21875 0.5625 -0.328125q0.328125 -0.125 0.734375 -0.125q0.171875 0 0.328125 0.03125q0.15625 0.015625 0.265625 0.046875l1.6562519 0l0 0.65625l-0.7343769 0zm-2.75 4.578125q0 0.328125 0.328125 0.46875q0.34375 0.15625 0.953125 0.15625q0.375 0 0.625 -0.078125q0.265625 -0.0625 0.421875 -0.171875q0.15625 -0.109375 0.21875 -0.25q0.078125 -0.140625 0.078125 -0.296875q0 -0.28125 -0.234375 -0.421875q-0.21875 -0.125 -0.6875 -0.140625l-1.203125 -0.046875q-0.140625 0.109375 -0.25 0.203125q-0.09375 0.09375 -0.15625 0.1875q-0.046875 0.09375 -0.078125 0.1875q-0.015625 0.109375 -0.015625 0.203125zm0.25 -3.734375q0 0.21875 0.0625 0.40625q0.078125 0.171875 0.203125 0.3125q0.140625 0.125 0.3125 0.203125q0.1875 0.0625 0.40625 0.0625q0.234375 0 0.421875 -0.078125q0.1875 -0.09375 0.3125 -0.21875q0.125 -0.140625 0.1875 -0.3125q0.0625 -0.1875 0.0625 -0.375q0 -0.21875 -0.078125 -0.390625q-0.0625 -0.1875 -0.203125 -0.3125q-0.125 -0.140625 -0.3125 -0.203125q-0.171875 -0.078125 -0.390625 -0.078125q-0.234375 0 -0.421875 0.09375q-0.1875 0.078125 -0.3125 0.21875q-0.125 0.125 -0.1875 0.3125q-0.0625 0.171875 -0.0625 0.359375zm8.019274 3.015625q-0.265625 0.0625 -0.546875 0.09375q-0.28125 0.03125 -0.578125 0.03125q-0.875 0 -1.296875 -0.390625q-0.421875 -0.390625 -0.421875 -1.1875l0 -2.390625l-1.28125 0l0 -0.671875l1.28125 0l0 -1.25l0.796875 -0.203125l0 1.453125l2.046875 0l0 0.671875l-2.046875 0l0 2.328125q0 0.484375 0.265625 0.734375q0.265625 0.234375 0.765625 0.234375q0.21875 0 0.46875 -0.03125q0.265625 -0.03125 0.546875 -0.109375l0 0.6875zm5.128647 0.0625l-0.796875 0l0 -2.921875q0 -0.53125 -0.203125 -0.78125q-0.1875 -0.265625 -0.5625 -0.265625q-0.15625 0 -0.296875 0.046875q-0.140625 0.03125 -0.296875 0.140625q-0.140625 0.109375 -0.328125 0.296875q-0.171875 0.171875 -0.40625 0.453125l0 3.03125l-0.78125 0l0 -6.4375l0.78125 0l0 1.859375l-0.015625 0.71875q0.1875 -0.21875 0.359375 -0.359375q0.1875 -0.15625 0.359375 -0.25q0.1875 -0.109375 0.375 -0.140625q0.1875 -0.046875 0.375 -0.046875q0.6875 0 1.0625 0.421875q0.375 0.40625 0.375 1.25l0 2.984375z" fill-rule="nonzero"/><path fill="#000000" fill-opacity="0.0" d="m58.66142 32.902885l50.488186 0l0 24.31496l-50.488186 0z" fill-rule="evenodd"/><path fill="#7f6000" d="m75.86514 45.15976q-0.625 -0.125 -1.0625 -0.125q-1.078125 0 -1.078125 1.125l0 0.796875l2.0 0l0 0.65625l-2.0 0l0 3.25l-0.8125 0l0 -3.25l-1.46875 0l0 -0.65625l1.46875 0l0 -0.765625q0 -1.8125 1.90625 -1.8125q0.484375 0 1.046875 0.109375l0 0.671875zm-4.78125 1.125l0 0zm7.409897 0.65625l-1.34375 0l0 -0.65625l2.15625 0l0 3.921875l1.359375 0l0 0.65625l-3.671875 0l0 -0.65625l1.5 0l0 -3.265625zm0.28125 -2.5625q0.140625 0 0.25 0.046875q0.109375 0.046875 0.1875 0.140625q0.09375 0.078125 0.140625 0.1875q0.046875 0.109375 0.046875 0.25q0 0.125 -0.046875 0.234375q-0.046875 0.109375 -0.140625 0.203125q-0.078125 0.078125 -0.1875 0.125q-0.109375 0.046875 -0.25 0.046875q-0.125 0 -0.25 -0.046875q-0.109375 -0.046875 -0.203125 -0.125q-0.078125 -0.09375 -0.125 -0.203125q-0.046875 -0.109375 -0.046875 -0.234375q0 -0.140625 0.046875 -0.25q0.046875 -0.109375 0.125 -0.1875q0.09375 -0.09375 0.203125 -0.140625q0.125 -0.046875 0.25 -0.046875zm3.4880219 1.90625l0.71875 0l0.015625 0.84375q0.40625 -0.484375 0.796875 -0.703125q0.40625 -0.21875 0.796875 -0.21875q0.71875 0 1.078125 0.46875q0.375 0.453125 0.34375 1.359375l-0.796875 0q0.015625 -0.609375 -0.1875 -0.875q-0.1875 -0.265625 -0.546875 -0.265625q-0.15625 0 -0.328125 0.0625q-0.15625 0.046875 -0.328125 0.171875q-0.171875 0.125 -0.359375 0.328125q-0.1875 0.1875 -0.40625 0.46875l0 2.9375l-0.796875 0l0 -4.578125zm8.550522 3.328125q0 0.25 -0.078125 0.4375q-0.078125 0.1875 -0.21875 0.34375q-0.140625 0.140625 -0.328125 0.25q-0.1875 0.09375 -0.40625 0.171875q-0.203125 0.0625 -0.4375 0.09375q-0.21875 0.03125 -0.421875 0.03125q-0.46875 0 -0.859375 -0.046875q-0.390625 -0.03125 -0.765625 -0.125l0 -0.71875q0.40625 0.109375 0.796875 0.171875q0.390625 0.046875 0.78125 0.046875q0.578125 0 0.84375 -0.140625q0.28125 -0.15625 0.28125 -0.453125q0 -0.125 -0.046875 -0.21875q-0.046875 -0.09375 -0.15625 -0.1875q-0.109375 -0.09375 -0.359375 -0.1875q-0.234375 -0.09375 -0.640625 -0.21875q-0.3125 -0.09375 -0.578125 -0.203125q-0.265625 -0.109375 -0.453125 -0.265625q-0.1875 -0.171875 -0.296875 -0.375q-0.109375 -0.21875 -0.109375 -0.515625q0 -0.1875 0.078125 -0.40625q0.09375 -0.234375 0.3125 -0.421875q0.21875 -0.203125 0.578125 -0.328125q0.359375 -0.140625 0.90625 -0.140625q0.265625 0 0.59375 0.03125q0.328125 0.03125 0.6875 0.109375l0 0.703125q-0.375 -0.09375 -0.71875 -0.140625q-0.328125 -0.046875 -0.5625 -0.046875q-0.296875 0 -0.5 0.046875q-0.203125 0.046875 -0.328125 0.125q-0.125 0.078125 -0.1875 0.1875q-0.046875 0.109375 -0.046875 0.234375q0 0.125 0.046875 0.234375q0.046875 0.09375 0.171875 0.1875q0.125 0.09375 0.359375 0.1875q0.234375 0.09375 0.609375 0.203125q0.40625 0.109375 0.6875 0.25q0.28125 0.125 0.453125 0.28125q0.171875 0.15625 0.234375 0.359375q0.078125 0.203125 0.078125 0.453125zm5.191147 1.1875q-0.265625 0.0625 -0.546875 0.09375q-0.28125 0.03125 -0.578125 0.03125q-0.875 0 -1.296875 -0.390625q-0.421875 -0.390625 -0.421875 -1.1875l0 -2.390625l-1.28125 0l0 -0.671875l1.28125 0l0 -1.25l0.796875 -0.203125l0 1.453125l2.046875 0l0 0.671875l-2.046875 0l0 2.328125q0 0.484375 0.265625 0.734375q0.265625 0.234375 0.765625 0.234375q0.21875 0 0.46875 -0.03125q0.265625 -0.03125 0.546875 -0.109375l0 0.6875z" fill-rule="nonzero"/></g></svg>