<svg version="1.1" viewBox="0.0 0.0 448.40419947506564 168.79265091863516" fill="none" stroke="none" stroke-linecap="square" stroke-miterlimit="10" xmlns:xlink="http://www.w3.org/1999/xlink" xmlns="http://www.w3.org/2000/svg"><clipPath id="p.0"><path d="m0 0l448.4042 0l0 168.79265l-448.4042 0l0 -168.79265z" clip-rule="nonzero"/></clipPath><g clip-path="url(#p.0)"><path fill="#000000" fill-opacity="0.0" d="m0 0l448.4042 0l0 168.79265l-448.4042 0z" fill-rule="evenodd"/><path fill="#ffe599" d="m0 0l55.937008 0l0 55.937008l-55.937008 0z" fill-rule="evenodd"/><path stroke="#000000" stroke-width="1.0" stroke-linejoin="round" stroke-linecap="butt" d="m0 0l55.937008 0l0 55.937008l-55.937008 0z" fill-rule="evenodd"/><path fill="#000000" d="m27.372177 25.607254q1.0 0 1.96875 0.53125q0.96875 0.515625 1.5 1.484375q0.53125 0.96875 0.53125 2.0q0 1.671875 -1.171875 2.84375q-1.171875 1.171875 -2.828125 1.171875q-1.671875 0 -2.84375 -1.171875q-1.171875 -1.171875 -1.171875 -2.84375q0 -1.046875 0.53125 -2.0q0.546875 -0.96875 1.5 -1.484375q0.96875 -0.53125 1.984375 -0.53125z" fill-rule="nonzero"/><path fill="#c9daf8" d="m55.937008 0l55.937008 0l0 55.937008l-55.937008 0z" fill-rule="evenodd"/><path stroke="#000000" stroke-width="1.0" stroke-linejoin="round" stroke-linecap="butt" d="m55.937008 0l55.937008 0l0 55.937008l-55.937008 0z" fill-rule="evenodd"/><path fill="#000000" d="m80.48878 33.048504l0 -2.515625l-4.546875 0l0 -1.171875l4.78125 -6.796875l1.0625 0l0 6.796875l1.40625 0l0 1.171875l-1.40625 0l0 2.515625l-1.296875 0zm0 -3.6875l0 -4.734375l-3.28125 4.734375l3.28125 0zm10.791733 2.453125l0 1.234375l-6.9375 0q-0.015625 -0.46875 0.15625 -0.890625q0.265625 -0.71875 0.84375 -1.40625q0.59375 -0.6875 1.6875 -1.578125q1.71875 -1.40625 2.3125 -2.21875q0.609375 -0.828125 0.609375 -1.5625q0 -0.765625 -0.5625 -1.28125q-0.546875 -0.53125 -1.421875 -0.53125q-0.921875 0 -1.484375 0.5625q-0.5625 0.5625 -0.5625 1.546875l-1.328125 -0.140625q0.140625 -1.484375 1.015625 -2.25q0.890625 -0.78125 2.390625 -0.78125q1.515625 0 2.390625 0.84375q0.875 0.828125 0.875 2.0625q0 0.640625 -0.265625 1.25q-0.25 0.59375 -0.84375 1.265625q-0.59375 0.671875 -1.984375 1.859375q-1.15625 0.96875 -1.484375 1.3125q-0.328125 0.34375 -0.546875 0.703125l5.140625 0z" fill-rule="nonzero"/><path fill="#a4c2f4" d="m111.874016 0l55.937004 0l0 55.937008l-55.937004 0z" fill-rule="evenodd"/><path stroke="#000000" stroke-width="1.0" stroke-linejoin="round" stroke-linecap="butt" d="m111.874016 0l55.937004 0l0 55.937008l-55.937004 0z" fill-rule="evenodd"/><path fill="#000000" d="m139.24619 25.607254q1.0 0 1.96875 0.53125q0.96875 0.515625 1.5 1.484375q0.53125 0.96875 0.53125 2.0q0 1.671875 -1.171875 2.84375q-1.171875 1.171875 -2.828125 1.171875q-1.671875 0 -2.84375 -1.171875q-1.171875 -1.171875 -1.171875 -2.84375q0 -1.046875 0.53125 -2.0q0.546875 -0.96875 1.5 -1.484375q0.96875 -0.53125 1.984375 -0.53125z" fill-rule="nonzero"/><path fill="#c9daf8" d="m167.81102 0l55.93701 0l0 55.937008l-55.93701 0z" fill-rule="evenodd"/><path stroke="#000000" stroke-width="1.0" stroke-linejoin="round" stroke-linecap="butt" d="m167.81102 0l55.93701 0l0 55.937008l-55.93701 0z" fill-rule="evenodd"/><path fill="#000000" d="m191.37292 31.357254l1.640625 -0.21875q0.28125 1.40625 0.953125 2.015625q0.6875 0.609375 1.65625 0.609375q1.15625 0 1.953125 -0.796875q0.796875 -0.796875 0.796875 -1.984375q0 -1.125 -0.734375 -1.859375q-0.734375 -0.734375 -1.875 -0.734375q-0.46875 0 -1.15625 0.171875l0.1875 -1.4375q0.15625 0.015625 0.265625 0.015625q1.046875 0 1.875 -0.546875q0.84375 -0.546875 0.84375 -1.671875q0 -0.90625 -0.609375 -1.5q-0.609375 -0.59375 -1.578125 -0.59375q-0.953125 0 -1.59375 0.609375q-0.640625 0.59375 -0.8125 1.796875l-1.640625 -0.296875q0.296875 -1.640625 1.359375 -2.546875q1.0625 -0.90625 2.65625 -0.90625q1.09375 0 2.0 0.46875q0.921875 0.46875 1.40625 1.28125q0.5 0.8125 0.5 1.71875q0 0.859375 -0.46875 1.578125q-0.46875 0.703125 -1.375 1.125q1.1875 0.28125 1.84375 1.140625q0.65625 0.859375 0.65625 2.15625q0 1.734375 -1.28125 2.953125q-1.265625 1.21875 -3.21875 1.21875q-1.765625 0 -2.921875 -1.046875q-1.15625 -1.046875 -1.328125 -2.71875z" fill-rule="nonzero"/><path fill="#a4c2f4" d="m223.74803 0l55.936996 0l0 55.937008l-55.936996 0z" fill-rule="evenodd"/><path stroke="#000000" stroke-width="1.0" stroke-linejoin="round" stroke-linecap="butt" d="m223.74803 0l55.936996 0l0 55.937008l-55.936996 0z" fill-rule="evenodd"/><path fill="#000000" d="m246.85716 30.648504l-0.90625 0l-1.484375 -3.1875l-0.4375 -1.015625l0 2.5625l0 1.640625l-0.640625 0l0 -5.109375l0.890625 0l1.421875 3.015625l0.515625 1.171875l0 -2.734375l0 -1.453125l0.640625 0l0 5.109375zm4.4453125 -1.78125q0 0.421875 -0.125 0.765625q-0.125 0.34375 -0.359375 0.59375q-0.21875 0.234375 -0.5625 0.375q-0.328125 0.125 -0.765625 0.125q-0.46875 0 -0.8125 -0.125q-0.328125 -0.140625 -0.53125 -0.359375q-0.203125 -0.234375 -0.3125 -0.546875q-0.09375 -0.328125 -0.09375 -0.71875l0 -3.4375l0.703125 0l0 3.375q0 0.3125 0.046875 0.546875q0.0625 0.21875 0.1875 0.375q0.140625 0.140625 0.34375 0.21875q0.203125 0.078125 0.5 0.078125q0.546875 0 0.8125 -0.3125q0.265625 -0.328125 0.265625 -0.90625l0 -3.375l0.703125 0l0 3.328125zm4.2578125 1.78125l-2.9375 0l0 -5.109375l0.71875 0l0 4.515625l2.21875 0l0 0.59375zm4.3984222 0l-2.9375 0l0 -5.109375l0.71875 0l0 4.515625l2.21875 0l0 0.59375z" fill-rule="nonzero"/><path fill="#f3f3f3" d="m279.68503 0l55.93701 0l0 55.937008l-55.93701 0z" fill-rule="evenodd"/><path stroke="#000000" stroke-width="1.0" stroke-linejoin="round" stroke-linecap="butt" d="m279.68503 0l55.93701 0l0 55.937008l-55.93701 0z" fill-rule="evenodd"/><path fill="#f3f3f3" d="m335.62204 0l55.93701 0l0 55.937008l-55.93701 0z" fill-rule="evenodd"/><path stroke="#000000" stroke-width="1.0" stroke-linejoin="round" stroke-linecap="butt" d="m335.62204 0l55.93701 0l0 55.937008l-55.93701 0z" fill-rule="evenodd"/><path fill="#f3f3f3" d="m391.55905 0l55.93701 0l0 55.937008l-55.93701 0z" fill-rule="evenodd"/><path stroke="#000000" stroke-width="1.0" stroke-linejoin="round" stroke-linecap="butt" d="m391.55905 0l55.93701 0l0 55.937008l-55.93701 0z" fill-rule="evenodd"/><path fill="#f3f3f3" d="m0 55.937008l55.937008 0l0 55.937008l-55.937008 0z" fill-rule="evenodd"/><path stroke="#000000" stroke-width="1.0" stroke-linejoin="round" stroke-linecap="butt" d="m0 55.937008l55.937008 0l0 55.937008l-55.937008 0z" fill-rule="evenodd"/><path fill="#f3f3f3" d="m55.937008 55.937008l55.937008 0l0 55.937008l-55.937008 0z" fill-rule="evenodd"/><path stroke="#000000" stroke-width="1.0" stroke-linejoin="round" stroke-linecap="butt" d="m55.937008 55.937008l55.937008 0l0 55.937008l-55.937008 0z" fill-rule="evenodd"/><path fill="#f3f3f3" d="m111.874016 55.937008l55.937004 0l0 55.937008l-55.937004 0z" fill-rule="evenodd"/><path stroke="#000000" stroke-width="1.0" stroke-linejoin="round" stroke-linecap="butt" d="m111.874016 55.937008l55.937004 0l0 55.937008l-55.937004 0z" fill-rule="evenodd"/><path fill="#f3f3f3" d="m167.81102 55.937008l55.93701 0l0 55.937008l-55.93701 0z" fill-rule="evenodd"/><path stroke="#000000" stroke-width="1.0" stroke-linejoin="round" stroke-linecap="butt" d="m167.81102 55.937008l55.93701 0l0 55.937008l-55.93701 0z" fill-rule="evenodd"/><path fill="#f3f3f3" d="m223.74803 55.937008l55.936996 0l0 55.937008l-55.936996 0z" fill-rule="evenodd"/><path stroke="#000000" stroke-width="1.0" stroke-linejoin="round" stroke-linecap="butt" d="m223.74803 55.937008l55.936996 0l0 55.937008l-55.936996 0z" fill-rule="evenodd"/><path fill="#f3f3f3" d="m279.68503 55.937008l55.93701 0l0 55.937008l-55.93701 0z" fill-rule="evenodd"/><path stroke="#000000" stroke-width="1.0" stroke-linejoin="round" stroke-linecap="butt" d="m279.68503 55.937008l55.93701 0l0 55.937008l-55.93701 0z" fill-rule="evenodd"/><path fill="#f3f3f3" d="m335.62204 55.937008l55.93701 0l0 55.937008l-55.93701 0z" fill-rule="evenodd"/><path stroke="#000000" stroke-width="1.0" stroke-linejoin="round" stroke-linecap="butt" d="m335.62204 55.937008l55.93701 0l0 55.937008l-55.93701 0z" fill-rule="evenodd"/><path fill="#f3f3f3" d="m391.55905 55.937008l55.93701 0l0 55.937008l-55.93701 0z" fill-rule="evenodd"/><path stroke="#000000" stroke-width="1.0" stroke-linejoin="round" stroke-linecap="butt" d="m391.55905 55.937008l55.93701 0l0 55.937008l-55.93701 0z" fill-rule="evenodd"/><path fill="#f3f3f3" d="m0 111.874016l55.937008 0l0 55.937004l-55.937008 0z" fill-rule="evenodd"/><path stroke="#000000" stroke-width="1.0" stroke-linejoin="round" stroke-linecap="butt" d="m0 111.874016l55.937008 0l0 55.937004l-55.937008 0z" fill-rule="evenodd"/><path fill="#f3f3f3" d="m55.937008 111.874016l55.937008 0l0 55.937004l-55.937008 0z" fill-rule="evenodd"/><path stroke="#000000" stroke-width="1.0" stroke-linejoin="round" stroke-linecap="butt" d="m55.937008 111.874016l55.937008 0l0 55.937004l-55.937008 0z" fill-rule="evenodd"/><path fill="#f3f3f3" d="m111.874016 111.874016l55.937004 0l0 55.937004l-55.937004 0z" fill-rule="evenodd"/><path stroke="#000000" stroke-width="1.0" stroke-linejoin="round" stroke-linecap="butt" d="m111.874016 111.874016l55.937004 0l0 55.937004l-55.937004 0z" fill-rule="evenodd"/><path fill="#f3f3f3" d="m167.81102 111.874016l55.93701 0l0 55.937004l-55.93701 0z" fill-rule="evenodd"/><path stroke="#000000" stroke-width="1.0" stroke-linejoin="round" stroke-linecap="butt" d="m167.81102 111.874016l55.93701 0l0 55.937004l-55.93701 0z" fill-rule="evenodd"/><path fill="#f3f3f3" d="m223.74803 111.874016l55.936996 0l0 55.937004l-55.936996 0z" fill-rule="evenodd"/><path stroke="#000000" stroke-width="1.0" stroke-linejoin="round" stroke-linecap="butt" d="m223.74803 111.874016l55.936996 0l0 55.937004l-55.936996 0z" fill-rule="evenodd"/><path fill="#f3f3f3" d="m279.68503 111.874016l55.93701 0l0 55.937004l-55.93701 0z" fill-rule="evenodd"/><path stroke="#000000" stroke-width="1.0" stroke-linejoin="round" stroke-linecap="butt" d="m279.68503 111.874016l55.93701 0l0 55.937004l-55.93701 0z" fill-rule="evenodd"/><path fill="#f3f3f3" d="m335.62204 111.874016l55.93701 0l0 55.937004l-55.93701 0z" fill-rule="evenodd"/><path stroke="#000000" stroke-width="1.0" stroke-linejoin="round" stroke-linecap="butt" d="m335.62204 111.874016l55.93701 0l0 55.937004l-55.93701 0z" fill-rule="evenodd"/><path fill="#f3f3f3" d="m391.55905 111.874016l55.93701 0l0 55.937004l-55.93701 0z" fill-rule="evenodd"/><path stroke="#000000" stroke-width="1.0" stroke-linejoin="round" stroke-linecap="butt" d="m391.55905 111.874016l55.93701 0l0 55.937004l-55.93701 0z" fill-rule="evenodd"/><path fill="#000000" fill-opacity="0.0" d="m2.7244093 31.622047l50.488186 0l0 24.31496l-50.488186 0z" fill-rule="evenodd"/><path fill="#7f6000" d="m19.928137 43.87892q-0.625 -0.125 -1.0625 -0.125q-1.078125 0 -1.078125 1.125l0 0.796875l2.0 0l0 0.65625l-2.0 0l0 3.25l-0.8125 0l0 -3.25l-1.46875 0l0 -0.65625l1.46875 0l0 -0.765625q0 -1.8125 1.90625 -1.8125q0.484375 0 1.046875 0.109375l0 0.671875zm-4.78125 1.125l0 0zm7.409897 0.65625l-1.34375 0l0 -0.65625l2.15625 0l0 3.921875l1.359375 0l0 0.65625l-3.671875 0l0 -0.65625l1.5 0l0 -3.265625zm0.28125 -2.5625q0.140625 0 0.25 0.046875q0.109375 0.046875 0.1875 0.140625q0.09375 0.078125 0.140625 0.1875q0.046875 0.109375 0.046875 0.25q0 0.125 -0.046875 0.234375q-0.046875 0.109375 -0.140625 0.203125q-0.078125 0.078125 -0.1875 0.125q-0.109375 0.046875 -0.25 0.046875q-0.125 0 -0.25 -0.046875q-0.109375 -0.046875 -0.203125 -0.125q-0.078125 -0.09375 -0.125 -0.203125q-0.046875 -0.109375 -0.046875 -0.234375q0 -0.140625 0.046875 -0.25q0.046875 -0.109375 0.125 -0.1875q0.09375 -0.09375 0.203125 -0.140625q0.125 -0.046875 0.25 -0.046875zm3.4880219 1.90625l0.71875 0l0.015625 0.84375q0.40625 -0.484375 0.796875 -0.703125q0.40625 -0.21875 0.796875 -0.21875q0.71875 0 1.078125 0.46875q0.375 0.453125 0.34375 1.359375l-0.796875 0q0.015625 -0.609375 -0.1875 -0.875q-0.1875 -0.265625 -0.546875 -0.265625q-0.15625 0 -0.328125 0.0625q-0.15625 0.046875 -0.328125 0.171875q-0.171875 0.125 -0.359375 0.328125q-0.1875 0.1875 -0.40625 0.46875l0 2.9375l-0.796875 0l0 -4.578125zm8.550524 3.328125q0 0.25 -0.078125 0.4375q-0.078125 0.1875 -0.21875 0.34375q-0.140625 0.140625 -0.328125 0.25q-0.1875 0.09375 -0.40625 0.171875q-0.203125 0.0625 -0.4375 0.09375q-0.21875 0.03125 -0.421875 0.03125q-0.46875 0 -0.859375 -0.046875q-0.3906269 -0.03125 -0.7656269 -0.125l0 -0.71875q0.40625 0.109375 0.7968769 0.171875q0.390625 0.046875 0.78125 0.046875q0.578125 0 0.84375 -0.140625q0.28125 -0.15625 0.28125 -0.453125q0 -0.125 -0.046875 -0.21875q-0.046875 -0.09375 -0.15625 -0.1875q-0.109375 -0.09375 -0.359375 -0.1875q-0.234375 -0.09375 -0.640625 -0.21875q-0.3125 -0.09375 -0.578125 -0.203125q-0.265625 -0.109375 -0.4531269 -0.265625q-0.1875 -0.171875 -0.296875 -0.375q-0.109375 -0.21875 -0.109375 -0.515625q0 -0.1875 0.078125 -0.40625q0.09375 -0.234375 0.3125 -0.421875q0.2187519 -0.203125 0.5781269 -0.328125q0.359375 -0.140625 0.90625 -0.140625q0.265625 0 0.59375 0.03125q0.328125 0.03125 0.6875 0.109375l0 0.703125q-0.375 -0.09375 -0.71875 -0.140625q-0.328125 -0.046875 -0.5625 -0.046875q-0.296875 0 -0.5 0.046875q-0.203125 0.046875 -0.328125 0.125q-0.125 0.078125 -0.1875 0.1875q-0.046875 0.109375 -0.046875 0.234375q0 0.125 0.046875 0.234375q0.046875 0.09375 0.171875 0.1875q0.125 0.09375 0.359375 0.1875q0.234375 0.09375 0.609375 0.203125q0.40625 0.109375 0.6875 0.25q0.28125 0.125 0.453125 0.28125q0.171875 0.15625 0.234375 0.359375q0.078125 0.203125 0.078125 0.453125zm5.191147 1.1875q-0.265625 0.0625 -0.546875 0.09375q-0.28125 0.03125 -0.578125 0.03125q-0.875 0 -1.296875 -0.390625q-0.421875 -0.390625 -0.421875 -1.1875l0 -2.390625l-1.28125 0l0 -0.671875l1.28125 0l0 -1.25l0.796875 -0.203125l0 1.453125l2.046875 0l0 0.671875l-2.046875 0l0 2.328125q0 0.484375 0.265625 0.734375q0.265625 0.234375 0.765625 0.234375q0.21875 0 0.46875 -0.03125q0.265625 -0.03125 0.546875 -0.109375l0 0.6875z" fill-rule="nonzero"/><path fill="#000000" fill-opacity="0.0" d="m114.59843 31.622047l50.488182 0l0 24.31496l-50.488182 0z" fill-rule="evenodd"/><path fill="#1c4587" d="m130.3196 45.00392l0.703125 0l0.03125 0.75q0.203125 -0.25 0.390625 -0.40625q0.1875 -0.15625 0.359375 -0.25q0.1875 -0.09375 0.375 -0.125q0.1875 -0.046875 0.375 -0.046875q0.71875 0 1.078125 0.421875q0.359375 0.40625 0.359375 1.25l0 2.984375l-0.796875 0l0 -2.921875q0 -0.53125 -0.203125 -0.78125q-0.1875 -0.265625 -0.59375 -0.265625q-0.140625 0 -0.28125 0.046875q-0.140625 0.03125 -0.296875 0.140625q-0.140625 0.109375 -0.328125 0.296875q-0.171875 0.171875 -0.390625 0.453125l0 3.03125l-0.78125 0l0 -4.578125zm8.988022 2.046875q0 0.171875 -0.015625 0.296875q0 0.109375 0 0.203125l-3.21875 0q0 0.703125 0.390625 1.078125q0.390625 0.375 1.140625 0.375q0.1875 0 0.390625 -0.015625q0.203125 -0.015625 0.390625 -0.046875q0.1875 -0.03125 0.359375 -0.0625q0.171875 -0.03125 0.3125 -0.078125l0 0.65625q-0.328125 0.09375 -0.734375 0.140625q-0.40625 0.0625 -0.84375 0.0625q-0.578125 0 -1.015625 -0.15625q-0.421875 -0.15625 -0.6875 -0.453125q-0.265625 -0.3125 -0.40625 -0.75q-0.125 -0.4375 -0.125 -1.0q0 -0.484375 0.140625 -0.90625q0.140625 -0.4375 0.40625 -0.75q0.265625 -0.328125 0.65625 -0.515625q0.390625 -0.203125 0.875 -0.203125q0.484375 0 0.84375 0.15625q0.375 0.140625 0.625 0.421875q0.25 0.28125 0.375 0.671875q0.140625 0.390625 0.140625 0.875zm-0.828125 -0.109375q0.015625 -0.3125 -0.0625 -0.5625q-0.0625 -0.25 -0.21875 -0.421875q-0.15625 -0.1875 -0.390625 -0.28125q-0.21875 -0.109375 -0.515625 -0.109375q-0.265625 0 -0.484375 0.09375q-0.203125 0.09375 -0.359375 0.28125q-0.15625 0.1875 -0.25 0.4375q-0.09375 0.25 -0.125 0.5625l2.40625 0zm6.206772 2.640625l-1.046875 0l-1.234375 -1.75l-1.21875 1.75l-1.03125 0l1.78125 -2.296875l-1.6875 -2.28125l1.015625 0l1.203125 1.765625l1.171875 -1.765625l0.984375 0l-1.71875 2.296875l1.78125 2.28125zm4.691147 -0.0625q-0.265625 0.0625 -0.546875 0.09375q-0.28125 0.03125 -0.578125 0.03125q-0.875 0 -1.296875 -0.390625q-0.421875 -0.390625 -0.421875 -1.1875l0 -2.390625l-1.28125 0l0 -0.671875l1.28125 0l0 -1.25l0.796875 -0.203125l0 1.453125l2.046875 0l0 0.671875l-2.046875 0l0 2.328125q0 0.484375 0.265625 0.734375q0.265625 0.234375 0.765625 0.234375q0.21875 0 0.46875 -0.03125q0.265625 -0.03125 0.546875 -0.109375l0 0.6875z" fill-rule="nonzero"/><path fill="#000000" fill-opacity="0.0" d="m58.66142 31.622047l50.488186 0l0 24.31496l-50.488186 0z" fill-rule="evenodd"/><path fill="#1c4587" d="m71.38077 45.00392l0.90625 0l1.125 3.03125l0.234375 0.734375l0.25 -0.75l1.109375 -3.015625l0.875 0l-1.796875 4.578125l-0.90625 0l-1.796875 -4.578125zm8.503647 4.578125l-0.03125 -0.609375q-0.359375 0.359375 -0.75 0.53125q-0.390625 0.15625 -0.8125 0.15625q-0.390625 0 -0.671875 -0.09375q-0.265625 -0.109375 -0.453125 -0.28125q-0.171875 -0.171875 -0.265625 -0.40625q-0.078125 -0.234375 -0.078125 -0.515625q0 -0.6875 0.5 -1.078125q0.515625 -0.390625 1.515625 -0.390625l0.953125 0l0 -0.40625q0 -0.40625 -0.265625 -0.640625q-0.25 -0.25 -0.78125 -0.25q-0.390625 0 -0.765625 0.09375q-0.375 0.078125 -0.78125 0.25l0 -0.71875q0.15625 -0.0625 0.328125 -0.109375q0.1875 -0.046875 0.390625 -0.09375q0.21875 -0.046875 0.4375 -0.0625q0.21875 -0.03125 0.453125 -0.03125q0.40625 0 0.734375 0.09375q0.34375 0.09375 0.5625 0.28125q0.234375 0.1875 0.359375 0.46875q0.125 0.28125 0.125 0.65625l0 3.15625l-0.703125 0zm-0.09375 -2.078125l-1.0 0q-0.296875 0 -0.515625 0.0625q-0.21875 0.046875 -0.359375 0.15625q-0.125 0.109375 -0.203125 0.265625q-0.0625 0.15625 -0.0625 0.34375q0 0.140625 0.046875 0.265625q0.046875 0.109375 0.125 0.203125q0.09375 0.09375 0.234375 0.15625q0.15625 0.046875 0.359375 0.046875q0.28125 0 0.625 -0.15625q0.359375 -0.171875 0.75 -0.53125l0 -0.8125zm3.8317719 -3.703125l-1.34375 0l0 -0.65625l2.15625 0l0 5.78125l1.359375 0l0 0.65625l-3.671875 0l0 -0.65625l1.5 0l0 -5.125zm7.253647 5.78125l-0.71875 0l-0.015625 -0.734375q-0.203125 0.234375 -0.390625 0.390625q-0.1875 0.15625 -0.375 0.25q-0.171875 0.09375 -0.359375 0.125q-0.1875 0.046875 -0.390625 0.046875q-0.703125 0 -1.0625 -0.40625q-0.359375 -0.421875 -0.359375 -1.25l0 -3.0l0.78125 0l0 2.921875q0 1.0625 0.796875 1.0625q0.140625 0 0.28125 -0.046875q0.140625 -0.046875 0.296875 -0.140625q0.15625 -0.109375 0.328125 -0.296875q0.171875 -0.1875 0.390625 -0.46875l0 -3.03125l0.796875 0l0 4.578125zm5.316147 -2.53125q0 0.171875 -0.015625 0.296875q0 0.109375 0 0.203125l-3.21875 0q0 0.703125 0.390625 1.078125q0.390625 0.375 1.140625 0.375q0.1875 0 0.390625 -0.015625q0.203125 -0.015625 0.390625 -0.046875q0.1875 -0.03125 0.359375 -0.0625q0.171875 -0.03125 0.3125 -0.078125l0 0.65625q-0.328125 0.09375 -0.734375 0.140625q-0.40625 0.0625 -0.84375 0.0625q-0.578125 0 -1.015625 -0.15625q-0.421875 -0.15625 -0.6875 -0.453125q-0.265625 -0.3125 -0.40625 -0.75q-0.125 -0.4375 -0.125 -1.0q0 -0.484375 0.140625 -0.90625q0.140625 -0.4375 0.40625 -0.75q0.265625 -0.328125 0.65625 -0.515625q0.390625 -0.203125 0.875 -0.203125q0.484375 0 0.84375 0.15625q0.375 0.140625 0.625 0.421875q0.25 0.28125 0.375 0.671875q0.140625 0.390625 0.140625 0.875zm-0.828125 -0.109375q0.015625 -0.3125 -0.0625 -0.5625q-0.0625 -0.25 -0.21875 -0.421875q-0.15625 -0.1875 -0.390625 -0.28125q-0.21875 -0.109375 -0.515625 -0.109375q-0.265625 0 -0.484375 0.09375q-0.203125 0.09375 -0.359375 0.28125q-0.15625 0.1875 -0.25 0.4375q-0.09375 0.25 -0.125 0.5625l2.40625 0z" fill-rule="nonzero"/><path fill="#000000" fill-opacity="0.0" d="m28.223097 29.569553l39.338577 0" fill-rule="evenodd"/><path stroke="#000000" stroke-width="1.0" stroke-linejoin="round" stroke-linecap="butt" d="m28.223097 29.569553l33.338585 0" fill-rule="evenodd"/><path fill="#000000" stroke="#000000" stroke-width="1.0" stroke-linecap="butt" d="m61.56168 31.221287l4.5380974 -1.6517334l-4.5380974 -1.6517315z" fill-rule="evenodd"/><path fill="#000000" fill-opacity="0.0" d="m226.47244 31.622047l50.48819 0l0 24.31496l-50.48819 0z" fill-rule="evenodd"/><path fill="#1c4587" d="m242.19362 45.00392l0.703125 0l0.03125 0.75q0.203125 -0.25 0.390625 -0.40625q0.1875 -0.15625 0.359375 -0.25q0.1875 -0.09375 0.375 -0.125q0.1875 -0.046875 0.375 -0.046875q0.71875 0 1.078125 0.421875q0.359375 0.40625 0.359375 1.25l0 2.984375l-0.796875 0l0 -2.921875q0 -0.53125 -0.203125 -0.78125q-0.1875 -0.265625 -0.59375 -0.265625q-0.140625 0 -0.28125 0.046875q-0.140625 0.03125 -0.296875 0.140625q-0.140625 0.109375 -0.328125 0.296875q-0.171875 0.171875 -0.390625 0.453125l0 3.03125l-0.78125 0l0 -4.578125zm8.988022 2.046875q0 0.171875 -0.015625 0.296875q0 0.109375 0 0.203125l-3.21875 0q0 0.703125 0.390625 1.078125q0.390625 0.375 1.140625 0.375q0.1875 0 0.390625 -0.015625q0.203125 -0.015625 0.390625 -0.046875q0.1875 -0.03125 0.359375 -0.0625q0.171875 -0.03125 0.3125 -0.078125l0 0.65625q-0.328125 0.09375 -0.734375 0.140625q-0.40625 0.0625 -0.84375 0.0625q-0.578125 0 -1.015625 -0.15625q-0.421875 -0.15625 -0.6875 -0.453125q-0.265625 -0.3125 -0.40625 -0.75q-0.125 -0.4375 -0.125 -1.0q0 -0.484375 0.140625 -0.90625q0.140625 -0.4375 0.40625 -0.75q0.265625 -0.328125 0.65625 -0.515625q0.390625 -0.203125 0.875 -0.203125q0.484375 0 0.84375 0.15625q0.375 0.140625 0.625 0.421875q0.25 0.28125 0.375 0.671875q0.140625 0.390625 0.140625 0.875zm-0.828125 -0.109375q0.015625 -0.3125 -0.0625 -0.5625q-0.0625 -0.25 -0.21875 -0.421875q-0.15625 -0.1875 -0.390625 -0.28125q-0.21875 -0.109375 -0.515625 -0.109375q-0.265625 0 -0.484375 0.09375q-0.203125 0.09375 -0.359375 0.28125q-0.15625 0.1875 -0.25 0.4375q-0.09375 0.25 -0.125 0.5625l2.40625 0zm6.2067566 2.640625l-1.0468597 0l-1.234375 -1.75l-1.21875 1.75l-1.03125 0l1.78125 -2.296875l-1.6875 -2.28125l1.015625 0l1.203125 1.765625l1.171875 -1.765625l0.98435974 0l-1.7187347 2.296875l1.7812347 2.28125zm4.691162 -0.0625q-0.265625 0.0625 -0.546875 0.09375q-0.28125 0.03125 -0.578125 0.03125q-0.875 0 -1.296875 -0.390625q-0.421875 -0.390625 -0.421875 -1.1875l0 -2.390625l-1.28125 0l0 -0.671875l1.28125 0l0 -1.25l0.796875 -0.203125l0 1.453125l2.046875 0l0 0.671875l-2.046875 0l0 2.328125q0 0.484375 0.265625 0.734375q0.265625 0.234375 0.765625 0.234375q0.21875 0 0.46875 -0.03125q0.265625 -0.03125 0.546875 -0.109375l0 0.6875z" fill-rule="nonzero"/><path fill="#000000" fill-opacity="0.0" d="m170.53543 31.622047l50.48819 0l0 24.31496l-50.48819 0z" fill-rule="evenodd"/><path fill="#1c4587" d="m183.25479 45.00392l0.90625 0l1.125 3.03125l0.234375 0.734375l0.25 -0.75l1.109375 -3.015625l0.875 0l-1.796875 4.578125l-0.90625 0l-1.796875 -4.578125zm8.503647 4.578125l-0.03125 -0.609375q-0.359375 0.359375 -0.75 0.53125q-0.390625 0.15625 -0.8125 0.15625q-0.390625 0 -0.671875 -0.09375q-0.265625 -0.109375 -0.453125 -0.28125q-0.171875 -0.171875 -0.265625 -0.40625q-0.078125 -0.234375 -0.078125 -0.515625q0 -0.6875 0.5 -1.078125q0.515625 -0.390625 1.515625 -0.390625l0.953125 0l0 -0.40625q0 -0.40625 -0.265625 -0.640625q-0.25 -0.25 -0.78125 -0.25q-0.390625 0 -0.765625 0.09375q-0.375 0.078125 -0.78125 0.25l0 -0.71875q0.15625 -0.0625 0.328125 -0.109375q0.1875 -0.046875 0.390625 -0.09375q0.21875 -0.046875 0.4375 -0.0625q0.21875 -0.03125 0.453125 -0.03125q0.40625 0 0.734375 0.09375q0.34375 0.09375 0.5625 0.28125q0.234375 0.1875 0.359375 0.46875q0.125 0.28125 0.125 0.65625l0 3.15625l-0.703125 0zm-0.09375 -2.078125l-1.0 0q-0.296875 0 -0.515625 0.0625q-0.21875 0.046875 -0.359375 0.15625q-0.125 0.109375 -0.203125 0.265625q-0.0625 0.15625 -0.0625 0.34375q0 0.140625 0.046875 0.265625q0.046875 0.109375 0.125 0.203125q0.09375 0.09375 0.234375 0.15625q0.15625 0.046875 0.359375 0.046875q0.28125 0 0.625 -0.15625q0.359375 -0.171875 0.75 -0.53125l0 -0.8125zm3.8317719 -3.703125l-1.34375 0l0 -0.65625l2.15625 0l0 5.78125l1.359375 0l0 0.65625l-3.671875 0l0 -0.65625l1.5 0l0 -5.125zm7.253647 5.78125l-0.71875 0l-0.015625 -0.734375q-0.203125 0.234375 -0.390625 0.390625q-0.1875 0.15625 -0.375 0.25q-0.171875 0.09375 -0.359375 0.125q-0.1875 0.046875 -0.390625 0.046875q-0.703125 0 -1.0625 -0.40625q-0.359375 -0.421875 -0.359375 -1.25l0 -3.0l0.78125 0l0 2.921875q0 1.0625 0.796875 1.0625q0.140625 0 0.28125 -0.046875q0.140625 -0.046875 0.296875 -0.140625q0.15625 -0.109375 0.328125 -0.296875q0.171875 -0.1875 0.390625 -0.46875l0 -3.03125l0.796875 0l0 4.578125zm5.316147 -2.53125q0 0.171875 -0.015625 0.296875q0 0.109375 0 0.203125l-3.21875 0q0 0.703125 0.390625 1.078125q0.390625 0.375 1.140625 0.375q0.1875 0 0.390625 -0.015625q0.203125 -0.015625 0.390625 -0.046875q0.1875 -0.03125 0.359375 -0.0625q0.171875 -0.03125 0.3125 -0.078125l0 0.65625q-0.328125 0.09375 -0.734375 0.140625q-0.40625 0.0625 -0.84375 0.0625q-0.578125 0 -1.015625 -0.15625q-0.421875 -0.15625 -0.6875 -0.453125q-0.265625 -0.3125 -0.40625 -0.75q-0.125 -0.4375 -0.125 -1.0q0 -0.484375 0.140625 -0.90625q0.140625 -0.4375 0.40625 -0.75q0.265625 -0.328125 0.65625 -0.515625q0.390625 -0.203125 0.875 -0.203125q0.484375 0 0.84375 0.15625q0.375 0.140625 0.625 0.421875q0.25 0.28125 0.375 0.671875q0.140625 0.390625 0.140625 0.875zm-0.828125 -0.109375q0.015625 -0.3125 -0.0625 -0.5625q-0.0625 -0.25 -0.21875 -0.421875q-0.15625 -0.1875 -0.390625 -0.28125q-0.21875 -0.109375 -0.515625 -0.109375q-0.265625 0 -0.484375 0.09375q-0.203125 0.09375 -0.359375 0.28125q-0.15625 0.1875 -0.25 0.4375q-0.09375 0.25 -0.125 0.5625l2.40625 0z" fill-rule="nonzero"/><path fill="#000000" fill-opacity="0.0" d="m140.96588 29.446194l39.338577 0" fill-rule="evenodd"/><path stroke="#000000" stroke-width="1.0" stroke-linejoin="round" stroke-linecap="butt" d="m140.96588 29.446194l33.338577 0" fill-rule="evenodd"/><path fill="#000000" stroke="#000000" stroke-width="1.0" stroke-linecap="butt" d="m174.30446 31.097927l4.538101 -1.6517334l-4.538101 -1.6517315z" fill-rule="evenodd"/></g></svg>