<svg version="1.1" viewBox="0.0 0.0 448.40419947506564 168.79265091863516" fill="none" stroke="none" stroke-linecap="square" stroke-miterlimit="10" xmlns:xlink="http://www.w3.org/1999/xlink" xmlns="http://www.w3.org/2000/svg"><clipPath id="p.0"><path d="m0 0l448.4042 0l0 168.79265l-448.4042 0l0 -168.79265z" clip-rule="nonzero"/></clipPath><g clip-path="url(#p.0)"><path fill="#000000" fill-opacity="0.0" d="m0 0l448.4042 0l0 168.79265l-448.4042 0z" fill-rule="evenodd"/><path fill="#ffe599" d="m0 0l55.937008 0l0 55.937008l-55.937008 0z" fill-rule="evenodd"/><path stroke="#000000" stroke-width="1.0" stroke-linejoin="round" stroke-linecap="butt" d="m0 0l55.937008 0l0 55.937008l-55.937008 0z" fill-rule="evenodd"/><path fill="#000000" d="m23.109129 30.648504l-0.90625 0l-1.484375 -3.1875l-0.4375 -1.015625l0 2.5625l0 1.640625l-0.640625 0l0 -5.109375l0.890625 0l1.421875 3.015625l0.515625 1.171875l0 -2.734375l0 -1.453125l0.640625 0l0 5.109375zm4.4453125 -1.78125q0 0.421875 -0.125 0.765625q-0.125 0.34375 -0.359375 0.59375q-0.21875 0.234375 -0.5625 0.375q-0.328125 0.125 -0.765625 0.125q-0.46875 0 -0.8125 -0.125q-0.328125 -0.140625 -0.53125 -0.359375q-0.203125 -0.234375 -0.3125 -0.546875q-0.09375 -0.328125 -0.09375 -0.71875l0 -3.4375l0.703125 0l0 3.375q0 0.3125 0.046875 0.546875q0.0625 0.21875 0.1875 0.375q0.140625 0.140625 0.34375 0.21875q0.203125 0.078125 0.5 0.078125q0.546875 0 0.8125 -0.3125q0.265625 -0.328125 0.265625 -0.90625l0 -3.375l0.703125 0l0 3.328125zm4.2578125 1.78125l-2.9375 0l0 -5.109375l0.71875 0l0 4.515625l2.21875 0l0 0.59375zm4.3984394 0l-2.9375 0l0 -5.109375l0.71875 0l0 4.515625l2.21875 0l0 0.59375z" fill-rule="nonzero"/><path fill="#f3f3f3" d="m55.937008 0l55.937008 0l0 55.937008l-55.937008 0z" fill-rule="evenodd"/><path stroke="#000000" stroke-width="1.0" stroke-linejoin="round" stroke-linecap="butt" d="m55.937008 0l55.937008 0l0 55.937008l-55.937008 0z" fill-rule="evenodd"/><path fill="#f3f3f3" d="m111.874016 0l55.937004 0l0 55.937008l-55.937004 0z" fill-rule="evenodd"/><path stroke="#000000" stroke-width="1.0" stroke-linejoin="round" stroke-linecap="butt" d="m111.874016 0l55.937004 0l0 55.937008l-55.937004 0z" fill-rule="evenodd"/><path fill="#f3f3f3" d="m167.81102 0l55.93701 0l0 55.937008l-55.93701 0z" fill-rule="evenodd"/><path stroke="#000000" stroke-width="1.0" stroke-linejoin="round" stroke-linecap="butt" d="m167.81102 0l55.93701 0l0 55.937008l-55.93701 0z" fill-rule="evenodd"/><path fill="#f3f3f3" d="m223.74803 0l55.936996 0l0 55.937008l-55.936996 0z" fill-rule="evenodd"/><path stroke="#000000" stroke-width="1.0" stroke-linejoin="round" stroke-linecap="butt" d="m223.74803 0l55.936996 0l0 55.937008l-55.936996 0z" fill-rule="evenodd"/><path fill="#f3f3f3" d="m279.68503 0l55.93701 0l0 55.937008l-55.93701 0z" fill-rule="evenodd"/><path stroke="#000000" stroke-width="1.0" stroke-linejoin="round" stroke-linecap="butt" d="m279.68503 0l55.93701 0l0 55.937008l-55.93701 0z" fill-rule="evenodd"/><path fill="#f3f3f3" d="m335.62204 0l55.93701 0l0 55.937008l-55.93701 0z" fill-rule="evenodd"/><path stroke="#000000" stroke-width="1.0" stroke-linejoin="round" stroke-linecap="butt" d="m335.62204 0l55.93701 0l0 55.937008l-55.93701 0z" fill-rule="evenodd"/><path fill="#f3f3f3" d="m391.55905 0l55.93701 0l0 55.937008l-55.93701 0z" fill-rule="evenodd"/><path stroke="#000000" stroke-width="1.0" stroke-linejoin="round" stroke-linecap="butt" d="m391.55905 0l55.93701 0l0 55.937008l-55.93701 0z" fill-rule="evenodd"/><path fill="#f3f3f3" d="m0 55.937008l55.937008 0l0 55.937008l-55.937008 0z" fill-rule="evenodd"/><path stroke="#000000" stroke-width="1.0" stroke-linejoin="round" stroke-linecap="butt" d="m0 55.937008l55.937008 0l0 55.937008l-55.937008 0z" fill-rule="evenodd"/><path fill="#f3f3f3" d="m55.937008 55.937008l55.937008 0l0 55.937008l-55.937008 0z" fill-rule="evenodd"/><path stroke="#000000" stroke-width="1.0" stroke-linejoin="round" stroke-linecap="butt" d="m55.937008 55.937008l55.937008 0l0 55.937008l-55.937008 0z" fill-rule="evenodd"/><path fill="#f3f3f3" d="m111.874016 55.937008l55.937004 0l0 55.937008l-55.937004 0z" fill-rule="evenodd"/><path stroke="#000000" stroke-width="1.0" stroke-linejoin="round" stroke-linecap="butt" d="m111.874016 55.937008l55.937004 0l0 55.937008l-55.937004 0z" fill-rule="evenodd"/><path fill="#f3f3f3" d="m167.81102 55.937008l55.93701 0l0 55.937008l-55.93701 0z" fill-rule="evenodd"/><path stroke="#000000" stroke-width="1.0" stroke-linejoin="round" stroke-linecap="butt" d="m167.81102 55.937008l55.93701 0l0 55.937008l-55.93701 0z" fill-rule="evenodd"/><path fill="#f3f3f3" d="m223.74803 55.937008l55.936996 0l0 55.937008l-55.936996 0z" fill-rule="evenodd"/><path stroke="#000000" stroke-width="1.0" stroke-linejoin="round" stroke-linecap="butt" d="m223.74803 55.937008l55.936996 0l0 55.937008l-55.936996 0z" fill-rule="evenodd"/><path fill="#f3f3f3" d="m279.68503 55.937008l55.93701 0l0 55.937008l-55.93701 0z" fill-rule="evenodd"/><path stroke="#000000" stroke-width="1.0" stroke-linejoin="round" stroke-linecap="butt" d="m279.68503 55.937008l55.93701 0l0 55.937008l-55.93701 0z" fill-rule="evenodd"/><path fill="#f3f3f3" d="m335.62204 55.937008l55.93701 0l0 55.937008l-55.93701 0z" fill-rule="evenodd"/><path stroke="#000000" stroke-width="1.0" stroke-linejoin="round" stroke-linecap="butt" d="m335.62204 55.937008l55.93701 0l0 55.937008l-55.93701 0z" fill-rule="evenodd"/><path fill="#f3f3f3" d="m391.55905 55.937008l55.93701 0l0 55.937008l-55.93701 0z" fill-rule="evenodd"/><path stroke="#000000" stroke-width="1.0" stroke-linejoin="round" stroke-linecap="butt" d="m391.55905 55.937008l55.93701 0l0 55.937008l-55.93701 0z" fill-rule="evenodd"/><path fill="#f3f3f3" d="m0 111.874016l55.937008 0l0 55.937004l-55.937008 0z" fill-rule="evenodd"/><path stroke="#000000" stroke-width="1.0" stroke-linejoin="round" stroke-linecap="butt" d="m0 111.874016l55.937008 0l0 55.937004l-55.937008 0z" fill-rule="evenodd"/><path fill="#f3f3f3" d="m55.937008 111.874016l55.937008 0l0 55.937004l-55.937008 0z" fill-rule="evenodd"/><path stroke="#000000" stroke-width="1.0" stroke-linejoin="round" stroke-linecap="butt" d="m55.937008 111.874016l55.937008 0l0 55.937004l-55.937008 0z" fill-rule="evenodd"/><path fill="#f3f3f3" d="m111.874016 111.874016l55.937004 0l0 55.937004l-55.937004 0z" fill-rule="evenodd"/><path stroke="#000000" stroke-width="1.0" stroke-linejoin="round" stroke-linecap="butt" d="m111.874016 111.874016l55.937004 0l0 55.937004l-55.937004 0z" fill-rule="evenodd"/><path fill="#f3f3f3" d="m167.81102 111.874016l55.93701 0l0 55.937004l-55.93701 0z" fill-rule="evenodd"/><path stroke="#000000" stroke-width="1.0" stroke-linejoin="round" stroke-linecap="butt" d="m167.81102 111.874016l55.93701 0l0 55.937004l-55.93701 0z" fill-rule="evenodd"/><path fill="#f3f3f3" d="m223.74803 111.874016l55.936996 0l0 55.937004l-55.936996 0z" fill-rule="evenodd"/><path stroke="#000000" stroke-width="1.0" stroke-linejoin="round" stroke-linecap="butt" d="m223.74803 111.874016l55.936996 0l0 55.937004l-55.936996 0z" fill-rule="evenodd"/><path fill="#f3f3f3" d="m279.68503 111.874016l55.93701 0l0 55.937004l-55.93701 0z" fill-rule="evenodd"/><path stroke="#000000" stroke-width="1.0" stroke-linejoin="round" stroke-linecap="butt" d="m279.68503 111.874016l55.93701 0l0 55.937004l-55.93701 0z" fill-rule="evenodd"/><path fill="#f3f3f3" d="m335.62204 111.874016l55.93701 0l0 55.937004l-55.93701 0z" fill-rule="evenodd"/><path stroke="#000000" stroke-width="1.0" stroke-linejoin="round" stroke-linecap="butt" d="m335.62204 111.874016l55.93701 0l0 55.937004l-55.93701 0z" fill-rule="evenodd"/><path fill="#f3f3f3" d="m391.55905 111.874016l55.93701 0l0 55.937004l-55.93701 0z" fill-rule="evenodd"/><path stroke="#000000" stroke-width="1.0" stroke-linejoin="round" stroke-linecap="butt" d="m391.55905 111.874016l55.93701 0l0 55.937004l-55.93701 0z" fill-rule="evenodd"/><path fill="#000000" fill-opacity="0.0" d="m2.7244093 31.622047l50.488186 0l0 24.31496l-50.488186 0z" fill-rule="evenodd"/><path fill="#7f6000" d="m19.928137 43.87892q-0.625 -0.125 -1.0625 -0.125q-1.078125 0 -1.078125 1.125l0 0.796875l2.0 0l0 0.65625l-2.0 0l0 3.25l-0.8125 0l0 -3.25l-1.46875 0l0 -0.65625l1.46875 0l0 -0.765625q0 -1.8125 1.90625 -1.8125q0.484375 0 1.046875 0.109375l0 0.671875zm-4.78125 1.125l0 0zm7.409897 0.65625l-1.34375 0l0 -0.65625l2.15625 0l0 3.921875l1.359375 0l0 0.65625l-3.671875 0l0 -0.65625l1.5 0l0 -3.265625zm0.28125 -2.5625q0.140625 0 0.25 0.046875q0.109375 0.046875 0.1875 0.140625q0.09375 0.078125 0.140625 0.1875q0.046875 0.109375 0.046875 0.25q0 0.125 -0.046875 0.234375q-0.046875 0.109375 -0.140625 0.203125q-0.078125 0.078125 -0.1875 0.125q-0.109375 0.046875 -0.25 0.046875q-0.125 0 -0.25 -0.046875q-0.109375 -0.046875 -0.203125 -0.125q-0.078125 -0.09375 -0.125 -0.203125q-0.046875 -0.109375 -0.046875 -0.234375q0 -0.140625 0.046875 -0.25q0.046875 -0.109375 0.125 -0.1875q0.09375 -0.09375 0.203125 -0.140625q0.125 -0.046875 0.25 -0.046875zm3.4880219 1.90625l0.71875 0l0.015625 0.84375q0.40625 -0.484375 0.796875 -0.703125q0.40625 -0.21875 0.796875 -0.21875q0.71875 0 1.078125 0.46875q0.375 0.453125 0.34375 1.359375l-0.796875 0q0.015625 -0.609375 -0.1875 -0.875q-0.1875 -0.265625 -0.546875 -0.265625q-0.15625 0 -0.328125 0.0625q-0.15625 0.046875 -0.328125 0.171875q-0.171875 0.125 -0.359375 0.328125q-0.1875 0.1875 -0.40625 0.46875l0 2.9375l-0.796875 0l0 -4.578125zm8.550524 3.328125q0 0.25 -0.078125 0.4375q-0.078125 0.1875 -0.21875 0.34375q-0.140625 0.140625 -0.328125 0.25q-0.1875 0.09375 -0.40625 0.171875q-0.203125 0.0625 -0.4375 0.09375q-0.21875 0.03125 -0.421875 0.03125q-0.46875 0 -0.859375 -0.046875q-0.3906269 -0.03125 -0.7656269 -0.125l0 -0.71875q0.40625 0.109375 0.7968769 0.171875q0.390625 0.046875 0.78125 0.046875q0.578125 0 0.84375 -0.140625q0.28125 -0.15625 0.28125 -0.453125q0 -0.125 -0.046875 -0.21875q-0.046875 -0.09375 -0.15625 -0.1875q-0.109375 -0.09375 -0.359375 -0.1875q-0.234375 -0.09375 -0.640625 -0.21875q-0.3125 -0.09375 -0.578125 -0.203125q-0.265625 -0.109375 -0.4531269 -0.265625q-0.1875 -0.171875 -0.296875 -0.375q-0.109375 -0.21875 -0.109375 -0.515625q0 -0.1875 0.078125 -0.40625q0.09375 -0.234375 0.3125 -0.421875q0.2187519 -0.203125 0.5781269 -0.328125q0.359375 -0.140625 0.90625 -0.140625q0.265625 0 0.59375 0.03125q0.328125 0.03125 0.6875 0.109375l0 0.703125q-0.375 -0.09375 -0.71875 -0.140625q-0.328125 -0.046875 -0.5625 -0.046875q-0.296875 0 -0.5 0.046875q-0.203125 0.046875 -0.328125 0.125q-0.125 0.078125 -0.1875 0.1875q-0.046875 0.109375 -0.046875 0.234375q0 0.125 0.046875 0.234375q0.046875 0.09375 0.171875 0.1875q0.125 0.09375 0.359375 0.1875q0.234375 0.09375 0.609375 0.203125q0.40625 0.109375 0.6875 0.25q0.28125 0.125 0.453125 0.28125q0.171875 0.15625 0.234375 0.359375q0.078125 0.203125 0.078125 0.453125zm5.191147 1.1875q-0.265625 0.0625 -0.546875 0.09375q-0.28125 0.03125 -0.578125 0.03125q-0.875 0 -1.296875 -0.390625q-0.421875 -0.390625 -0.421875 -1.1875l0 -2.390625l-1.28125 0l0 -0.671875l1.28125 0l0 -1.25l0.796875 -0.203125l0 1.453125l2.046875 0l0 0.671875l-2.046875 0l0 2.328125q0 0.484375 0.265625 0.734375q0.265625 0.234375 0.765625 0.234375q0.21875 0 0.46875 -0.03125q0.265625 -0.03125 0.546875 -0.109375l0 0.6875z" fill-rule="nonzero"/></g></svg>