<svg version="1.1" viewBox="0.0 0.0 448.40419947506564 168.79265091863516" fill="none" stroke="none" stroke-linecap="square" stroke-miterlimit="10" xmlns:xlink="http://www.w3.org/1999/xlink" xmlns="http://www.w3.org/2000/svg"><clipPath id="p.0"><path d="m0 0l448.4042 0l0 168.79265l-448.4042 0l0 -168.79265z" clip-rule="nonzero"/></clipPath><g clip-path="url(#p.0)"><path fill="#000000" fill-opacity="0.0" d="m0 0l448.4042 0l0 168.79265l-448.4042 0z" fill-rule="evenodd"/><path fill="#6fa8dc" d="m0 0l55.937008 0l0 55.937008l-55.937008 0z" fill-rule="evenodd"/><path stroke="#000000" stroke-width="1.0" stroke-linejoin="round" stroke-linecap="butt" d="m0 0l55.937008 0l0 55.937008l-55.937008 0z" fill-rule="evenodd"/><path fill="#000000" d="m28.811895 34.888504l0 -3.203125l-5.796875 0l0 -1.5l6.09375 -8.65625l1.34375 0l0 8.65625l1.7968769 0l0 1.5l-1.7968769 0l0 3.203125l-1.640625 0zm0 -4.703125l0 -6.015625l-4.1875 6.015625l4.1875 0z" fill-rule="nonzero"/><path fill="#cfe2f3" d="m55.937008 0l55.937008 0l0 55.937008l-55.937008 0z" fill-rule="evenodd"/><path stroke="#000000" stroke-width="1.0" stroke-linejoin="round" stroke-linecap="butt" d="m55.937008 0l55.937008 0l0 55.937008l-55.937008 0z" fill-rule="evenodd"/><path fill="#000000" d="m85.67078 34.888504l-1.640625 0l0 -10.453125q-0.59375 0.5625 -1.5625 1.140625q-0.953125 0.5625 -1.71875 0.84375l0 -1.59375q1.375 -0.640625 2.40625 -1.5625q1.03125 -0.921875 1.453125 -1.78125l1.0625 0l0 13.40625z" fill-rule="nonzero"/><path fill="#cfe2f3" d="m111.874016 0l55.937004 0l0 55.937008l-55.937004 0z" fill-rule="evenodd"/><path stroke="#000000" stroke-width="1.0" stroke-linejoin="round" stroke-linecap="butt" d="m111.874016 0l55.937004 0l0 55.937008l-55.937004 0z" fill-rule="evenodd"/><path fill="#000000" d="m144.04529 33.31038l0 1.578125l-8.828125 0q-0.015625 -0.59375 0.1875 -1.140625q0.34375 -0.90625 1.078125 -1.78125q0.75 -0.875 2.15625 -2.015625q2.171875 -1.78125 2.9375 -2.828125q0.765625 -1.046875 0.765625 -1.96875q0 -0.984375 -0.703125 -1.640625q-0.6875 -0.671875 -1.8125 -0.671875q-1.1875 0 -1.90625 0.71875q-0.703125 0.703125 -0.703125 1.953125l-1.6875 -0.171875q0.171875 -1.890625 1.296875 -2.875q1.140625 -0.984375 3.03125 -0.984375q1.921875 0 3.046875 1.0625q1.125 1.0625 1.125 2.640625q0 0.796875 -0.328125 1.578125q-0.328125 0.78125 -1.09375 1.640625q-0.75 0.84375 -2.53125 2.34375q-1.46875 1.234375 -1.890625 1.6875q-0.421875 0.4375 -0.6875 0.875l6.546875 0z" fill-rule="nonzero"/><path fill="#cfe2f3" d="m167.81102 0l55.93701 0l0 55.937008l-55.93701 0z" fill-rule="evenodd"/><path stroke="#000000" stroke-width="1.0" stroke-linejoin="round" stroke-linecap="butt" d="m167.81102 0l55.93701 0l0 55.937008l-55.93701 0z" fill-rule="evenodd"/><path fill="#000000" d="m191.37292 31.357254l1.640625 -0.21875q0.28125 1.40625 0.953125 2.015625q0.6875 0.609375 1.65625 0.609375q1.15625 0 1.953125 -0.796875q0.796875 -0.796875 0.796875 -1.984375q0 -1.125 -0.734375 -1.859375q-0.734375 -0.734375 -1.875 -0.734375q-0.46875 0 -1.15625 0.171875l0.1875 -1.4375q0.15625 0.015625 0.265625 0.015625q1.046875 0 1.875 -0.546875q0.84375 -0.546875 0.84375 -1.671875q0 -0.90625 -0.609375 -1.5q-0.609375 -0.59375 -1.578125 -0.59375q-0.953125 0 -1.59375 0.609375q-0.640625 0.59375 -0.8125 1.796875l-1.640625 -0.296875q0.296875 -1.640625 1.359375 -2.546875q1.0625 -0.90625 2.65625 -0.90625q1.09375 0 2.0 0.46875q0.921875 0.46875 1.40625 1.28125q0.5 0.8125 0.5 1.71875q0 0.859375 -0.46875 1.578125q-0.46875 0.703125 -1.375 1.125q1.1875 0.28125 1.84375 1.140625q0.65625 0.859375 0.65625 2.15625q0 1.734375 -1.28125 2.953125q-1.265625 1.21875 -3.21875 1.21875q-1.765625 0 -2.921875 -1.046875q-1.15625 -1.046875 -1.328125 -2.71875z" fill-rule="nonzero"/><path fill="#cfe2f3" d="m223.74803 0l55.936996 0l0 55.937008l-55.936996 0z" fill-rule="evenodd"/><path stroke="#000000" stroke-width="1.0" stroke-linejoin="round" stroke-linecap="butt" d="m223.74803 0l55.936996 0l0 55.937008l-55.936996 0z" fill-rule="evenodd"/><path fill="#000000" d="m252.55992 34.888504l0 -3.203125l-5.796875 0l0 -1.5l6.09375 -8.65625l1.34375 0l0 8.65625l1.796875 0l0 1.5l-1.796875 0l0 3.203125l-1.640625 0zm0 -4.703125l0 -6.015625l-4.1875 6.015625l4.1875 0z" fill-rule="nonzero"/><path fill="#cfe2f3" d="m279.68503 0l55.93701 0l0 55.937008l-55.93701 0z" fill-rule="evenodd"/><path stroke="#000000" stroke-width="1.0" stroke-linejoin="round" stroke-linecap="butt" d="m279.68503 0l55.93701 0l0 55.937008l-55.93701 0z" fill-rule="evenodd"/><path fill="#cfe2f3" d="m335.62204 0l55.93701 0l0 55.937008l-55.93701 0z" fill-rule="evenodd"/><path stroke="#000000" stroke-width="1.0" stroke-linejoin="round" stroke-linecap="butt" d="m335.62204 0l55.93701 0l0 55.937008l-55.93701 0z" fill-rule="evenodd"/><path fill="#cfe2f3" d="m391.55905 0l55.93701 0l0 55.937008l-55.93701 0z" fill-rule="evenodd"/><path stroke="#000000" stroke-width="1.0" stroke-linejoin="round" stroke-linecap="butt" d="m391.55905 0l55.93701 0l0 55.937008l-55.93701 0z" fill-rule="evenodd"/><path fill="#ffe599" d="m0 55.937008l55.937008 0l0 55.937008l-55.937008 0z" fill-rule="evenodd"/><path stroke="#000000" stroke-width="1.0" stroke-linejoin="round" stroke-linecap="butt" d="m0 55.937008l55.937008 0l0 55.937008l-55.937008 0z" fill-rule="evenodd"/><path fill="#000000" d="m23.561895 87.29426l1.640625 -0.21875q0.28125 1.40625 0.953125 2.015625q0.6875 0.609375 1.65625 0.609375q1.15625 0 1.953125 -0.796875q0.796875 -0.796875 0.796875 -1.984375q0 -1.125 -0.734375 -1.859375q-0.734375 -0.734375 -1.875 -0.734375q-0.46875 0 -1.15625 0.171875l0.1875 -1.4375q0.15625 0.015625 0.265625 0.015625q1.046875 0 1.875 -0.546875q0.84375 -0.546875 0.84375 -1.671875q0 -0.90625 -0.609375 -1.5q-0.609375 -0.59375 -1.578125 -0.59375q-0.953125 0 -1.59375 0.609375q-0.640625 0.59375 -0.8125 1.796875l-1.640625 -0.296875q0.296875 -1.640625 1.359375 -2.546875q1.0625 -0.90625 2.65625 -0.90625q1.09375 0 2.0 0.46875q0.921875 0.46875 1.40625 1.28125q0.5 0.8125 0.5 1.71875q0 0.859375 -0.46875 1.578125q-0.46875 0.703125 -1.375 1.125q1.1875 0.28125 1.84375 1.140625q0.6562519 0.859375 0.6562519 2.15625q0 1.734375 -1.2812519 2.953125q-1.265625 1.21875 -3.21875 1.21875q-1.765625 0 -2.921875 -1.046875q-1.15625 -1.046875 -1.328125 -2.71875z" fill-rule="nonzero"/><path fill="#fff2cc" d="m55.937008 55.937008l55.937008 0l0 55.937008l-55.937008 0z" fill-rule="evenodd"/><path stroke="#000000" stroke-width="1.0" stroke-linejoin="round" stroke-linecap="butt" d="m55.937008 55.937008l55.937008 0l0 55.937008l-55.937008 0z" fill-rule="evenodd"/><path fill="#000000" d="m74.31104 87.32551l1.71875 -0.140625q0.1875 1.25 0.875 1.890625q0.703125 0.625 1.6875 0.625q1.1875 0 2.0 -0.890625q0.828125 -0.890625 0.828125 -2.359375q0 -1.40625 -0.796875 -2.21875q-0.78125 -0.8125 -2.0625 -0.8125q-0.78125 0 -1.421875 0.359375q-0.640625 0.359375 -1.0 0.9375l-1.546875 -0.203125l1.296875 -6.859375l6.640625 0l0 1.5625l-5.328125 0l-0.71875 3.59375q1.203125 -0.84375 2.515625 -0.84375q1.75 0 2.953125 1.21875q1.203125 1.203125 1.203125 3.109375q0 1.8125 -1.046875 3.140625q-1.296875 1.625 -3.515625 1.625q-1.8125 0 -2.96875 -1.015625q-1.15625 -1.03125 -1.3125 -2.71875zm10.375717 -3.09375q0 -2.359375 0.484375 -3.796875q0.484375 -1.453125 1.4375 -2.234375q0.96875 -0.78125 2.421875 -0.78125q1.078125 0 1.890625 0.4375q0.8125 0.421875 1.328125 1.25q0.53125 0.8125 0.828125 1.984375q0.3125 1.15625 0.3125 3.140625q0 2.359375 -0.484375 3.8125q-0.484375 1.4375 -1.453125 2.234375q-0.953125 0.78125 -2.421875 0.78125q-1.921875 0 -3.03125 -1.390625q-1.3125 -1.671875 -1.3125 -5.4375zm1.671875 0q0 3.296875 0.765625 4.390625q0.78125 1.078125 1.90625 1.078125q1.140625 0 1.90625 -1.09375q0.765625 -1.09375 0.765625 -4.375q0 -3.296875 -0.765625 -4.375q-0.765625 -1.078125 -1.921875 -1.078125q-1.125 0 -1.796875 0.953125q-0.859375 1.21875 -0.859375 4.5z" fill-rule="nonzero"/><path fill="#fff2cc" d="m111.874016 55.937008l55.937004 0l0 55.937008l-55.937004 0z" fill-rule="evenodd"/><path stroke="#000000" stroke-width="1.0" stroke-linejoin="round" stroke-linecap="butt" d="m111.874016 55.937008l55.937004 0l0 55.937008l-55.937004 0z" fill-rule="evenodd"/><path fill="#000000" d="m135.54529 79.21613l0 -1.578125l8.640625 0l0 1.28125q-1.28125 1.359375 -2.53125 3.609375q-1.25 2.25 -1.9375 4.625q-0.484375 1.671875 -0.625 3.671875l-1.6875 0q0.03125 -1.578125 0.625 -3.8125q0.59375 -2.234375 1.6875 -4.296875q1.109375 -2.078125 2.359375 -3.5l-6.53125 0z" fill-rule="nonzero"/><path fill="#fff2cc" d="m167.81102 55.937008l55.93701 0l0 55.937008l-55.93701 0z" fill-rule="evenodd"/><path stroke="#000000" stroke-width="1.0" stroke-linejoin="round" stroke-linecap="butt" d="m167.81102 55.937008l55.93701 0l0 55.937008l-55.93701 0z" fill-rule="evenodd"/><path fill="#000000" d="m191.43506 90.82551l0 -3.203125l-5.796875 0l0 -1.5l6.09375 -8.65625l1.34375 0l0 8.65625l1.796875 0l0 1.5l-1.796875 0l0 3.203125l-1.640625 0zm0 -4.703125l0 -6.015625l-4.1875 6.015625l4.1875 0zm5.360092 1.609375l1.578125 -0.140625q0.203125 1.109375 0.765625 1.609375q0.5625 0.5 1.453125 0.5q0.75 0 1.3125 -0.34375q0.578125 -0.34375 0.9375 -0.921875q0.375 -0.578125 0.609375 -1.5625q0.25 -0.984375 0.25 -2.0q0 -0.109375 0 -0.328125q-0.5 0.78125 -1.359375 1.265625q-0.84375 0.484375 -1.828125 0.484375q-1.671875 0 -2.8125 -1.203125q-1.140625 -1.203125 -1.140625 -3.171875q0 -2.03125 1.1875 -3.265625q1.203125 -1.234375 3.0 -1.234375q1.3125 0 2.390625 0.703125q1.078125 0.703125 1.640625 2.0q0.5625 1.296875 0.5625 3.75q0 2.5625 -0.5625 4.078125q-0.5625 1.515625 -1.65625 2.3125q-1.09375 0.796875 -2.578125 0.796875q-1.5625 0 -2.5625 -0.875q-0.984375 -0.875 -1.1875 -2.453125zm6.71875 -5.890625q0 -1.40625 -0.75 -2.234375q-0.75 -0.828125 -1.8125 -0.828125q-1.09375 0 -1.90625 0.890625q-0.8125 0.890625 -0.8125 2.3125q0 1.28125 0.765625 2.078125q0.78125 0.796875 1.90625 0.796875q1.140625 0 1.875 -0.796875q0.734375 -0.796875 0.734375 -2.21875z" fill-rule="nonzero"/><path fill="#fff2cc" d="m223.74803 55.937008l55.936996 0l0 55.937008l-55.936996 0z" fill-rule="evenodd"/><path stroke="#000000" stroke-width="1.0" stroke-linejoin="round" stroke-linecap="butt" d="m223.74803 55.937008l55.936996 0l0 55.937008l-55.936996 0z" fill-rule="evenodd"/><path fill="#fff2cc" d="m279.68503 55.937008l55.93701 0l0 55.937008l-55.93701 0z" fill-rule="evenodd"/><path stroke="#000000" stroke-width="1.0" stroke-linejoin="round" stroke-linecap="butt" d="m279.68503 55.937008l55.93701 0l0 55.937008l-55.93701 0z" fill-rule="evenodd"/><path fill="#fff2cc" d="m335.62204 55.937008l55.93701 0l0 55.937008l-55.93701 0z" fill-rule="evenodd"/><path stroke="#000000" stroke-width="1.0" stroke-linejoin="round" stroke-linecap="butt" d="m335.62204 55.937008l55.93701 0l0 55.937008l-55.93701 0z" fill-rule="evenodd"/><path fill="#fff2cc" d="m391.55905 55.937008l55.93701 0l0 55.937008l-55.93701 0z" fill-rule="evenodd"/><path stroke="#000000" stroke-width="1.0" stroke-linejoin="round" stroke-linecap="butt" d="m391.55905 55.937008l55.93701 0l0 55.937008l-55.93701 0z" fill-rule="evenodd"/><path fill="#f3f3f3" d="m0 111.874016l55.937008 0l0 55.937004l-55.937008 0z" fill-rule="evenodd"/><path stroke="#000000" stroke-width="1.0" stroke-linejoin="round" stroke-linecap="butt" d="m0 111.874016l55.937008 0l0 55.937004l-55.937008 0z" fill-rule="evenodd"/><path fill="#f3f3f3" d="m55.937008 111.874016l55.937008 0l0 55.937004l-55.937008 0z" fill-rule="evenodd"/><path stroke="#000000" stroke-width="1.0" stroke-linejoin="round" stroke-linecap="butt" d="m55.937008 111.874016l55.937008 0l0 55.937004l-55.937008 0z" fill-rule="evenodd"/><path fill="#f3f3f3" d="m111.874016 111.874016l55.937004 0l0 55.937004l-55.937004 0z" fill-rule="evenodd"/><path stroke="#000000" stroke-width="1.0" stroke-linejoin="round" stroke-linecap="butt" d="m111.874016 111.874016l55.937004 0l0 55.937004l-55.937004 0z" fill-rule="evenodd"/><path fill="#f3f3f3" d="m167.81102 111.874016l55.93701 0l0 55.937004l-55.93701 0z" fill-rule="evenodd"/><path stroke="#000000" stroke-width="1.0" stroke-linejoin="round" stroke-linecap="butt" d="m167.81102 111.874016l55.93701 0l0 55.937004l-55.93701 0z" fill-rule="evenodd"/><path fill="#f3f3f3" d="m223.74803 111.874016l55.936996 0l0 55.937004l-55.936996 0z" fill-rule="evenodd"/><path stroke="#000000" stroke-width="1.0" stroke-linejoin="round" stroke-linecap="butt" d="m223.74803 111.874016l55.936996 0l0 55.937004l-55.936996 0z" fill-rule="evenodd"/><path fill="#f3f3f3" d="m279.68503 111.874016l55.93701 0l0 55.937004l-55.93701 0z" fill-rule="evenodd"/><path stroke="#000000" stroke-width="1.0" stroke-linejoin="round" stroke-linecap="butt" d="m279.68503 111.874016l55.93701 0l0 55.937004l-55.93701 0z" fill-rule="evenodd"/><path fill="#f3f3f3" d="m335.62204 111.874016l55.93701 0l0 55.937004l-55.93701 0z" fill-rule="evenodd"/><path stroke="#000000" stroke-width="1.0" stroke-linejoin="round" stroke-linecap="butt" d="m335.62204 111.874016l55.93701 0l0 55.937004l-55.93701 0z" fill-rule="evenodd"/><path fill="#f3f3f3" d="m391.55905 111.874016l55.93701 0l0 55.937004l-55.93701 0z" fill-rule="evenodd"/><path stroke="#000000" stroke-width="1.0" stroke-linejoin="round" stroke-linecap="butt" d="m391.55905 111.874016l55.93701 0l0 55.937004l-55.93701 0z" fill-rule="evenodd"/><path fill="#000000" fill-opacity="0.0" d="m2.7244093 31.622047l50.488186 0l0 24.31496l-50.488186 0z" fill-rule="evenodd"/><path fill="#073763" d="m17.066938 49.582047l-3.421875 0l0 -5.953125l0.828125 0l0 5.265625l2.59375 0l0 0.6875zm5.238022 -2.53125q0 0.171875 -0.015625 0.296875q0 0.109375 0 0.203125l-3.21875 0q0 0.703125 0.390625 1.078125q0.390625 0.375 1.140625 0.375q0.1875 0 0.390625 -0.015625q0.203125 -0.015625 0.390625 -0.046875q0.1875 -0.03125 0.359375 -0.0625q0.171875 -0.03125 0.3125 -0.078125l0 0.65625q-0.328125 0.09375 -0.734375 0.140625q-0.40625 0.0625 -0.84375 0.0625q-0.578125 0 -1.015625 -0.15625q-0.421875 -0.15625 -0.6875 -0.453125q-0.265625 -0.3125 -0.40625 -0.75q-0.125 -0.4375 -0.125 -1.0q0 -0.484375 0.140625 -0.90625q0.140625 -0.4375 0.40625 -0.75q0.265625 -0.328125 0.65625 -0.515625q0.390625 -0.203125 0.875 -0.203125q0.484375 0 0.84375 0.15625q0.375 0.140625 0.625 0.421875q0.25 0.28125 0.375 0.671875q0.140625 0.390625 0.140625 0.875zm-0.828125 -0.109375q0.015625 -0.3125 -0.0625 -0.5625q-0.0625 -0.25 -0.21875 -0.421875q-0.15625 -0.1875 -0.390625 -0.28125q-0.21875 -0.109375 -0.515625 -0.109375q-0.265625 0 -0.484375 0.09375q-0.203125 0.09375 -0.359375 0.28125q-0.15625 0.1875 -0.25 0.4375q-0.09375 0.25 -0.125 0.5625l2.40625 0zm2.0973969 -1.9375l0.703125 0l0.03125 0.75q0.203125 -0.25 0.390625 -0.40625q0.1875 -0.15625 0.359375 -0.25q0.1875 -0.09375 0.375 -0.125q0.1875 -0.046875 0.375 -0.046875q0.71875 0 1.078125 0.421875q0.359375 0.40625 0.359375 1.25l0 2.984375l-0.796875 0l0 -2.921875q0 -0.53125 -0.203125 -0.78125q-0.1875 -0.265625 -0.59375 -0.265625q-0.140625 0 -0.28125 0.046875q-0.140625 0.03125 -0.296875 0.140625q-0.140625 0.109375 -0.328125 0.296875q-0.171875 0.171875 -0.390625 0.453125l0 3.03125l-0.78125 0l0 -4.578125zm8.409897 0.65625q0.1406269 0.15625 0.2031269 0.375q0.078125 0.203125 0.078125 0.453125q0 0.359375 -0.140625 0.65625q-0.1250019 0.28125 -0.3593769 0.5q-0.234375 0.203125 -0.578125 0.328125q-0.328125 0.109375 -0.71875 0.109375q-0.28125 0 -0.53125 -0.0625q-0.25 -0.0625 -0.40625 -0.15625q-0.078125 0.125 -0.140625 0.25q-0.0625 0.109375 -0.0625 0.25q0 0.171875 0.15625 0.296875q0.171875 0.109375 0.453125 0.109375l1.203125 0.046875q0.34375 0.015625 0.625 0.09375q0.2968769 0.078125 0.5000019 0.21875q0.203125 0.140625 0.3125 0.359375q0.125 0.21875 0.125 0.5q0 0.296875 -0.140625 0.5625q-0.125 0.28125 -0.40625 0.484375q-0.2656269 0.21875 -0.6875019 0.328125q-0.421875 0.125 -1.015625 0.125q-0.546875 0 -0.9375 -0.09375q-0.390625 -0.078125 -0.640625 -0.234375q-0.25 -0.15625 -0.375 -0.375q-0.109375 -0.21875 -0.109375 -0.46875q0 -0.34375 0.15625 -0.59375q0.15625 -0.25 0.484375 -0.484375q-0.125 -0.046875 -0.21875 -0.125q-0.078125 -0.09375 -0.140625 -0.1875q-0.046875 -0.09375 -0.078125 -0.203125q-0.015625 -0.109375 -0.015625 -0.21875q0 -0.296875 0.140625 -0.53125q0.140625 -0.25 0.328125 -0.46875q-0.09375 -0.109375 -0.15625 -0.203125q-0.0625 -0.109375 -0.109375 -0.21875q-0.046875 -0.125 -0.078125 -0.25q-0.03125 -0.140625 -0.03125 -0.3125q0 -0.359375 0.125 -0.640625q0.140625 -0.296875 0.375 -0.5q0.234375 -0.21875 0.5625 -0.328125q0.328125 -0.125 0.734375 -0.125q0.171875 0 0.328125 0.03125q0.15625 0.015625 0.265625 0.046875l1.6562519 0l0 0.65625l-0.7343769 0zm-2.75 4.578125q0 0.328125 0.328125 0.46875q0.34375 0.15625 0.953125 0.15625q0.375 0 0.625 -0.078125q0.265625 -0.0625 0.421875 -0.171875q0.15625 -0.109375 0.21875 -0.25q0.078125 -0.140625 0.078125 -0.296875q0 -0.28125 -0.234375 -0.421875q-0.21875 -0.125 -0.6875 -0.140625l-1.203125 -0.046875q-0.140625 0.109375 -0.25 0.203125q-0.09375 0.09375 -0.15625 0.1875q-0.046875 0.09375 -0.078125 0.1875q-0.015625 0.109375 -0.015625 0.203125zm0.25 -3.734375q0 0.21875 0.0625 0.40625q0.078125 0.171875 0.203125 0.3125q0.140625 0.125 0.3125 0.203125q0.1875 0.0625 0.40625 0.0625q0.234375 0 0.421875 -0.078125q0.1875 -0.09375 0.3125 -0.21875q0.125 -0.140625 0.1875 -0.3125q0.0625 -0.1875 0.0625 -0.375q0 -0.21875 -0.078125 -0.390625q-0.0625 -0.1875 -0.203125 -0.3125q-0.125 -0.140625 -0.3125 -0.203125q-0.171875 -0.078125 -0.390625 -0.078125q-0.234375 0 -0.421875 0.09375q-0.1875 0.078125 -0.3125 0.21875q-0.125 0.125 -0.1875 0.3125q-0.0625 0.171875 -0.0625 0.359375zm8.019274 3.015625q-0.265625 0.0625 -0.546875 0.09375q-0.28125 0.03125 -0.578125 0.03125q-0.875 0 -1.296875 -0.390625q-0.421875 -0.390625 -0.421875 -1.1875l0 -2.390625l-1.28125 0l0 -0.671875l1.28125 0l0 -1.25l0.796875 -0.203125l0 1.453125l2.046875 0l0 0.671875l-2.046875 0l0 2.328125q0 0.484375 0.265625 0.734375q0.265625 0.234375 0.765625 0.234375q0.21875 0 0.46875 -0.03125q0.265625 -0.03125 0.546875 -0.109375l0 0.6875zm5.128647 0.0625l-0.796875 0l0 -2.921875q0 -0.53125 -0.203125 -0.78125q-0.1875 -0.265625 -0.5625 -0.265625q-0.15625 0 -0.296875 0.046875q-0.140625 0.03125 -0.296875 0.140625q-0.140625 0.109375 -0.328125 0.296875q-0.171875 0.171875 -0.40625 0.453125l0 3.03125l-0.78125 0l0 -6.4375l0.78125 0l0 1.859375l-0.015625 0.71875q0.1875 -0.21875 0.359375 -0.359375q0.1875 -0.15625 0.359375 -0.25q0.1875 -0.109375 0.375 -0.140625q0.1875 -0.046875 0.375 -0.046875q0.6875 0 1.0625 0.421875q0.375 0.40625 0.375 1.25l0 2.984375z" fill-rule="nonzero"/><path fill="#000000" fill-opacity="0.0" d="m2.7244093 87.55905l50.488186 0l0 24.314964l-50.488186 0z" fill-rule="evenodd"/><path fill="#7f6000" d="m17.066938 105.51905l-3.421875 0l0 -5.953125l0.828125 0l0 5.265625l2.59375 0l0 0.6875zm5.238022 -2.53125q0 0.171875 -0.015625 0.296875q0 0.109375 0 0.203125l-3.21875 0q0 0.703125 0.390625 1.078125q0.390625 0.375 1.140625 0.375q0.1875 0 0.390625 -0.015625q0.203125 -0.015625 0.390625 -0.046875q0.1875 -0.03125 0.359375 -0.0625q0.171875 -0.03125 0.3125 -0.078125l0 0.65625q-0.328125 0.09375 -0.734375 0.140625q-0.40625 0.0625 -0.84375 0.0625q-0.578125 0 -1.015625 -0.15625q-0.421875 -0.15625 -0.6875 -0.453125q-0.265625 -0.3125 -0.40625 -0.75q-0.125 -0.4375 -0.125 -1.0q0 -0.484375 0.140625 -0.90625q0.140625 -0.4375 0.40625 -0.75q0.265625 -0.328125 0.65625 -0.515625q0.390625 -0.203125 0.875 -0.203125q0.484375 0 0.84375 0.15625q0.375 0.140625 0.625 0.421875q0.25 0.28125 0.375 0.671875q0.140625 0.390625 0.140625 0.875zm-0.828125 -0.109375q0.015625 -0.3125 -0.0625 -0.5625q-0.0625 -0.25 -0.21875 -0.421875q-0.15625 -0.1875 -0.390625 -0.28125q-0.21875 -0.109375 -0.515625 -0.109375q-0.265625 0 -0.484375 0.09375q-0.203125 0.09375 -0.359375 0.28125q-0.15625 0.1875 -0.25 0.4375q-0.09375 0.25 -0.125 0.5625l2.40625 0zm2.0973969 -1.9375l0.703125 0l0.03125 0.75q0.203125 -0.25 0.390625 -0.40625q0.1875 -0.15625 0.359375 -0.25q0.1875 -0.09375 0.375 -0.125q0.1875 -0.046875 0.375 -0.046875q0.71875 0 1.078125 0.421875q0.359375 0.40625 0.359375 1.25l0 2.984375l-0.796875 0l0 -2.921875q0 -0.53125 -0.203125 -0.78125q-0.1875 -0.265625 -0.59375 -0.265625q-0.140625 0 -0.28125 0.046875q-0.140625 0.03125 -0.296875 0.140625q-0.140625 0.109375 -0.328125 0.296875q-0.171875 0.171875 -0.390625 0.453125l0 3.03125l-0.78125 0l0 -4.578125zm8.409897 0.65625q0.1406269 0.15625 0.2031269 0.375q0.078125 0.203125 0.078125 0.453125q0 0.359375 -0.140625 0.65625q-0.1250019 0.28125 -0.3593769 0.5q-0.234375 0.203125 -0.578125 0.328125q-0.328125 0.109375 -0.71875 0.109375q-0.28125 0 -0.53125 -0.0625q-0.25 -0.0625 -0.40625 -0.15625q-0.078125 0.125 -0.140625 0.25q-0.0625 0.109375 -0.0625 0.25q0 0.171875 0.15625 0.296875q0.171875 0.109375 0.453125 0.109375l1.203125 0.046875q0.34375 0.015625 0.625 0.09375q0.2968769 0.078125 0.5000019 0.21875q0.203125 0.140625 0.3125 0.359375q0.125 0.21875 0.125 0.5q0 0.296875 -0.140625 0.5625q-0.125 0.28125 -0.40625 0.484375q-0.2656269 0.21875 -0.6875019 0.328125q-0.421875 0.125 -1.015625 0.125q-0.546875 0 -0.9375 -0.09375q-0.390625 -0.078125 -0.640625 -0.234375q-0.25 -0.15625 -0.375 -0.375q-0.109375 -0.21875 -0.109375 -0.46875q0 -0.34375 0.15625 -0.59375q0.15625 -0.25 0.484375 -0.484375q-0.125 -0.046875 -0.21875 -0.125q-0.078125 -0.09375 -0.140625 -0.1875q-0.046875 -0.09375 -0.078125 -0.203125q-0.015625 -0.109375 -0.015625 -0.21875q0 -0.296875 0.140625 -0.53125q0.140625 -0.25 0.328125 -0.46875q-0.09375 -0.109375 -0.15625 -0.203125q-0.0625 -0.109375 -0.109375 -0.21875q-0.046875 -0.125 -0.078125 -0.25q-0.03125 -0.140625 -0.03125 -0.3125q0 -0.359375 0.125 -0.640625q0.140625 -0.296875 0.375 -0.5q0.234375 -0.21875 0.5625 -0.328125q0.328125 -0.125 0.734375 -0.125q0.171875 0 0.328125 0.03125q0.15625 0.015625 0.265625 0.046875l1.6562519 0l0 0.65625l-0.7343769 0zm-2.75 4.578125q0 0.328125 0.328125 0.46875q0.34375 0.15625 0.953125 0.15625q0.375 0 0.625 -0.078125q0.265625 -0.0625 0.421875 -0.171875q0.15625 -0.109375 0.21875 -0.25q0.078125 -0.140625 0.078125 -0.296875q0 -0.28125 -0.234375 -0.421875q-0.21875 -0.125 -0.6875 -0.140625l-1.203125 -0.046875q-0.140625 0.109375 -0.25 0.203125q-0.09375 0.09375 -0.15625 0.1875q-0.046875 0.09375 -0.078125 0.1875q-0.015625 0.109375 -0.015625 0.203125zm0.25 -3.734375q0 0.21875 0.0625 0.40625q0.078125 0.171875 0.203125 0.3125q0.140625 0.125 0.3125 0.203125q0.1875 0.0625 0.40625 0.0625q0.234375 0 0.421875 -0.078125q0.1875 -0.09375 0.3125 -0.21875q0.125 -0.140625 0.1875 -0.3125q0.0625 -0.1875 0.0625 -0.375q0 -0.21875 -0.078125 -0.390625q-0.0625 -0.1875 -0.203125 -0.3125q-0.125 -0.140625 -0.3125 -0.203125q-0.171875 -0.078125 -0.390625 -0.078125q-0.234375 0 -0.421875 0.09375q-0.1875 0.078125 -0.3125 0.21875q-0.125 0.125 -0.1875 0.3125q-0.0625 0.171875 -0.0625 0.359375zm8.019274 3.015625q-0.265625 0.0625 -0.546875 0.09375q-0.28125 0.03125 -0.578125 0.03125q-0.875 0 -1.296875 -0.390625q-0.421875 -0.390625 -0.421875 -1.1875l0 -2.390625l-1.28125 0l0 -0.671875l1.28125 0l0 -1.25l0.796875 -0.203125l0 1.453125l2.046875 0l0 0.671875l-2.046875 0l0 2.328125q0 0.484375 0.265625 0.734375q0.265625 0.234375 0.765625 0.234375q0.21875 0 0.46875 -0.03125q0.265625 -0.03125 0.546875 -0.109375l0 0.6875zm5.128647 0.0625l-0.796875 0l0 -2.921875q0 -0.53125 -0.203125 -0.78125q-0.1875 -0.265625 -0.5625 -0.265625q-0.15625 0 -0.296875 0.046875q-0.140625 0.03125 -0.296875 0.140625q-0.140625 0.109375 -0.328125 0.296875q-0.171875 0.171875 -0.40625 0.453125l0 3.03125l-0.78125 0l0 -6.4375l0.78125 0l0 1.859375l-0.015625 0.71875q0.1875 -0.21875 0.359375 -0.359375q0.1875 -0.15625 0.359375 -0.25q0.1875 -0.109375 0.375 -0.140625q0.1875 -0.046875 0.375 -0.046875q0.6875 0 1.0625 0.421875q0.375 0.40625 0.375 1.25l0 2.984375z" fill-rule="nonzero"/></g></svg>